M48
; DRILL file {KiCad 9.0.7} date 2026-03-16T19:37:13-0500
; FORMAT={-:-/ absolute / metric / decimal}
; #@! TF.CreationDate,2026-03-16T19:37:13-05:00
; #@! TF.GenerationSoftware,Kicad,Pcbnew,9.0.7
; #@! TF.FileFunction,Plated,1,2,PTH
FMAT,2
METRIC
; #@! TA.AperFunction,Plated,PTH,ViaDrill
T1C0.150
; #@! TA.AperFunction,Plated,PTH,ViaDrill
T2C0.200
; #@! TA.AperFunction,Plated,PTH,ComponentDrill
T3C0.600
; #@! TA.AperFunction,Plated,PTH,ComponentDrill
T4C1.150
%
G90
G05
T1
X109.7Y-177.8
T2
X85.725Y-172.72
X87.2Y-164.6
X88.015Y-173.101
X88.392Y-165.1
X89.515Y-168.265
X90.6Y-161.8
X90.678Y-167.132
X91.186Y-169.926
X91.8Y-155.8
X92.051Y-172.875
X93.218Y-169.852
X93.726Y-171.756
X94.107Y-168.656
X94.742Y-162.941
X96.979Y-162.941
X97.036Y-169.418
X98.171Y-169.418
X98.171Y-175.133
X98.298Y-164.465
X98.806Y-159.281
X99.314Y-170.053
X99.568Y-166.624
X100.54Y-173.99
X100.7Y-156.5
X100.7Y-158.3
X101.346Y-166.243
X101.346Y-167.64
X101.727Y-156.337
X101.8Y-158.369
X102.108Y-166.243
X102.4Y-168.783
X102.4Y-174.85
X102.564Y-152.908
X102.759Y-162.254
X102.901Y-166.986
X102.977Y-168.101
X103.159Y-168.62
X103.246Y-175.923
X103.378Y-166.6
X103.602Y-155.418
X103.602Y-156.718
X104.1Y-157.5
X104.267Y-179.07
X104.5Y-168.1
X104.648Y-153.797
X104.648Y-154.559
X105.019Y-166.761
X105.26Y-171.99
X105.26Y-173.99
X105.537Y-176.765
X105.537Y-177.919
X105.55Y-155.425
X105.791Y-159.385
X106.251Y-171.148
X106.299Y-166.116
X106.5Y-151.407
X106.7Y-177.9
X106.724Y-159.175
X106.904Y-161.954
X107.1Y-154.4
X107.219Y-160.795
X107.315Y-157.988
X107.442Y-171.077
X107.5Y-157.2
X107.5Y-178.9
X107.55Y-151.407
X107.569Y-155.585
X108.127Y-164.95
X108.242Y-168.402
X108.855Y-160.15
X108.942Y-162.4
X109.1Y-149.3
X109.728Y-158.496
X109.728Y-165.481
X109.8Y-166.2
T4
X87.29Y-177.8
X91.5Y-177.8
X108.0Y-183.2
X108.2Y-145.9
X112.2Y-163.8
X112.3Y-178.6
X116.9Y-178.6
X121.5Y-178.6
X126.1Y-178.6
T3
G00X86.66Y-147.4
M15
G01X86.66Y-146.8
M16
G05
G00X86.66Y-151.2
M15
G01X86.66Y-150.6
M16
G05
G00X95.3Y-147.4
M15
G01X95.3Y-146.8
M16
G05
G00X95.3Y-151.2
M15
G01X95.3Y-150.6
M16
G05
M30
