%TF.GenerationSoftware,KiCad,Pcbnew,9.0.7*%
%TF.CreationDate,2026-03-16T19:36:42-05:00*%
%TF.ProjectId,ECG,4543472e-6b69-4636-9164-5f7063625858,rev?*%
%TF.SameCoordinates,Original*%
%TF.FileFunction,Legend,Top*%
%TF.FilePolarity,Positive*%
%FSLAX46Y46*%
G04 Gerber Fmt 4.6, Leading zero omitted, Abs format (unit mm)*
G04 Created by KiCad (PCBNEW 9.0.7) date 2026-03-16 19:36:42*
%MOMM*%
%LPD*%
G01*
G04 APERTURE LIST*
%ADD10C,0.150000*%
%ADD11C,0.120000*%
%ADD12C,0.152400*%
%ADD13C,0.300000*%
%ADD14C,0.200000*%
%ADD15C,0.000000*%
%ADD16C,0.127000*%
G04 APERTURE END LIST*
D10*
X96960642Y-170903580D02*
X96913023Y-170951200D01*
X96913023Y-170951200D02*
X96770166Y-170998819D01*
X96770166Y-170998819D02*
X96674928Y-170998819D01*
X96674928Y-170998819D02*
X96532071Y-170951200D01*
X96532071Y-170951200D02*
X96436833Y-170855961D01*
X96436833Y-170855961D02*
X96389214Y-170760723D01*
X96389214Y-170760723D02*
X96341595Y-170570247D01*
X96341595Y-170570247D02*
X96341595Y-170427390D01*
X96341595Y-170427390D02*
X96389214Y-170236914D01*
X96389214Y-170236914D02*
X96436833Y-170141676D01*
X96436833Y-170141676D02*
X96532071Y-170046438D01*
X96532071Y-170046438D02*
X96674928Y-169998819D01*
X96674928Y-169998819D02*
X96770166Y-169998819D01*
X96770166Y-169998819D02*
X96913023Y-170046438D01*
X96913023Y-170046438D02*
X96960642Y-170094057D01*
X97341595Y-170094057D02*
X97389214Y-170046438D01*
X97389214Y-170046438D02*
X97484452Y-169998819D01*
X97484452Y-169998819D02*
X97722547Y-169998819D01*
X97722547Y-169998819D02*
X97817785Y-170046438D01*
X97817785Y-170046438D02*
X97865404Y-170094057D01*
X97865404Y-170094057D02*
X97913023Y-170189295D01*
X97913023Y-170189295D02*
X97913023Y-170284533D01*
X97913023Y-170284533D02*
X97865404Y-170427390D01*
X97865404Y-170427390D02*
X97293976Y-170998819D01*
X97293976Y-170998819D02*
X97913023Y-170998819D01*
X98293976Y-170094057D02*
X98341595Y-170046438D01*
X98341595Y-170046438D02*
X98436833Y-169998819D01*
X98436833Y-169998819D02*
X98674928Y-169998819D01*
X98674928Y-169998819D02*
X98770166Y-170046438D01*
X98770166Y-170046438D02*
X98817785Y-170094057D01*
X98817785Y-170094057D02*
X98865404Y-170189295D01*
X98865404Y-170189295D02*
X98865404Y-170284533D01*
X98865404Y-170284533D02*
X98817785Y-170427390D01*
X98817785Y-170427390D02*
X98246357Y-170998819D01*
X98246357Y-170998819D02*
X98865404Y-170998819D01*
X108009580Y-151375357D02*
X108057200Y-151422976D01*
X108057200Y-151422976D02*
X108104819Y-151565833D01*
X108104819Y-151565833D02*
X108104819Y-151661071D01*
X108104819Y-151661071D02*
X108057200Y-151803928D01*
X108057200Y-151803928D02*
X107961961Y-151899166D01*
X107961961Y-151899166D02*
X107866723Y-151946785D01*
X107866723Y-151946785D02*
X107676247Y-151994404D01*
X107676247Y-151994404D02*
X107533390Y-151994404D01*
X107533390Y-151994404D02*
X107342914Y-151946785D01*
X107342914Y-151946785D02*
X107247676Y-151899166D01*
X107247676Y-151899166D02*
X107152438Y-151803928D01*
X107152438Y-151803928D02*
X107104819Y-151661071D01*
X107104819Y-151661071D02*
X107104819Y-151565833D01*
X107104819Y-151565833D02*
X107152438Y-151422976D01*
X107152438Y-151422976D02*
X107200057Y-151375357D01*
X107200057Y-150994404D02*
X107152438Y-150946785D01*
X107152438Y-150946785D02*
X107104819Y-150851547D01*
X107104819Y-150851547D02*
X107104819Y-150613452D01*
X107104819Y-150613452D02*
X107152438Y-150518214D01*
X107152438Y-150518214D02*
X107200057Y-150470595D01*
X107200057Y-150470595D02*
X107295295Y-150422976D01*
X107295295Y-150422976D02*
X107390533Y-150422976D01*
X107390533Y-150422976D02*
X107533390Y-150470595D01*
X107533390Y-150470595D02*
X108104819Y-151042023D01*
X108104819Y-151042023D02*
X108104819Y-150422976D01*
X107104819Y-150089642D02*
X107104819Y-149422976D01*
X107104819Y-149422976D02*
X108104819Y-149851547D01*
X104736580Y-177975357D02*
X104784200Y-178022976D01*
X104784200Y-178022976D02*
X104831819Y-178165833D01*
X104831819Y-178165833D02*
X104831819Y-178261071D01*
X104831819Y-178261071D02*
X104784200Y-178403928D01*
X104784200Y-178403928D02*
X104688961Y-178499166D01*
X104688961Y-178499166D02*
X104593723Y-178546785D01*
X104593723Y-178546785D02*
X104403247Y-178594404D01*
X104403247Y-178594404D02*
X104260390Y-178594404D01*
X104260390Y-178594404D02*
X104069914Y-178546785D01*
X104069914Y-178546785D02*
X103974676Y-178499166D01*
X103974676Y-178499166D02*
X103879438Y-178403928D01*
X103879438Y-178403928D02*
X103831819Y-178261071D01*
X103831819Y-178261071D02*
X103831819Y-178165833D01*
X103831819Y-178165833D02*
X103879438Y-178022976D01*
X103879438Y-178022976D02*
X103927057Y-177975357D01*
X104831819Y-177022976D02*
X104831819Y-177594404D01*
X104831819Y-177308690D02*
X103831819Y-177308690D01*
X103831819Y-177308690D02*
X103974676Y-177403928D01*
X103974676Y-177403928D02*
X104069914Y-177499166D01*
X104069914Y-177499166D02*
X104117533Y-177594404D01*
X104165152Y-176165833D02*
X104831819Y-176165833D01*
X103784200Y-176403928D02*
X104498485Y-176642023D01*
X104498485Y-176642023D02*
X104498485Y-176022976D01*
X107666666Y-180374819D02*
X107666666Y-181089104D01*
X107666666Y-181089104D02*
X107619047Y-181231961D01*
X107619047Y-181231961D02*
X107523809Y-181327200D01*
X107523809Y-181327200D02*
X107380952Y-181374819D01*
X107380952Y-181374819D02*
X107285714Y-181374819D01*
X108047619Y-180374819D02*
X108714285Y-180374819D01*
X108714285Y-180374819D02*
X108285714Y-181374819D01*
X95350819Y-171325166D02*
X94874628Y-171658499D01*
X95350819Y-171896594D02*
X94350819Y-171896594D01*
X94350819Y-171896594D02*
X94350819Y-171515642D01*
X94350819Y-171515642D02*
X94398438Y-171420404D01*
X94398438Y-171420404D02*
X94446057Y-171372785D01*
X94446057Y-171372785D02*
X94541295Y-171325166D01*
X94541295Y-171325166D02*
X94684152Y-171325166D01*
X94684152Y-171325166D02*
X94779390Y-171372785D01*
X94779390Y-171372785D02*
X94827009Y-171420404D01*
X94827009Y-171420404D02*
X94874628Y-171515642D01*
X94874628Y-171515642D02*
X94874628Y-171896594D01*
X94779390Y-170753737D02*
X94731771Y-170848975D01*
X94731771Y-170848975D02*
X94684152Y-170896594D01*
X94684152Y-170896594D02*
X94588914Y-170944213D01*
X94588914Y-170944213D02*
X94541295Y-170944213D01*
X94541295Y-170944213D02*
X94446057Y-170896594D01*
X94446057Y-170896594D02*
X94398438Y-170848975D01*
X94398438Y-170848975D02*
X94350819Y-170753737D01*
X94350819Y-170753737D02*
X94350819Y-170563261D01*
X94350819Y-170563261D02*
X94398438Y-170468023D01*
X94398438Y-170468023D02*
X94446057Y-170420404D01*
X94446057Y-170420404D02*
X94541295Y-170372785D01*
X94541295Y-170372785D02*
X94588914Y-170372785D01*
X94588914Y-170372785D02*
X94684152Y-170420404D01*
X94684152Y-170420404D02*
X94731771Y-170468023D01*
X94731771Y-170468023D02*
X94779390Y-170563261D01*
X94779390Y-170563261D02*
X94779390Y-170753737D01*
X94779390Y-170753737D02*
X94827009Y-170848975D01*
X94827009Y-170848975D02*
X94874628Y-170896594D01*
X94874628Y-170896594D02*
X94969866Y-170944213D01*
X94969866Y-170944213D02*
X95160342Y-170944213D01*
X95160342Y-170944213D02*
X95255580Y-170896594D01*
X95255580Y-170896594D02*
X95303200Y-170848975D01*
X95303200Y-170848975D02*
X95350819Y-170753737D01*
X95350819Y-170753737D02*
X95350819Y-170563261D01*
X95350819Y-170563261D02*
X95303200Y-170468023D01*
X95303200Y-170468023D02*
X95255580Y-170420404D01*
X95255580Y-170420404D02*
X95160342Y-170372785D01*
X95160342Y-170372785D02*
X94969866Y-170372785D01*
X94969866Y-170372785D02*
X94874628Y-170420404D01*
X94874628Y-170420404D02*
X94827009Y-170468023D01*
X94827009Y-170468023D02*
X94779390Y-170563261D01*
X88674819Y-178133333D02*
X89389104Y-178133333D01*
X89389104Y-178133333D02*
X89531961Y-178180952D01*
X89531961Y-178180952D02*
X89627200Y-178276190D01*
X89627200Y-178276190D02*
X89674819Y-178419047D01*
X89674819Y-178419047D02*
X89674819Y-178514285D01*
X88674819Y-177752380D02*
X88674819Y-177133333D01*
X88674819Y-177133333D02*
X89055771Y-177466666D01*
X89055771Y-177466666D02*
X89055771Y-177323809D01*
X89055771Y-177323809D02*
X89103390Y-177228571D01*
X89103390Y-177228571D02*
X89151009Y-177180952D01*
X89151009Y-177180952D02*
X89246247Y-177133333D01*
X89246247Y-177133333D02*
X89484342Y-177133333D01*
X89484342Y-177133333D02*
X89579580Y-177180952D01*
X89579580Y-177180952D02*
X89627200Y-177228571D01*
X89627200Y-177228571D02*
X89674819Y-177323809D01*
X89674819Y-177323809D02*
X89674819Y-177609523D01*
X89674819Y-177609523D02*
X89627200Y-177704761D01*
X89627200Y-177704761D02*
X89579580Y-177752380D01*
X96332094Y-165570819D02*
X96332094Y-166380342D01*
X96332094Y-166380342D02*
X96379713Y-166475580D01*
X96379713Y-166475580D02*
X96427332Y-166523200D01*
X96427332Y-166523200D02*
X96522570Y-166570819D01*
X96522570Y-166570819D02*
X96713046Y-166570819D01*
X96713046Y-166570819D02*
X96808284Y-166523200D01*
X96808284Y-166523200D02*
X96855903Y-166475580D01*
X96855903Y-166475580D02*
X96903522Y-166380342D01*
X96903522Y-166380342D02*
X96903522Y-165570819D01*
X97808284Y-165570819D02*
X97617808Y-165570819D01*
X97617808Y-165570819D02*
X97522570Y-165618438D01*
X97522570Y-165618438D02*
X97474951Y-165666057D01*
X97474951Y-165666057D02*
X97379713Y-165808914D01*
X97379713Y-165808914D02*
X97332094Y-165999390D01*
X97332094Y-165999390D02*
X97332094Y-166380342D01*
X97332094Y-166380342D02*
X97379713Y-166475580D01*
X97379713Y-166475580D02*
X97427332Y-166523200D01*
X97427332Y-166523200D02*
X97522570Y-166570819D01*
X97522570Y-166570819D02*
X97713046Y-166570819D01*
X97713046Y-166570819D02*
X97808284Y-166523200D01*
X97808284Y-166523200D02*
X97855903Y-166475580D01*
X97855903Y-166475580D02*
X97903522Y-166380342D01*
X97903522Y-166380342D02*
X97903522Y-166142247D01*
X97903522Y-166142247D02*
X97855903Y-166047009D01*
X97855903Y-166047009D02*
X97808284Y-165999390D01*
X97808284Y-165999390D02*
X97713046Y-165951771D01*
X97713046Y-165951771D02*
X97522570Y-165951771D01*
X97522570Y-165951771D02*
X97427332Y-165999390D01*
X97427332Y-165999390D02*
X97379713Y-166047009D01*
X97379713Y-166047009D02*
X97332094Y-166142247D01*
X108318189Y-168973370D02*
X108318189Y-168497179D01*
X108651522Y-169497179D02*
X108318189Y-168973370D01*
X108318189Y-168973370D02*
X107984856Y-169497179D01*
X107699141Y-169401941D02*
X107651522Y-169449560D01*
X107651522Y-169449560D02*
X107556284Y-169497179D01*
X107556284Y-169497179D02*
X107318189Y-169497179D01*
X107318189Y-169497179D02*
X107222951Y-169449560D01*
X107222951Y-169449560D02*
X107175332Y-169401941D01*
X107175332Y-169401941D02*
X107127713Y-169306703D01*
X107127713Y-169306703D02*
X107127713Y-169211465D01*
X107127713Y-169211465D02*
X107175332Y-169068608D01*
X107175332Y-169068608D02*
X107746760Y-168497179D01*
X107746760Y-168497179D02*
X107127713Y-168497179D01*
X90259642Y-152584819D02*
X89926309Y-152108628D01*
X89688214Y-152584819D02*
X89688214Y-151584819D01*
X89688214Y-151584819D02*
X90069166Y-151584819D01*
X90069166Y-151584819D02*
X90164404Y-151632438D01*
X90164404Y-151632438D02*
X90212023Y-151680057D01*
X90212023Y-151680057D02*
X90259642Y-151775295D01*
X90259642Y-151775295D02*
X90259642Y-151918152D01*
X90259642Y-151918152D02*
X90212023Y-152013390D01*
X90212023Y-152013390D02*
X90164404Y-152061009D01*
X90164404Y-152061009D02*
X90069166Y-152108628D01*
X90069166Y-152108628D02*
X89688214Y-152108628D01*
X91212023Y-152584819D02*
X90640595Y-152584819D01*
X90926309Y-152584819D02*
X90926309Y-151584819D01*
X90926309Y-151584819D02*
X90831071Y-151727676D01*
X90831071Y-151727676D02*
X90735833Y-151822914D01*
X90735833Y-151822914D02*
X90640595Y-151870533D01*
X92164404Y-152584819D02*
X91592976Y-152584819D01*
X91878690Y-152584819D02*
X91878690Y-151584819D01*
X91878690Y-151584819D02*
X91783452Y-151727676D01*
X91783452Y-151727676D02*
X91688214Y-151822914D01*
X91688214Y-151822914D02*
X91592976Y-151870533D01*
X92852065Y-172058925D02*
X93489486Y-172058925D01*
X93489486Y-172058925D02*
X93564476Y-172021430D01*
X93564476Y-172021430D02*
X93601972Y-171983934D01*
X93601972Y-171983934D02*
X93639467Y-171908944D01*
X93639467Y-171908944D02*
X93639467Y-171758962D01*
X93639467Y-171758962D02*
X93601972Y-171683972D01*
X93601972Y-171683972D02*
X93564476Y-171646476D01*
X93564476Y-171646476D02*
X93489486Y-171608981D01*
X93489486Y-171608981D02*
X92852065Y-171608981D01*
X92852065Y-170859075D02*
X92852065Y-171234028D01*
X92852065Y-171234028D02*
X93227018Y-171271523D01*
X93227018Y-171271523D02*
X93189523Y-171234028D01*
X93189523Y-171234028D02*
X93152028Y-171159037D01*
X93152028Y-171159037D02*
X93152028Y-170971561D01*
X93152028Y-170971561D02*
X93189523Y-170896570D01*
X93189523Y-170896570D02*
X93227018Y-170859075D01*
X93227018Y-170859075D02*
X93302009Y-170821579D01*
X93302009Y-170821579D02*
X93489486Y-170821579D01*
X93489486Y-170821579D02*
X93564476Y-170859075D01*
X93564476Y-170859075D02*
X93601972Y-170896570D01*
X93601972Y-170896570D02*
X93639467Y-170971561D01*
X93639467Y-170971561D02*
X93639467Y-171159037D01*
X93639467Y-171159037D02*
X93601972Y-171234028D01*
X93601972Y-171234028D02*
X93564476Y-171271523D01*
X86462405Y-173048819D02*
X86462405Y-172048819D01*
X86462405Y-172048819D02*
X86700500Y-172048819D01*
X86700500Y-172048819D02*
X86843357Y-172096438D01*
X86843357Y-172096438D02*
X86938595Y-172191676D01*
X86938595Y-172191676D02*
X86986214Y-172286914D01*
X86986214Y-172286914D02*
X87033833Y-172477390D01*
X87033833Y-172477390D02*
X87033833Y-172620247D01*
X87033833Y-172620247D02*
X86986214Y-172810723D01*
X86986214Y-172810723D02*
X86938595Y-172905961D01*
X86938595Y-172905961D02*
X86843357Y-173001200D01*
X86843357Y-173001200D02*
X86700500Y-173048819D01*
X86700500Y-173048819D02*
X86462405Y-173048819D01*
X87986214Y-173048819D02*
X87414786Y-173048819D01*
X87700500Y-173048819D02*
X87700500Y-172048819D01*
X87700500Y-172048819D02*
X87605262Y-172191676D01*
X87605262Y-172191676D02*
X87510024Y-172286914D01*
X87510024Y-172286914D02*
X87414786Y-172334533D01*
X84464819Y-178133333D02*
X85179104Y-178133333D01*
X85179104Y-178133333D02*
X85321961Y-178180952D01*
X85321961Y-178180952D02*
X85417200Y-178276190D01*
X85417200Y-178276190D02*
X85464819Y-178419047D01*
X85464819Y-178419047D02*
X85464819Y-178514285D01*
X85464819Y-177133333D02*
X85464819Y-177704761D01*
X85464819Y-177419047D02*
X84464819Y-177419047D01*
X84464819Y-177419047D02*
X84607676Y-177514285D01*
X84607676Y-177514285D02*
X84702914Y-177609523D01*
X84702914Y-177609523D02*
X84750533Y-177704761D01*
X106878580Y-156159166D02*
X106926200Y-156206785D01*
X106926200Y-156206785D02*
X106973819Y-156349642D01*
X106973819Y-156349642D02*
X106973819Y-156444880D01*
X106973819Y-156444880D02*
X106926200Y-156587737D01*
X106926200Y-156587737D02*
X106830961Y-156682975D01*
X106830961Y-156682975D02*
X106735723Y-156730594D01*
X106735723Y-156730594D02*
X106545247Y-156778213D01*
X106545247Y-156778213D02*
X106402390Y-156778213D01*
X106402390Y-156778213D02*
X106211914Y-156730594D01*
X106211914Y-156730594D02*
X106116676Y-156682975D01*
X106116676Y-156682975D02*
X106021438Y-156587737D01*
X106021438Y-156587737D02*
X105973819Y-156444880D01*
X105973819Y-156444880D02*
X105973819Y-156349642D01*
X105973819Y-156349642D02*
X106021438Y-156206785D01*
X106021438Y-156206785D02*
X106069057Y-156159166D01*
X106069057Y-155778213D02*
X106021438Y-155730594D01*
X106021438Y-155730594D02*
X105973819Y-155635356D01*
X105973819Y-155635356D02*
X105973819Y-155397261D01*
X105973819Y-155397261D02*
X106021438Y-155302023D01*
X106021438Y-155302023D02*
X106069057Y-155254404D01*
X106069057Y-155254404D02*
X106164295Y-155206785D01*
X106164295Y-155206785D02*
X106259533Y-155206785D01*
X106259533Y-155206785D02*
X106402390Y-155254404D01*
X106402390Y-155254404D02*
X106973819Y-155825832D01*
X106973819Y-155825832D02*
X106973819Y-155206785D01*
X108365833Y-160859580D02*
X108318214Y-160907200D01*
X108318214Y-160907200D02*
X108175357Y-160954819D01*
X108175357Y-160954819D02*
X108080119Y-160954819D01*
X108080119Y-160954819D02*
X107937262Y-160907200D01*
X107937262Y-160907200D02*
X107842024Y-160811961D01*
X107842024Y-160811961D02*
X107794405Y-160716723D01*
X107794405Y-160716723D02*
X107746786Y-160526247D01*
X107746786Y-160526247D02*
X107746786Y-160383390D01*
X107746786Y-160383390D02*
X107794405Y-160192914D01*
X107794405Y-160192914D02*
X107842024Y-160097676D01*
X107842024Y-160097676D02*
X107937262Y-160002438D01*
X107937262Y-160002438D02*
X108080119Y-159954819D01*
X108080119Y-159954819D02*
X108175357Y-159954819D01*
X108175357Y-159954819D02*
X108318214Y-160002438D01*
X108318214Y-160002438D02*
X108365833Y-160050057D01*
X108699167Y-159954819D02*
X109365833Y-159954819D01*
X109365833Y-159954819D02*
X108937262Y-160954819D01*
X108367833Y-160000819D02*
X107891643Y-160000819D01*
X107891643Y-160000819D02*
X107891643Y-159000819D01*
X109129738Y-159334152D02*
X109129738Y-160000819D01*
X108891643Y-158953200D02*
X108653548Y-159667485D01*
X108653548Y-159667485D02*
X109272595Y-159667485D01*
X108367833Y-163487819D02*
X107891643Y-163487819D01*
X107891643Y-163487819D02*
X107891643Y-162487819D01*
X109224976Y-163487819D02*
X108653548Y-163487819D01*
X108939262Y-163487819D02*
X108939262Y-162487819D01*
X108939262Y-162487819D02*
X108844024Y-162630676D01*
X108844024Y-162630676D02*
X108748786Y-162725914D01*
X108748786Y-162725914D02*
X108653548Y-162773533D01*
X92654642Y-154924819D02*
X92321309Y-154448628D01*
X92083214Y-154924819D02*
X92083214Y-153924819D01*
X92083214Y-153924819D02*
X92464166Y-153924819D01*
X92464166Y-153924819D02*
X92559404Y-153972438D01*
X92559404Y-153972438D02*
X92607023Y-154020057D01*
X92607023Y-154020057D02*
X92654642Y-154115295D01*
X92654642Y-154115295D02*
X92654642Y-154258152D01*
X92654642Y-154258152D02*
X92607023Y-154353390D01*
X92607023Y-154353390D02*
X92559404Y-154401009D01*
X92559404Y-154401009D02*
X92464166Y-154448628D01*
X92464166Y-154448628D02*
X92083214Y-154448628D01*
X93607023Y-154924819D02*
X93035595Y-154924819D01*
X93321309Y-154924819D02*
X93321309Y-153924819D01*
X93321309Y-153924819D02*
X93226071Y-154067676D01*
X93226071Y-154067676D02*
X93130833Y-154162914D01*
X93130833Y-154162914D02*
X93035595Y-154210533D01*
X94226071Y-153924819D02*
X94321309Y-153924819D01*
X94321309Y-153924819D02*
X94416547Y-153972438D01*
X94416547Y-153972438D02*
X94464166Y-154020057D01*
X94464166Y-154020057D02*
X94511785Y-154115295D01*
X94511785Y-154115295D02*
X94559404Y-154305771D01*
X94559404Y-154305771D02*
X94559404Y-154543866D01*
X94559404Y-154543866D02*
X94511785Y-154734342D01*
X94511785Y-154734342D02*
X94464166Y-154829580D01*
X94464166Y-154829580D02*
X94416547Y-154877200D01*
X94416547Y-154877200D02*
X94321309Y-154924819D01*
X94321309Y-154924819D02*
X94226071Y-154924819D01*
X94226071Y-154924819D02*
X94130833Y-154877200D01*
X94130833Y-154877200D02*
X94083214Y-154829580D01*
X94083214Y-154829580D02*
X94035595Y-154734342D01*
X94035595Y-154734342D02*
X93987976Y-154543866D01*
X93987976Y-154543866D02*
X93987976Y-154305771D01*
X93987976Y-154305771D02*
X94035595Y-154115295D01*
X94035595Y-154115295D02*
X94083214Y-154020057D01*
X94083214Y-154020057D02*
X94130833Y-153972438D01*
X94130833Y-153972438D02*
X94226071Y-153924819D01*
X94828628Y-161426190D02*
X95304819Y-161426190D01*
X94304819Y-161759523D02*
X94828628Y-161426190D01*
X94828628Y-161426190D02*
X94304819Y-161092857D01*
X95304819Y-160235714D02*
X95304819Y-160807142D01*
X95304819Y-160521428D02*
X94304819Y-160521428D01*
X94304819Y-160521428D02*
X94447676Y-160616666D01*
X94447676Y-160616666D02*
X94542914Y-160711904D01*
X94542914Y-160711904D02*
X94590533Y-160807142D01*
X99656580Y-177975357D02*
X99704200Y-178022976D01*
X99704200Y-178022976D02*
X99751819Y-178165833D01*
X99751819Y-178165833D02*
X99751819Y-178261071D01*
X99751819Y-178261071D02*
X99704200Y-178403928D01*
X99704200Y-178403928D02*
X99608961Y-178499166D01*
X99608961Y-178499166D02*
X99513723Y-178546785D01*
X99513723Y-178546785D02*
X99323247Y-178594404D01*
X99323247Y-178594404D02*
X99180390Y-178594404D01*
X99180390Y-178594404D02*
X98989914Y-178546785D01*
X98989914Y-178546785D02*
X98894676Y-178499166D01*
X98894676Y-178499166D02*
X98799438Y-178403928D01*
X98799438Y-178403928D02*
X98751819Y-178261071D01*
X98751819Y-178261071D02*
X98751819Y-178165833D01*
X98751819Y-178165833D02*
X98799438Y-178022976D01*
X98799438Y-178022976D02*
X98847057Y-177975357D01*
X99751819Y-177022976D02*
X99751819Y-177594404D01*
X99751819Y-177308690D02*
X98751819Y-177308690D01*
X98751819Y-177308690D02*
X98894676Y-177403928D01*
X98894676Y-177403928D02*
X98989914Y-177499166D01*
X98989914Y-177499166D02*
X99037533Y-177594404D01*
X98751819Y-176689642D02*
X98751819Y-176070595D01*
X98751819Y-176070595D02*
X99132771Y-176403928D01*
X99132771Y-176403928D02*
X99132771Y-176261071D01*
X99132771Y-176261071D02*
X99180390Y-176165833D01*
X99180390Y-176165833D02*
X99228009Y-176118214D01*
X99228009Y-176118214D02*
X99323247Y-176070595D01*
X99323247Y-176070595D02*
X99561342Y-176070595D01*
X99561342Y-176070595D02*
X99656580Y-176118214D01*
X99656580Y-176118214D02*
X99704200Y-176165833D01*
X99704200Y-176165833D02*
X99751819Y-176261071D01*
X99751819Y-176261071D02*
X99751819Y-176546785D01*
X99751819Y-176546785D02*
X99704200Y-176642023D01*
X99704200Y-176642023D02*
X99656580Y-176689642D01*
X108961580Y-172287357D02*
X109009200Y-172334976D01*
X109009200Y-172334976D02*
X109056819Y-172477833D01*
X109056819Y-172477833D02*
X109056819Y-172573071D01*
X109056819Y-172573071D02*
X109009200Y-172715928D01*
X109009200Y-172715928D02*
X108913961Y-172811166D01*
X108913961Y-172811166D02*
X108818723Y-172858785D01*
X108818723Y-172858785D02*
X108628247Y-172906404D01*
X108628247Y-172906404D02*
X108485390Y-172906404D01*
X108485390Y-172906404D02*
X108294914Y-172858785D01*
X108294914Y-172858785D02*
X108199676Y-172811166D01*
X108199676Y-172811166D02*
X108104438Y-172715928D01*
X108104438Y-172715928D02*
X108056819Y-172573071D01*
X108056819Y-172573071D02*
X108056819Y-172477833D01*
X108056819Y-172477833D02*
X108104438Y-172334976D01*
X108104438Y-172334976D02*
X108152057Y-172287357D01*
X108152057Y-171906404D02*
X108104438Y-171858785D01*
X108104438Y-171858785D02*
X108056819Y-171763547D01*
X108056819Y-171763547D02*
X108056819Y-171525452D01*
X108056819Y-171525452D02*
X108104438Y-171430214D01*
X108104438Y-171430214D02*
X108152057Y-171382595D01*
X108152057Y-171382595D02*
X108247295Y-171334976D01*
X108247295Y-171334976D02*
X108342533Y-171334976D01*
X108342533Y-171334976D02*
X108485390Y-171382595D01*
X108485390Y-171382595D02*
X109056819Y-171954023D01*
X109056819Y-171954023D02*
X109056819Y-171334976D01*
X108056819Y-170715928D02*
X108056819Y-170620690D01*
X108056819Y-170620690D02*
X108104438Y-170525452D01*
X108104438Y-170525452D02*
X108152057Y-170477833D01*
X108152057Y-170477833D02*
X108247295Y-170430214D01*
X108247295Y-170430214D02*
X108437771Y-170382595D01*
X108437771Y-170382595D02*
X108675866Y-170382595D01*
X108675866Y-170382595D02*
X108866342Y-170430214D01*
X108866342Y-170430214D02*
X108961580Y-170477833D01*
X108961580Y-170477833D02*
X109009200Y-170525452D01*
X109009200Y-170525452D02*
X109056819Y-170620690D01*
X109056819Y-170620690D02*
X109056819Y-170715928D01*
X109056819Y-170715928D02*
X109009200Y-170811166D01*
X109009200Y-170811166D02*
X108961580Y-170858785D01*
X108961580Y-170858785D02*
X108866342Y-170906404D01*
X108866342Y-170906404D02*
X108675866Y-170954023D01*
X108675866Y-170954023D02*
X108437771Y-170954023D01*
X108437771Y-170954023D02*
X108247295Y-170906404D01*
X108247295Y-170906404D02*
X108152057Y-170858785D01*
X108152057Y-170858785D02*
X108104438Y-170811166D01*
X108104438Y-170811166D02*
X108056819Y-170715928D01*
X95350819Y-174119166D02*
X94874628Y-174452499D01*
X95350819Y-174690594D02*
X94350819Y-174690594D01*
X94350819Y-174690594D02*
X94350819Y-174309642D01*
X94350819Y-174309642D02*
X94398438Y-174214404D01*
X94398438Y-174214404D02*
X94446057Y-174166785D01*
X94446057Y-174166785D02*
X94541295Y-174119166D01*
X94541295Y-174119166D02*
X94684152Y-174119166D01*
X94684152Y-174119166D02*
X94779390Y-174166785D01*
X94779390Y-174166785D02*
X94827009Y-174214404D01*
X94827009Y-174214404D02*
X94874628Y-174309642D01*
X94874628Y-174309642D02*
X94874628Y-174690594D01*
X94350819Y-173785832D02*
X94350819Y-173119166D01*
X94350819Y-173119166D02*
X95350819Y-173547737D01*
X101341580Y-156159166D02*
X101389200Y-156206785D01*
X101389200Y-156206785D02*
X101436819Y-156349642D01*
X101436819Y-156349642D02*
X101436819Y-156444880D01*
X101436819Y-156444880D02*
X101389200Y-156587737D01*
X101389200Y-156587737D02*
X101293961Y-156682975D01*
X101293961Y-156682975D02*
X101198723Y-156730594D01*
X101198723Y-156730594D02*
X101008247Y-156778213D01*
X101008247Y-156778213D02*
X100865390Y-156778213D01*
X100865390Y-156778213D02*
X100674914Y-156730594D01*
X100674914Y-156730594D02*
X100579676Y-156682975D01*
X100579676Y-156682975D02*
X100484438Y-156587737D01*
X100484438Y-156587737D02*
X100436819Y-156444880D01*
X100436819Y-156444880D02*
X100436819Y-156349642D01*
X100436819Y-156349642D02*
X100484438Y-156206785D01*
X100484438Y-156206785D02*
X100532057Y-156159166D01*
X100865390Y-155587737D02*
X100817771Y-155682975D01*
X100817771Y-155682975D02*
X100770152Y-155730594D01*
X100770152Y-155730594D02*
X100674914Y-155778213D01*
X100674914Y-155778213D02*
X100627295Y-155778213D01*
X100627295Y-155778213D02*
X100532057Y-155730594D01*
X100532057Y-155730594D02*
X100484438Y-155682975D01*
X100484438Y-155682975D02*
X100436819Y-155587737D01*
X100436819Y-155587737D02*
X100436819Y-155397261D01*
X100436819Y-155397261D02*
X100484438Y-155302023D01*
X100484438Y-155302023D02*
X100532057Y-155254404D01*
X100532057Y-155254404D02*
X100627295Y-155206785D01*
X100627295Y-155206785D02*
X100674914Y-155206785D01*
X100674914Y-155206785D02*
X100770152Y-155254404D01*
X100770152Y-155254404D02*
X100817771Y-155302023D01*
X100817771Y-155302023D02*
X100865390Y-155397261D01*
X100865390Y-155397261D02*
X100865390Y-155587737D01*
X100865390Y-155587737D02*
X100913009Y-155682975D01*
X100913009Y-155682975D02*
X100960628Y-155730594D01*
X100960628Y-155730594D02*
X101055866Y-155778213D01*
X101055866Y-155778213D02*
X101246342Y-155778213D01*
X101246342Y-155778213D02*
X101341580Y-155730594D01*
X101341580Y-155730594D02*
X101389200Y-155682975D01*
X101389200Y-155682975D02*
X101436819Y-155587737D01*
X101436819Y-155587737D02*
X101436819Y-155397261D01*
X101436819Y-155397261D02*
X101389200Y-155302023D01*
X101389200Y-155302023D02*
X101341580Y-155254404D01*
X101341580Y-155254404D02*
X101246342Y-155206785D01*
X101246342Y-155206785D02*
X101055866Y-155206785D01*
X101055866Y-155206785D02*
X100960628Y-155254404D01*
X100960628Y-155254404D02*
X100913009Y-155302023D01*
X100913009Y-155302023D02*
X100865390Y-155397261D01*
X105307114Y-150355261D02*
X105611876Y-150355261D01*
X104971876Y-150568594D02*
X105307114Y-150355261D01*
X105307114Y-150355261D02*
X104971876Y-150141927D01*
X104971876Y-149989547D02*
X104971876Y-149593356D01*
X104971876Y-149593356D02*
X105215685Y-149806690D01*
X105215685Y-149806690D02*
X105215685Y-149715261D01*
X105215685Y-149715261D02*
X105246161Y-149654309D01*
X105246161Y-149654309D02*
X105276638Y-149623833D01*
X105276638Y-149623833D02*
X105337590Y-149593356D01*
X105337590Y-149593356D02*
X105489971Y-149593356D01*
X105489971Y-149593356D02*
X105550923Y-149623833D01*
X105550923Y-149623833D02*
X105581400Y-149654309D01*
X105581400Y-149654309D02*
X105611876Y-149715261D01*
X105611876Y-149715261D02*
X105611876Y-149898118D01*
X105611876Y-149898118D02*
X105581400Y-149959071D01*
X105581400Y-149959071D02*
X105550923Y-149989547D01*
X96960642Y-173189580D02*
X96913023Y-173237200D01*
X96913023Y-173237200D02*
X96770166Y-173284819D01*
X96770166Y-173284819D02*
X96674928Y-173284819D01*
X96674928Y-173284819D02*
X96532071Y-173237200D01*
X96532071Y-173237200D02*
X96436833Y-173141961D01*
X96436833Y-173141961D02*
X96389214Y-173046723D01*
X96389214Y-173046723D02*
X96341595Y-172856247D01*
X96341595Y-172856247D02*
X96341595Y-172713390D01*
X96341595Y-172713390D02*
X96389214Y-172522914D01*
X96389214Y-172522914D02*
X96436833Y-172427676D01*
X96436833Y-172427676D02*
X96532071Y-172332438D01*
X96532071Y-172332438D02*
X96674928Y-172284819D01*
X96674928Y-172284819D02*
X96770166Y-172284819D01*
X96770166Y-172284819D02*
X96913023Y-172332438D01*
X96913023Y-172332438D02*
X96960642Y-172380057D01*
X97913023Y-173284819D02*
X97341595Y-173284819D01*
X97627309Y-173284819D02*
X97627309Y-172284819D01*
X97627309Y-172284819D02*
X97532071Y-172427676D01*
X97532071Y-172427676D02*
X97436833Y-172522914D01*
X97436833Y-172522914D02*
X97341595Y-172570533D01*
X98484452Y-172713390D02*
X98389214Y-172665771D01*
X98389214Y-172665771D02*
X98341595Y-172618152D01*
X98341595Y-172618152D02*
X98293976Y-172522914D01*
X98293976Y-172522914D02*
X98293976Y-172475295D01*
X98293976Y-172475295D02*
X98341595Y-172380057D01*
X98341595Y-172380057D02*
X98389214Y-172332438D01*
X98389214Y-172332438D02*
X98484452Y-172284819D01*
X98484452Y-172284819D02*
X98674928Y-172284819D01*
X98674928Y-172284819D02*
X98770166Y-172332438D01*
X98770166Y-172332438D02*
X98817785Y-172380057D01*
X98817785Y-172380057D02*
X98865404Y-172475295D01*
X98865404Y-172475295D02*
X98865404Y-172522914D01*
X98865404Y-172522914D02*
X98817785Y-172618152D01*
X98817785Y-172618152D02*
X98770166Y-172665771D01*
X98770166Y-172665771D02*
X98674928Y-172713390D01*
X98674928Y-172713390D02*
X98484452Y-172713390D01*
X98484452Y-172713390D02*
X98389214Y-172761009D01*
X98389214Y-172761009D02*
X98341595Y-172808628D01*
X98341595Y-172808628D02*
X98293976Y-172903866D01*
X98293976Y-172903866D02*
X98293976Y-173094342D01*
X98293976Y-173094342D02*
X98341595Y-173189580D01*
X98341595Y-173189580D02*
X98389214Y-173237200D01*
X98389214Y-173237200D02*
X98484452Y-173284819D01*
X98484452Y-173284819D02*
X98674928Y-173284819D01*
X98674928Y-173284819D02*
X98770166Y-173237200D01*
X98770166Y-173237200D02*
X98817785Y-173189580D01*
X98817785Y-173189580D02*
X98865404Y-173094342D01*
X98865404Y-173094342D02*
X98865404Y-172903866D01*
X98865404Y-172903866D02*
X98817785Y-172808628D01*
X98817785Y-172808628D02*
X98770166Y-172761009D01*
X98770166Y-172761009D02*
X98674928Y-172713390D01*
X109859580Y-156635357D02*
X109907200Y-156682976D01*
X109907200Y-156682976D02*
X109954819Y-156825833D01*
X109954819Y-156825833D02*
X109954819Y-156921071D01*
X109954819Y-156921071D02*
X109907200Y-157063928D01*
X109907200Y-157063928D02*
X109811961Y-157159166D01*
X109811961Y-157159166D02*
X109716723Y-157206785D01*
X109716723Y-157206785D02*
X109526247Y-157254404D01*
X109526247Y-157254404D02*
X109383390Y-157254404D01*
X109383390Y-157254404D02*
X109192914Y-157206785D01*
X109192914Y-157206785D02*
X109097676Y-157159166D01*
X109097676Y-157159166D02*
X109002438Y-157063928D01*
X109002438Y-157063928D02*
X108954819Y-156921071D01*
X108954819Y-156921071D02*
X108954819Y-156825833D01*
X108954819Y-156825833D02*
X109002438Y-156682976D01*
X109002438Y-156682976D02*
X109050057Y-156635357D01*
X109954819Y-155682976D02*
X109954819Y-156254404D01*
X109954819Y-155968690D02*
X108954819Y-155968690D01*
X108954819Y-155968690D02*
X109097676Y-156063928D01*
X109097676Y-156063928D02*
X109192914Y-156159166D01*
X109192914Y-156159166D02*
X109240533Y-156254404D01*
X109954819Y-154730595D02*
X109954819Y-155302023D01*
X109954819Y-155016309D02*
X108954819Y-155016309D01*
X108954819Y-155016309D02*
X109097676Y-155111547D01*
X109097676Y-155111547D02*
X109192914Y-155206785D01*
X109192914Y-155206785D02*
X109240533Y-155302023D01*
X108367833Y-158704819D02*
X107891643Y-158704819D01*
X107891643Y-158704819D02*
X107891643Y-157704819D01*
X108605929Y-157704819D02*
X109224976Y-157704819D01*
X109224976Y-157704819D02*
X108891643Y-158085771D01*
X108891643Y-158085771D02*
X109034500Y-158085771D01*
X109034500Y-158085771D02*
X109129738Y-158133390D01*
X109129738Y-158133390D02*
X109177357Y-158181009D01*
X109177357Y-158181009D02*
X109224976Y-158276247D01*
X109224976Y-158276247D02*
X109224976Y-158514342D01*
X109224976Y-158514342D02*
X109177357Y-158609580D01*
X109177357Y-158609580D02*
X109129738Y-158657200D01*
X109129738Y-158657200D02*
X109034500Y-158704819D01*
X109034500Y-158704819D02*
X108748786Y-158704819D01*
X108748786Y-158704819D02*
X108653548Y-158657200D01*
X108653548Y-158657200D02*
X108605929Y-158609580D01*
X105959580Y-156159166D02*
X106007200Y-156206785D01*
X106007200Y-156206785D02*
X106054819Y-156349642D01*
X106054819Y-156349642D02*
X106054819Y-156444880D01*
X106054819Y-156444880D02*
X106007200Y-156587737D01*
X106007200Y-156587737D02*
X105911961Y-156682975D01*
X105911961Y-156682975D02*
X105816723Y-156730594D01*
X105816723Y-156730594D02*
X105626247Y-156778213D01*
X105626247Y-156778213D02*
X105483390Y-156778213D01*
X105483390Y-156778213D02*
X105292914Y-156730594D01*
X105292914Y-156730594D02*
X105197676Y-156682975D01*
X105197676Y-156682975D02*
X105102438Y-156587737D01*
X105102438Y-156587737D02*
X105054819Y-156444880D01*
X105054819Y-156444880D02*
X105054819Y-156349642D01*
X105054819Y-156349642D02*
X105102438Y-156206785D01*
X105102438Y-156206785D02*
X105150057Y-156159166D01*
X105054819Y-155825832D02*
X105054819Y-155206785D01*
X105054819Y-155206785D02*
X105435771Y-155540118D01*
X105435771Y-155540118D02*
X105435771Y-155397261D01*
X105435771Y-155397261D02*
X105483390Y-155302023D01*
X105483390Y-155302023D02*
X105531009Y-155254404D01*
X105531009Y-155254404D02*
X105626247Y-155206785D01*
X105626247Y-155206785D02*
X105864342Y-155206785D01*
X105864342Y-155206785D02*
X105959580Y-155254404D01*
X105959580Y-155254404D02*
X106007200Y-155302023D01*
X106007200Y-155302023D02*
X106054819Y-155397261D01*
X106054819Y-155397261D02*
X106054819Y-155682975D01*
X106054819Y-155682975D02*
X106007200Y-155778213D01*
X106007200Y-155778213D02*
X105959580Y-155825832D01*
X107767580Y-153912166D02*
X107815200Y-153959785D01*
X107815200Y-153959785D02*
X107862819Y-154102642D01*
X107862819Y-154102642D02*
X107862819Y-154197880D01*
X107862819Y-154197880D02*
X107815200Y-154340737D01*
X107815200Y-154340737D02*
X107719961Y-154435975D01*
X107719961Y-154435975D02*
X107624723Y-154483594D01*
X107624723Y-154483594D02*
X107434247Y-154531213D01*
X107434247Y-154531213D02*
X107291390Y-154531213D01*
X107291390Y-154531213D02*
X107100914Y-154483594D01*
X107100914Y-154483594D02*
X107005676Y-154435975D01*
X107005676Y-154435975D02*
X106910438Y-154340737D01*
X106910438Y-154340737D02*
X106862819Y-154197880D01*
X106862819Y-154197880D02*
X106862819Y-154102642D01*
X106862819Y-154102642D02*
X106910438Y-153959785D01*
X106910438Y-153959785D02*
X106958057Y-153912166D01*
X107862819Y-152959785D02*
X107862819Y-153531213D01*
X107862819Y-153245499D02*
X106862819Y-153245499D01*
X106862819Y-153245499D02*
X107005676Y-153340737D01*
X107005676Y-153340737D02*
X107100914Y-153435975D01*
X107100914Y-153435975D02*
X107148533Y-153531213D01*
X108367833Y-162570580D02*
X108320214Y-162618200D01*
X108320214Y-162618200D02*
X108177357Y-162665819D01*
X108177357Y-162665819D02*
X108082119Y-162665819D01*
X108082119Y-162665819D02*
X107939262Y-162618200D01*
X107939262Y-162618200D02*
X107844024Y-162522961D01*
X107844024Y-162522961D02*
X107796405Y-162427723D01*
X107796405Y-162427723D02*
X107748786Y-162237247D01*
X107748786Y-162237247D02*
X107748786Y-162094390D01*
X107748786Y-162094390D02*
X107796405Y-161903914D01*
X107796405Y-161903914D02*
X107844024Y-161808676D01*
X107844024Y-161808676D02*
X107939262Y-161713438D01*
X107939262Y-161713438D02*
X108082119Y-161665819D01*
X108082119Y-161665819D02*
X108177357Y-161665819D01*
X108177357Y-161665819D02*
X108320214Y-161713438D01*
X108320214Y-161713438D02*
X108367833Y-161761057D01*
X109224976Y-161999152D02*
X109224976Y-162665819D01*
X108986881Y-161618200D02*
X108748786Y-162332485D01*
X108748786Y-162332485D02*
X109367833Y-162332485D01*
X96960642Y-170937580D02*
X96913023Y-170985200D01*
X96913023Y-170985200D02*
X96770166Y-171032819D01*
X96770166Y-171032819D02*
X96674928Y-171032819D01*
X96674928Y-171032819D02*
X96532071Y-170985200D01*
X96532071Y-170985200D02*
X96436833Y-170889961D01*
X96436833Y-170889961D02*
X96389214Y-170794723D01*
X96389214Y-170794723D02*
X96341595Y-170604247D01*
X96341595Y-170604247D02*
X96341595Y-170461390D01*
X96341595Y-170461390D02*
X96389214Y-170270914D01*
X96389214Y-170270914D02*
X96436833Y-170175676D01*
X96436833Y-170175676D02*
X96532071Y-170080438D01*
X96532071Y-170080438D02*
X96674928Y-170032819D01*
X96674928Y-170032819D02*
X96770166Y-170032819D01*
X96770166Y-170032819D02*
X96913023Y-170080438D01*
X96913023Y-170080438D02*
X96960642Y-170128057D01*
X97341595Y-170128057D02*
X97389214Y-170080438D01*
X97389214Y-170080438D02*
X97484452Y-170032819D01*
X97484452Y-170032819D02*
X97722547Y-170032819D01*
X97722547Y-170032819D02*
X97817785Y-170080438D01*
X97817785Y-170080438D02*
X97865404Y-170128057D01*
X97865404Y-170128057D02*
X97913023Y-170223295D01*
X97913023Y-170223295D02*
X97913023Y-170318533D01*
X97913023Y-170318533D02*
X97865404Y-170461390D01*
X97865404Y-170461390D02*
X97293976Y-171032819D01*
X97293976Y-171032819D02*
X97913023Y-171032819D01*
X98770166Y-170366152D02*
X98770166Y-171032819D01*
X98532071Y-169985200D02*
X98293976Y-170699485D01*
X98293976Y-170699485D02*
X98913023Y-170699485D01*
X108367833Y-164259580D02*
X108320214Y-164307200D01*
X108320214Y-164307200D02*
X108177357Y-164354819D01*
X108177357Y-164354819D02*
X108082119Y-164354819D01*
X108082119Y-164354819D02*
X107939262Y-164307200D01*
X107939262Y-164307200D02*
X107844024Y-164211961D01*
X107844024Y-164211961D02*
X107796405Y-164116723D01*
X107796405Y-164116723D02*
X107748786Y-163926247D01*
X107748786Y-163926247D02*
X107748786Y-163783390D01*
X107748786Y-163783390D02*
X107796405Y-163592914D01*
X107796405Y-163592914D02*
X107844024Y-163497676D01*
X107844024Y-163497676D02*
X107939262Y-163402438D01*
X107939262Y-163402438D02*
X108082119Y-163354819D01*
X108082119Y-163354819D02*
X108177357Y-163354819D01*
X108177357Y-163354819D02*
X108320214Y-163402438D01*
X108320214Y-163402438D02*
X108367833Y-163450057D01*
X109272595Y-163354819D02*
X108796405Y-163354819D01*
X108796405Y-163354819D02*
X108748786Y-163831009D01*
X108748786Y-163831009D02*
X108796405Y-163783390D01*
X108796405Y-163783390D02*
X108891643Y-163735771D01*
X108891643Y-163735771D02*
X109129738Y-163735771D01*
X109129738Y-163735771D02*
X109224976Y-163783390D01*
X109224976Y-163783390D02*
X109272595Y-163831009D01*
X109272595Y-163831009D02*
X109320214Y-163926247D01*
X109320214Y-163926247D02*
X109320214Y-164164342D01*
X109320214Y-164164342D02*
X109272595Y-164259580D01*
X109272595Y-164259580D02*
X109224976Y-164307200D01*
X109224976Y-164307200D02*
X109129738Y-164354819D01*
X109129738Y-164354819D02*
X108891643Y-164354819D01*
X108891643Y-164354819D02*
X108796405Y-164307200D01*
X108796405Y-164307200D02*
X108748786Y-164259580D01*
X96960642Y-177795580D02*
X96913023Y-177843200D01*
X96913023Y-177843200D02*
X96770166Y-177890819D01*
X96770166Y-177890819D02*
X96674928Y-177890819D01*
X96674928Y-177890819D02*
X96532071Y-177843200D01*
X96532071Y-177843200D02*
X96436833Y-177747961D01*
X96436833Y-177747961D02*
X96389214Y-177652723D01*
X96389214Y-177652723D02*
X96341595Y-177462247D01*
X96341595Y-177462247D02*
X96341595Y-177319390D01*
X96341595Y-177319390D02*
X96389214Y-177128914D01*
X96389214Y-177128914D02*
X96436833Y-177033676D01*
X96436833Y-177033676D02*
X96532071Y-176938438D01*
X96532071Y-176938438D02*
X96674928Y-176890819D01*
X96674928Y-176890819D02*
X96770166Y-176890819D01*
X96770166Y-176890819D02*
X96913023Y-176938438D01*
X96913023Y-176938438D02*
X96960642Y-176986057D01*
X97913023Y-177890819D02*
X97341595Y-177890819D01*
X97627309Y-177890819D02*
X97627309Y-176890819D01*
X97627309Y-176890819D02*
X97532071Y-177033676D01*
X97532071Y-177033676D02*
X97436833Y-177128914D01*
X97436833Y-177128914D02*
X97341595Y-177176533D01*
X98246357Y-176890819D02*
X98913023Y-176890819D01*
X98913023Y-176890819D02*
X98484452Y-177890819D01*
X93449642Y-160248580D02*
X93402023Y-160296200D01*
X93402023Y-160296200D02*
X93259166Y-160343819D01*
X93259166Y-160343819D02*
X93163928Y-160343819D01*
X93163928Y-160343819D02*
X93021071Y-160296200D01*
X93021071Y-160296200D02*
X92925833Y-160200961D01*
X92925833Y-160200961D02*
X92878214Y-160105723D01*
X92878214Y-160105723D02*
X92830595Y-159915247D01*
X92830595Y-159915247D02*
X92830595Y-159772390D01*
X92830595Y-159772390D02*
X92878214Y-159581914D01*
X92878214Y-159581914D02*
X92925833Y-159486676D01*
X92925833Y-159486676D02*
X93021071Y-159391438D01*
X93021071Y-159391438D02*
X93163928Y-159343819D01*
X93163928Y-159343819D02*
X93259166Y-159343819D01*
X93259166Y-159343819D02*
X93402023Y-159391438D01*
X93402023Y-159391438D02*
X93449642Y-159439057D01*
X93830595Y-159439057D02*
X93878214Y-159391438D01*
X93878214Y-159391438D02*
X93973452Y-159343819D01*
X93973452Y-159343819D02*
X94211547Y-159343819D01*
X94211547Y-159343819D02*
X94306785Y-159391438D01*
X94306785Y-159391438D02*
X94354404Y-159439057D01*
X94354404Y-159439057D02*
X94402023Y-159534295D01*
X94402023Y-159534295D02*
X94402023Y-159629533D01*
X94402023Y-159629533D02*
X94354404Y-159772390D01*
X94354404Y-159772390D02*
X93782976Y-160343819D01*
X93782976Y-160343819D02*
X94402023Y-160343819D01*
X95306785Y-159343819D02*
X94830595Y-159343819D01*
X94830595Y-159343819D02*
X94782976Y-159820009D01*
X94782976Y-159820009D02*
X94830595Y-159772390D01*
X94830595Y-159772390D02*
X94925833Y-159724771D01*
X94925833Y-159724771D02*
X95163928Y-159724771D01*
X95163928Y-159724771D02*
X95259166Y-159772390D01*
X95259166Y-159772390D02*
X95306785Y-159820009D01*
X95306785Y-159820009D02*
X95354404Y-159915247D01*
X95354404Y-159915247D02*
X95354404Y-160153342D01*
X95354404Y-160153342D02*
X95306785Y-160248580D01*
X95306785Y-160248580D02*
X95259166Y-160296200D01*
X95259166Y-160296200D02*
X95163928Y-160343819D01*
X95163928Y-160343819D02*
X94925833Y-160343819D01*
X94925833Y-160343819D02*
X94830595Y-160296200D01*
X94830595Y-160296200D02*
X94782976Y-160248580D01*
X104749580Y-156635357D02*
X104797200Y-156682976D01*
X104797200Y-156682976D02*
X104844819Y-156825833D01*
X104844819Y-156825833D02*
X104844819Y-156921071D01*
X104844819Y-156921071D02*
X104797200Y-157063928D01*
X104797200Y-157063928D02*
X104701961Y-157159166D01*
X104701961Y-157159166D02*
X104606723Y-157206785D01*
X104606723Y-157206785D02*
X104416247Y-157254404D01*
X104416247Y-157254404D02*
X104273390Y-157254404D01*
X104273390Y-157254404D02*
X104082914Y-157206785D01*
X104082914Y-157206785D02*
X103987676Y-157159166D01*
X103987676Y-157159166D02*
X103892438Y-157063928D01*
X103892438Y-157063928D02*
X103844819Y-156921071D01*
X103844819Y-156921071D02*
X103844819Y-156825833D01*
X103844819Y-156825833D02*
X103892438Y-156682976D01*
X103892438Y-156682976D02*
X103940057Y-156635357D01*
X104844819Y-155682976D02*
X104844819Y-156254404D01*
X104844819Y-155968690D02*
X103844819Y-155968690D01*
X103844819Y-155968690D02*
X103987676Y-156063928D01*
X103987676Y-156063928D02*
X104082914Y-156159166D01*
X104082914Y-156159166D02*
X104130533Y-156254404D01*
X103844819Y-155063928D02*
X103844819Y-154968690D01*
X103844819Y-154968690D02*
X103892438Y-154873452D01*
X103892438Y-154873452D02*
X103940057Y-154825833D01*
X103940057Y-154825833D02*
X104035295Y-154778214D01*
X104035295Y-154778214D02*
X104225771Y-154730595D01*
X104225771Y-154730595D02*
X104463866Y-154730595D01*
X104463866Y-154730595D02*
X104654342Y-154778214D01*
X104654342Y-154778214D02*
X104749580Y-154825833D01*
X104749580Y-154825833D02*
X104797200Y-154873452D01*
X104797200Y-154873452D02*
X104844819Y-154968690D01*
X104844819Y-154968690D02*
X104844819Y-155063928D01*
X104844819Y-155063928D02*
X104797200Y-155159166D01*
X104797200Y-155159166D02*
X104749580Y-155206785D01*
X104749580Y-155206785D02*
X104654342Y-155254404D01*
X104654342Y-155254404D02*
X104463866Y-155302023D01*
X104463866Y-155302023D02*
X104225771Y-155302023D01*
X104225771Y-155302023D02*
X104035295Y-155254404D01*
X104035295Y-155254404D02*
X103940057Y-155206785D01*
X103940057Y-155206785D02*
X103892438Y-155159166D01*
X103892438Y-155159166D02*
X103844819Y-155063928D01*
X111866666Y-165534819D02*
X111866666Y-166249104D01*
X111866666Y-166249104D02*
X111819047Y-166391961D01*
X111819047Y-166391961D02*
X111723809Y-166487200D01*
X111723809Y-166487200D02*
X111580952Y-166534819D01*
X111580952Y-166534819D02*
X111485714Y-166534819D01*
X112819047Y-165534819D02*
X112342857Y-165534819D01*
X112342857Y-165534819D02*
X112295238Y-166011009D01*
X112295238Y-166011009D02*
X112342857Y-165963390D01*
X112342857Y-165963390D02*
X112438095Y-165915771D01*
X112438095Y-165915771D02*
X112676190Y-165915771D01*
X112676190Y-165915771D02*
X112771428Y-165963390D01*
X112771428Y-165963390D02*
X112819047Y-166011009D01*
X112819047Y-166011009D02*
X112866666Y-166106247D01*
X112866666Y-166106247D02*
X112866666Y-166344342D01*
X112866666Y-166344342D02*
X112819047Y-166439580D01*
X112819047Y-166439580D02*
X112771428Y-166487200D01*
X112771428Y-166487200D02*
X112676190Y-166534819D01*
X112676190Y-166534819D02*
X112438095Y-166534819D01*
X112438095Y-166534819D02*
X112342857Y-166487200D01*
X112342857Y-166487200D02*
X112295238Y-166439580D01*
X88435642Y-168160580D02*
X88388023Y-168208200D01*
X88388023Y-168208200D02*
X88245166Y-168255819D01*
X88245166Y-168255819D02*
X88149928Y-168255819D01*
X88149928Y-168255819D02*
X88007071Y-168208200D01*
X88007071Y-168208200D02*
X87911833Y-168112961D01*
X87911833Y-168112961D02*
X87864214Y-168017723D01*
X87864214Y-168017723D02*
X87816595Y-167827247D01*
X87816595Y-167827247D02*
X87816595Y-167684390D01*
X87816595Y-167684390D02*
X87864214Y-167493914D01*
X87864214Y-167493914D02*
X87911833Y-167398676D01*
X87911833Y-167398676D02*
X88007071Y-167303438D01*
X88007071Y-167303438D02*
X88149928Y-167255819D01*
X88149928Y-167255819D02*
X88245166Y-167255819D01*
X88245166Y-167255819D02*
X88388023Y-167303438D01*
X88388023Y-167303438D02*
X88435642Y-167351057D01*
X88768976Y-167255819D02*
X89388023Y-167255819D01*
X89388023Y-167255819D02*
X89054690Y-167636771D01*
X89054690Y-167636771D02*
X89197547Y-167636771D01*
X89197547Y-167636771D02*
X89292785Y-167684390D01*
X89292785Y-167684390D02*
X89340404Y-167732009D01*
X89340404Y-167732009D02*
X89388023Y-167827247D01*
X89388023Y-167827247D02*
X89388023Y-168065342D01*
X89388023Y-168065342D02*
X89340404Y-168160580D01*
X89340404Y-168160580D02*
X89292785Y-168208200D01*
X89292785Y-168208200D02*
X89197547Y-168255819D01*
X89197547Y-168255819D02*
X88911833Y-168255819D01*
X88911833Y-168255819D02*
X88816595Y-168208200D01*
X88816595Y-168208200D02*
X88768976Y-168160580D01*
X89768976Y-167351057D02*
X89816595Y-167303438D01*
X89816595Y-167303438D02*
X89911833Y-167255819D01*
X89911833Y-167255819D02*
X90149928Y-167255819D01*
X90149928Y-167255819D02*
X90245166Y-167303438D01*
X90245166Y-167303438D02*
X90292785Y-167351057D01*
X90292785Y-167351057D02*
X90340404Y-167446295D01*
X90340404Y-167446295D02*
X90340404Y-167541533D01*
X90340404Y-167541533D02*
X90292785Y-167684390D01*
X90292785Y-167684390D02*
X89721357Y-168255819D01*
X89721357Y-168255819D02*
X90340404Y-168255819D01*
X106759580Y-151375357D02*
X106807200Y-151422976D01*
X106807200Y-151422976D02*
X106854819Y-151565833D01*
X106854819Y-151565833D02*
X106854819Y-151661071D01*
X106854819Y-151661071D02*
X106807200Y-151803928D01*
X106807200Y-151803928D02*
X106711961Y-151899166D01*
X106711961Y-151899166D02*
X106616723Y-151946785D01*
X106616723Y-151946785D02*
X106426247Y-151994404D01*
X106426247Y-151994404D02*
X106283390Y-151994404D01*
X106283390Y-151994404D02*
X106092914Y-151946785D01*
X106092914Y-151946785D02*
X105997676Y-151899166D01*
X105997676Y-151899166D02*
X105902438Y-151803928D01*
X105902438Y-151803928D02*
X105854819Y-151661071D01*
X105854819Y-151661071D02*
X105854819Y-151565833D01*
X105854819Y-151565833D02*
X105902438Y-151422976D01*
X105902438Y-151422976D02*
X105950057Y-151375357D01*
X105950057Y-150994404D02*
X105902438Y-150946785D01*
X105902438Y-150946785D02*
X105854819Y-150851547D01*
X105854819Y-150851547D02*
X105854819Y-150613452D01*
X105854819Y-150613452D02*
X105902438Y-150518214D01*
X105902438Y-150518214D02*
X105950057Y-150470595D01*
X105950057Y-150470595D02*
X106045295Y-150422976D01*
X106045295Y-150422976D02*
X106140533Y-150422976D01*
X106140533Y-150422976D02*
X106283390Y-150470595D01*
X106283390Y-150470595D02*
X106854819Y-151042023D01*
X106854819Y-151042023D02*
X106854819Y-150422976D01*
X106283390Y-149851547D02*
X106235771Y-149946785D01*
X106235771Y-149946785D02*
X106188152Y-149994404D01*
X106188152Y-149994404D02*
X106092914Y-150042023D01*
X106092914Y-150042023D02*
X106045295Y-150042023D01*
X106045295Y-150042023D02*
X105950057Y-149994404D01*
X105950057Y-149994404D02*
X105902438Y-149946785D01*
X105902438Y-149946785D02*
X105854819Y-149851547D01*
X105854819Y-149851547D02*
X105854819Y-149661071D01*
X105854819Y-149661071D02*
X105902438Y-149565833D01*
X105902438Y-149565833D02*
X105950057Y-149518214D01*
X105950057Y-149518214D02*
X106045295Y-149470595D01*
X106045295Y-149470595D02*
X106092914Y-149470595D01*
X106092914Y-149470595D02*
X106188152Y-149518214D01*
X106188152Y-149518214D02*
X106235771Y-149565833D01*
X106235771Y-149565833D02*
X106283390Y-149661071D01*
X106283390Y-149661071D02*
X106283390Y-149851547D01*
X106283390Y-149851547D02*
X106331009Y-149946785D01*
X106331009Y-149946785D02*
X106378628Y-149994404D01*
X106378628Y-149994404D02*
X106473866Y-150042023D01*
X106473866Y-150042023D02*
X106664342Y-150042023D01*
X106664342Y-150042023D02*
X106759580Y-149994404D01*
X106759580Y-149994404D02*
X106807200Y-149946785D01*
X106807200Y-149946785D02*
X106854819Y-149851547D01*
X106854819Y-149851547D02*
X106854819Y-149661071D01*
X106854819Y-149661071D02*
X106807200Y-149565833D01*
X106807200Y-149565833D02*
X106759580Y-149518214D01*
X106759580Y-149518214D02*
X106664342Y-149470595D01*
X106664342Y-149470595D02*
X106473866Y-149470595D01*
X106473866Y-149470595D02*
X106378628Y-149518214D01*
X106378628Y-149518214D02*
X106331009Y-149565833D01*
X106331009Y-149565833D02*
X106283390Y-149661071D01*
X93449642Y-161459580D02*
X93402023Y-161507200D01*
X93402023Y-161507200D02*
X93259166Y-161554819D01*
X93259166Y-161554819D02*
X93163928Y-161554819D01*
X93163928Y-161554819D02*
X93021071Y-161507200D01*
X93021071Y-161507200D02*
X92925833Y-161411961D01*
X92925833Y-161411961D02*
X92878214Y-161316723D01*
X92878214Y-161316723D02*
X92830595Y-161126247D01*
X92830595Y-161126247D02*
X92830595Y-160983390D01*
X92830595Y-160983390D02*
X92878214Y-160792914D01*
X92878214Y-160792914D02*
X92925833Y-160697676D01*
X92925833Y-160697676D02*
X93021071Y-160602438D01*
X93021071Y-160602438D02*
X93163928Y-160554819D01*
X93163928Y-160554819D02*
X93259166Y-160554819D01*
X93259166Y-160554819D02*
X93402023Y-160602438D01*
X93402023Y-160602438D02*
X93449642Y-160650057D01*
X94402023Y-161554819D02*
X93830595Y-161554819D01*
X94116309Y-161554819D02*
X94116309Y-160554819D01*
X94116309Y-160554819D02*
X94021071Y-160697676D01*
X94021071Y-160697676D02*
X93925833Y-160792914D01*
X93925833Y-160792914D02*
X93830595Y-160840533D01*
X94878214Y-161554819D02*
X95068690Y-161554819D01*
X95068690Y-161554819D02*
X95163928Y-161507200D01*
X95163928Y-161507200D02*
X95211547Y-161459580D01*
X95211547Y-161459580D02*
X95306785Y-161316723D01*
X95306785Y-161316723D02*
X95354404Y-161126247D01*
X95354404Y-161126247D02*
X95354404Y-160745295D01*
X95354404Y-160745295D02*
X95306785Y-160650057D01*
X95306785Y-160650057D02*
X95259166Y-160602438D01*
X95259166Y-160602438D02*
X95163928Y-160554819D01*
X95163928Y-160554819D02*
X94973452Y-160554819D01*
X94973452Y-160554819D02*
X94878214Y-160602438D01*
X94878214Y-160602438D02*
X94830595Y-160650057D01*
X94830595Y-160650057D02*
X94782976Y-160745295D01*
X94782976Y-160745295D02*
X94782976Y-160983390D01*
X94782976Y-160983390D02*
X94830595Y-161078628D01*
X94830595Y-161078628D02*
X94878214Y-161126247D01*
X94878214Y-161126247D02*
X94973452Y-161173866D01*
X94973452Y-161173866D02*
X95163928Y-161173866D01*
X95163928Y-161173866D02*
X95259166Y-161126247D01*
X95259166Y-161126247D02*
X95306785Y-161078628D01*
X95306785Y-161078628D02*
X95354404Y-160983390D01*
X93449642Y-161137580D02*
X93402023Y-161185200D01*
X93402023Y-161185200D02*
X93259166Y-161232819D01*
X93259166Y-161232819D02*
X93163928Y-161232819D01*
X93163928Y-161232819D02*
X93021071Y-161185200D01*
X93021071Y-161185200D02*
X92925833Y-161089961D01*
X92925833Y-161089961D02*
X92878214Y-160994723D01*
X92878214Y-160994723D02*
X92830595Y-160804247D01*
X92830595Y-160804247D02*
X92830595Y-160661390D01*
X92830595Y-160661390D02*
X92878214Y-160470914D01*
X92878214Y-160470914D02*
X92925833Y-160375676D01*
X92925833Y-160375676D02*
X93021071Y-160280438D01*
X93021071Y-160280438D02*
X93163928Y-160232819D01*
X93163928Y-160232819D02*
X93259166Y-160232819D01*
X93259166Y-160232819D02*
X93402023Y-160280438D01*
X93402023Y-160280438D02*
X93449642Y-160328057D01*
X93830595Y-160328057D02*
X93878214Y-160280438D01*
X93878214Y-160280438D02*
X93973452Y-160232819D01*
X93973452Y-160232819D02*
X94211547Y-160232819D01*
X94211547Y-160232819D02*
X94306785Y-160280438D01*
X94306785Y-160280438D02*
X94354404Y-160328057D01*
X94354404Y-160328057D02*
X94402023Y-160423295D01*
X94402023Y-160423295D02*
X94402023Y-160518533D01*
X94402023Y-160518533D02*
X94354404Y-160661390D01*
X94354404Y-160661390D02*
X93782976Y-161232819D01*
X93782976Y-161232819D02*
X94402023Y-161232819D01*
X95259166Y-160232819D02*
X95068690Y-160232819D01*
X95068690Y-160232819D02*
X94973452Y-160280438D01*
X94973452Y-160280438D02*
X94925833Y-160328057D01*
X94925833Y-160328057D02*
X94830595Y-160470914D01*
X94830595Y-160470914D02*
X94782976Y-160661390D01*
X94782976Y-160661390D02*
X94782976Y-161042342D01*
X94782976Y-161042342D02*
X94830595Y-161137580D01*
X94830595Y-161137580D02*
X94878214Y-161185200D01*
X94878214Y-161185200D02*
X94973452Y-161232819D01*
X94973452Y-161232819D02*
X95163928Y-161232819D01*
X95163928Y-161232819D02*
X95259166Y-161185200D01*
X95259166Y-161185200D02*
X95306785Y-161137580D01*
X95306785Y-161137580D02*
X95354404Y-161042342D01*
X95354404Y-161042342D02*
X95354404Y-160804247D01*
X95354404Y-160804247D02*
X95306785Y-160709009D01*
X95306785Y-160709009D02*
X95259166Y-160661390D01*
X95259166Y-160661390D02*
X95163928Y-160613771D01*
X95163928Y-160613771D02*
X94973452Y-160613771D01*
X94973452Y-160613771D02*
X94878214Y-160661390D01*
X94878214Y-160661390D02*
X94830595Y-160709009D01*
X94830595Y-160709009D02*
X94782976Y-160804247D01*
X118866666Y-180334819D02*
X118866666Y-181049104D01*
X118866666Y-181049104D02*
X118819047Y-181191961D01*
X118819047Y-181191961D02*
X118723809Y-181287200D01*
X118723809Y-181287200D02*
X118580952Y-181334819D01*
X118580952Y-181334819D02*
X118485714Y-181334819D01*
X119295238Y-180430057D02*
X119342857Y-180382438D01*
X119342857Y-180382438D02*
X119438095Y-180334819D01*
X119438095Y-180334819D02*
X119676190Y-180334819D01*
X119676190Y-180334819D02*
X119771428Y-180382438D01*
X119771428Y-180382438D02*
X119819047Y-180430057D01*
X119819047Y-180430057D02*
X119866666Y-180525295D01*
X119866666Y-180525295D02*
X119866666Y-180620533D01*
X119866666Y-180620533D02*
X119819047Y-180763390D01*
X119819047Y-180763390D02*
X119247619Y-181334819D01*
X119247619Y-181334819D02*
X119866666Y-181334819D01*
X87503095Y-169634819D02*
X87503095Y-170444342D01*
X87503095Y-170444342D02*
X87550714Y-170539580D01*
X87550714Y-170539580D02*
X87598333Y-170587200D01*
X87598333Y-170587200D02*
X87693571Y-170634819D01*
X87693571Y-170634819D02*
X87884047Y-170634819D01*
X87884047Y-170634819D02*
X87979285Y-170587200D01*
X87979285Y-170587200D02*
X88026904Y-170539580D01*
X88026904Y-170539580D02*
X88074523Y-170444342D01*
X88074523Y-170444342D02*
X88074523Y-169634819D01*
X88979285Y-169968152D02*
X88979285Y-170634819D01*
X88741190Y-169587200D02*
X88503095Y-170301485D01*
X88503095Y-170301485D02*
X89122142Y-170301485D01*
X85183701Y-168384504D02*
X85183701Y-168622599D01*
X84945606Y-168527361D02*
X85183701Y-168622599D01*
X85183701Y-168622599D02*
X85421796Y-168527361D01*
X85040844Y-168813075D02*
X85183701Y-168622599D01*
X85183701Y-168622599D02*
X85326558Y-168813075D01*
X85183701Y-168384504D02*
X85183701Y-168622599D01*
X84945606Y-168527361D02*
X85183701Y-168622599D01*
X85183701Y-168622599D02*
X85421796Y-168527361D01*
X85040844Y-168813075D02*
X85183701Y-168622599D01*
X85183701Y-168622599D02*
X85326558Y-168813075D01*
X102994833Y-152192819D02*
X102661500Y-151716628D01*
X102423405Y-152192819D02*
X102423405Y-151192819D01*
X102423405Y-151192819D02*
X102804357Y-151192819D01*
X102804357Y-151192819D02*
X102899595Y-151240438D01*
X102899595Y-151240438D02*
X102947214Y-151288057D01*
X102947214Y-151288057D02*
X102994833Y-151383295D01*
X102994833Y-151383295D02*
X102994833Y-151526152D01*
X102994833Y-151526152D02*
X102947214Y-151621390D01*
X102947214Y-151621390D02*
X102899595Y-151669009D01*
X102899595Y-151669009D02*
X102804357Y-151716628D01*
X102804357Y-151716628D02*
X102423405Y-151716628D01*
X103899595Y-151192819D02*
X103423405Y-151192819D01*
X103423405Y-151192819D02*
X103375786Y-151669009D01*
X103375786Y-151669009D02*
X103423405Y-151621390D01*
X103423405Y-151621390D02*
X103518643Y-151573771D01*
X103518643Y-151573771D02*
X103756738Y-151573771D01*
X103756738Y-151573771D02*
X103851976Y-151621390D01*
X103851976Y-151621390D02*
X103899595Y-151669009D01*
X103899595Y-151669009D02*
X103947214Y-151764247D01*
X103947214Y-151764247D02*
X103947214Y-152002342D01*
X103947214Y-152002342D02*
X103899595Y-152097580D01*
X103899595Y-152097580D02*
X103851976Y-152145200D01*
X103851976Y-152145200D02*
X103756738Y-152192819D01*
X103756738Y-152192819D02*
X103518643Y-152192819D01*
X103518643Y-152192819D02*
X103423405Y-152145200D01*
X103423405Y-152145200D02*
X103375786Y-152097580D01*
X96960642Y-172046580D02*
X96913023Y-172094200D01*
X96913023Y-172094200D02*
X96770166Y-172141819D01*
X96770166Y-172141819D02*
X96674928Y-172141819D01*
X96674928Y-172141819D02*
X96532071Y-172094200D01*
X96532071Y-172094200D02*
X96436833Y-171998961D01*
X96436833Y-171998961D02*
X96389214Y-171903723D01*
X96389214Y-171903723D02*
X96341595Y-171713247D01*
X96341595Y-171713247D02*
X96341595Y-171570390D01*
X96341595Y-171570390D02*
X96389214Y-171379914D01*
X96389214Y-171379914D02*
X96436833Y-171284676D01*
X96436833Y-171284676D02*
X96532071Y-171189438D01*
X96532071Y-171189438D02*
X96674928Y-171141819D01*
X96674928Y-171141819D02*
X96770166Y-171141819D01*
X96770166Y-171141819D02*
X96913023Y-171189438D01*
X96913023Y-171189438D02*
X96960642Y-171237057D01*
X97341595Y-171237057D02*
X97389214Y-171189438D01*
X97389214Y-171189438D02*
X97484452Y-171141819D01*
X97484452Y-171141819D02*
X97722547Y-171141819D01*
X97722547Y-171141819D02*
X97817785Y-171189438D01*
X97817785Y-171189438D02*
X97865404Y-171237057D01*
X97865404Y-171237057D02*
X97913023Y-171332295D01*
X97913023Y-171332295D02*
X97913023Y-171427533D01*
X97913023Y-171427533D02*
X97865404Y-171570390D01*
X97865404Y-171570390D02*
X97293976Y-172141819D01*
X97293976Y-172141819D02*
X97913023Y-172141819D01*
X98865404Y-172141819D02*
X98293976Y-172141819D01*
X98579690Y-172141819D02*
X98579690Y-171141819D01*
X98579690Y-171141819D02*
X98484452Y-171284676D01*
X98484452Y-171284676D02*
X98389214Y-171379914D01*
X98389214Y-171379914D02*
X98293976Y-171427533D01*
X102994833Y-151049819D02*
X102661500Y-150573628D01*
X102423405Y-151049819D02*
X102423405Y-150049819D01*
X102423405Y-150049819D02*
X102804357Y-150049819D01*
X102804357Y-150049819D02*
X102899595Y-150097438D01*
X102899595Y-150097438D02*
X102947214Y-150145057D01*
X102947214Y-150145057D02*
X102994833Y-150240295D01*
X102994833Y-150240295D02*
X102994833Y-150383152D01*
X102994833Y-150383152D02*
X102947214Y-150478390D01*
X102947214Y-150478390D02*
X102899595Y-150526009D01*
X102899595Y-150526009D02*
X102804357Y-150573628D01*
X102804357Y-150573628D02*
X102423405Y-150573628D01*
X103328167Y-150049819D02*
X103947214Y-150049819D01*
X103947214Y-150049819D02*
X103613881Y-150430771D01*
X103613881Y-150430771D02*
X103756738Y-150430771D01*
X103756738Y-150430771D02*
X103851976Y-150478390D01*
X103851976Y-150478390D02*
X103899595Y-150526009D01*
X103899595Y-150526009D02*
X103947214Y-150621247D01*
X103947214Y-150621247D02*
X103947214Y-150859342D01*
X103947214Y-150859342D02*
X103899595Y-150954580D01*
X103899595Y-150954580D02*
X103851976Y-151002200D01*
X103851976Y-151002200D02*
X103756738Y-151049819D01*
X103756738Y-151049819D02*
X103471024Y-151049819D01*
X103471024Y-151049819D02*
X103375786Y-151002200D01*
X103375786Y-151002200D02*
X103328167Y-150954580D01*
X102759638Y-155192943D02*
X102854876Y-155240562D01*
X102854876Y-155240562D02*
X102950114Y-155335801D01*
X102950114Y-155335801D02*
X103092971Y-155478658D01*
X103092971Y-155478658D02*
X103188209Y-155526277D01*
X103188209Y-155526277D02*
X103283447Y-155526277D01*
X103235828Y-155288181D02*
X103331066Y-155335801D01*
X103331066Y-155335801D02*
X103426304Y-155431039D01*
X103426304Y-155431039D02*
X103473923Y-155621515D01*
X103473923Y-155621515D02*
X103473923Y-155954848D01*
X103473923Y-155954848D02*
X103426304Y-156145324D01*
X103426304Y-156145324D02*
X103331066Y-156240562D01*
X103331066Y-156240562D02*
X103235828Y-156288181D01*
X103235828Y-156288181D02*
X103045352Y-156288181D01*
X103045352Y-156288181D02*
X102950114Y-156240562D01*
X102950114Y-156240562D02*
X102854876Y-156145324D01*
X102854876Y-156145324D02*
X102807257Y-155954848D01*
X102807257Y-155954848D02*
X102807257Y-155621515D01*
X102807257Y-155621515D02*
X102854876Y-155431039D01*
X102854876Y-155431039D02*
X102950114Y-155335801D01*
X102950114Y-155335801D02*
X103045352Y-155288181D01*
X103045352Y-155288181D02*
X103235828Y-155288181D01*
X101854876Y-155288181D02*
X102426304Y-155288181D01*
X102140590Y-155288181D02*
X102140590Y-156288181D01*
X102140590Y-156288181D02*
X102235828Y-156145324D01*
X102235828Y-156145324D02*
X102331066Y-156050086D01*
X102331066Y-156050086D02*
X102426304Y-156002467D01*
X86801833Y-168255819D02*
X86325643Y-168255819D01*
X86325643Y-168255819D02*
X86325643Y-167255819D01*
X87611357Y-167255819D02*
X87135167Y-167255819D01*
X87135167Y-167255819D02*
X87087548Y-167732009D01*
X87087548Y-167732009D02*
X87135167Y-167684390D01*
X87135167Y-167684390D02*
X87230405Y-167636771D01*
X87230405Y-167636771D02*
X87468500Y-167636771D01*
X87468500Y-167636771D02*
X87563738Y-167684390D01*
X87563738Y-167684390D02*
X87611357Y-167732009D01*
X87611357Y-167732009D02*
X87658976Y-167827247D01*
X87658976Y-167827247D02*
X87658976Y-168065342D01*
X87658976Y-168065342D02*
X87611357Y-168160580D01*
X87611357Y-168160580D02*
X87563738Y-168208200D01*
X87563738Y-168208200D02*
X87468500Y-168255819D01*
X87468500Y-168255819D02*
X87230405Y-168255819D01*
X87230405Y-168255819D02*
X87135167Y-168208200D01*
X87135167Y-168208200D02*
X87087548Y-168160580D01*
X108367833Y-165254819D02*
X107891643Y-165254819D01*
X107891643Y-165254819D02*
X107891643Y-164254819D01*
X108653548Y-164350057D02*
X108701167Y-164302438D01*
X108701167Y-164302438D02*
X108796405Y-164254819D01*
X108796405Y-164254819D02*
X109034500Y-164254819D01*
X109034500Y-164254819D02*
X109129738Y-164302438D01*
X109129738Y-164302438D02*
X109177357Y-164350057D01*
X109177357Y-164350057D02*
X109224976Y-164445295D01*
X109224976Y-164445295D02*
X109224976Y-164540533D01*
X109224976Y-164540533D02*
X109177357Y-164683390D01*
X109177357Y-164683390D02*
X108605929Y-165254819D01*
X108605929Y-165254819D02*
X109224976Y-165254819D01*
X90115405Y-176348819D02*
X90115405Y-175348819D01*
X90115405Y-175348819D02*
X90353500Y-175348819D01*
X90353500Y-175348819D02*
X90496357Y-175396438D01*
X90496357Y-175396438D02*
X90591595Y-175491676D01*
X90591595Y-175491676D02*
X90639214Y-175586914D01*
X90639214Y-175586914D02*
X90686833Y-175777390D01*
X90686833Y-175777390D02*
X90686833Y-175920247D01*
X90686833Y-175920247D02*
X90639214Y-176110723D01*
X90639214Y-176110723D02*
X90591595Y-176205961D01*
X90591595Y-176205961D02*
X90496357Y-176301200D01*
X90496357Y-176301200D02*
X90353500Y-176348819D01*
X90353500Y-176348819D02*
X90115405Y-176348819D01*
X91067786Y-175444057D02*
X91115405Y-175396438D01*
X91115405Y-175396438D02*
X91210643Y-175348819D01*
X91210643Y-175348819D02*
X91448738Y-175348819D01*
X91448738Y-175348819D02*
X91543976Y-175396438D01*
X91543976Y-175396438D02*
X91591595Y-175444057D01*
X91591595Y-175444057D02*
X91639214Y-175539295D01*
X91639214Y-175539295D02*
X91639214Y-175634533D01*
X91639214Y-175634533D02*
X91591595Y-175777390D01*
X91591595Y-175777390D02*
X91020167Y-176348819D01*
X91020167Y-176348819D02*
X91639214Y-176348819D01*
X102994833Y-152246819D02*
X102661500Y-151770628D01*
X102423405Y-152246819D02*
X102423405Y-151246819D01*
X102423405Y-151246819D02*
X102804357Y-151246819D01*
X102804357Y-151246819D02*
X102899595Y-151294438D01*
X102899595Y-151294438D02*
X102947214Y-151342057D01*
X102947214Y-151342057D02*
X102994833Y-151437295D01*
X102994833Y-151437295D02*
X102994833Y-151580152D01*
X102994833Y-151580152D02*
X102947214Y-151675390D01*
X102947214Y-151675390D02*
X102899595Y-151723009D01*
X102899595Y-151723009D02*
X102804357Y-151770628D01*
X102804357Y-151770628D02*
X102423405Y-151770628D01*
X103851976Y-151580152D02*
X103851976Y-152246819D01*
X103613881Y-151199200D02*
X103375786Y-151913485D01*
X103375786Y-151913485D02*
X103994833Y-151913485D01*
X101997094Y-161708820D02*
X101997094Y-162518343D01*
X101997094Y-162518343D02*
X102044713Y-162613581D01*
X102044713Y-162613581D02*
X102092332Y-162661201D01*
X102092332Y-162661201D02*
X102187570Y-162708820D01*
X102187570Y-162708820D02*
X102378046Y-162708820D01*
X102378046Y-162708820D02*
X102473284Y-162661201D01*
X102473284Y-162661201D02*
X102520903Y-162613581D01*
X102520903Y-162613581D02*
X102568522Y-162518343D01*
X102568522Y-162518343D02*
X102568522Y-161708820D01*
X102997094Y-161804058D02*
X103044713Y-161756439D01*
X103044713Y-161756439D02*
X103139951Y-161708820D01*
X103139951Y-161708820D02*
X103378046Y-161708820D01*
X103378046Y-161708820D02*
X103473284Y-161756439D01*
X103473284Y-161756439D02*
X103520903Y-161804058D01*
X103520903Y-161804058D02*
X103568522Y-161899296D01*
X103568522Y-161899296D02*
X103568522Y-161994534D01*
X103568522Y-161994534D02*
X103520903Y-162137391D01*
X103520903Y-162137391D02*
X102949475Y-162708820D01*
X102949475Y-162708820D02*
X103568522Y-162708820D01*
X98775999Y-159308820D02*
X98775999Y-159546915D01*
X98537904Y-159451677D02*
X98775999Y-159546915D01*
X98775999Y-159546915D02*
X99014094Y-159451677D01*
X98633142Y-159737391D02*
X98775999Y-159546915D01*
X98775999Y-159546915D02*
X98918856Y-159737391D01*
X98775999Y-159308820D02*
X98775999Y-159546915D01*
X98537904Y-159451677D02*
X98775999Y-159546915D01*
X98775999Y-159546915D02*
X99014094Y-159451677D01*
X98633142Y-159737391D02*
X98775999Y-159546915D01*
X98775999Y-159546915D02*
X98918856Y-159737391D01*
X108367833Y-159459580D02*
X108320214Y-159507200D01*
X108320214Y-159507200D02*
X108177357Y-159554819D01*
X108177357Y-159554819D02*
X108082119Y-159554819D01*
X108082119Y-159554819D02*
X107939262Y-159507200D01*
X107939262Y-159507200D02*
X107844024Y-159411961D01*
X107844024Y-159411961D02*
X107796405Y-159316723D01*
X107796405Y-159316723D02*
X107748786Y-159126247D01*
X107748786Y-159126247D02*
X107748786Y-158983390D01*
X107748786Y-158983390D02*
X107796405Y-158792914D01*
X107796405Y-158792914D02*
X107844024Y-158697676D01*
X107844024Y-158697676D02*
X107939262Y-158602438D01*
X107939262Y-158602438D02*
X108082119Y-158554819D01*
X108082119Y-158554819D02*
X108177357Y-158554819D01*
X108177357Y-158554819D02*
X108320214Y-158602438D01*
X108320214Y-158602438D02*
X108367833Y-158650057D01*
X109224976Y-158554819D02*
X109034500Y-158554819D01*
X109034500Y-158554819D02*
X108939262Y-158602438D01*
X108939262Y-158602438D02*
X108891643Y-158650057D01*
X108891643Y-158650057D02*
X108796405Y-158792914D01*
X108796405Y-158792914D02*
X108748786Y-158983390D01*
X108748786Y-158983390D02*
X108748786Y-159364342D01*
X108748786Y-159364342D02*
X108796405Y-159459580D01*
X108796405Y-159459580D02*
X108844024Y-159507200D01*
X108844024Y-159507200D02*
X108939262Y-159554819D01*
X108939262Y-159554819D02*
X109129738Y-159554819D01*
X109129738Y-159554819D02*
X109224976Y-159507200D01*
X109224976Y-159507200D02*
X109272595Y-159459580D01*
X109272595Y-159459580D02*
X109320214Y-159364342D01*
X109320214Y-159364342D02*
X109320214Y-159126247D01*
X109320214Y-159126247D02*
X109272595Y-159031009D01*
X109272595Y-159031009D02*
X109224976Y-158983390D01*
X109224976Y-158983390D02*
X109129738Y-158935771D01*
X109129738Y-158935771D02*
X108939262Y-158935771D01*
X108939262Y-158935771D02*
X108844024Y-158983390D01*
X108844024Y-158983390D02*
X108796405Y-159031009D01*
X108796405Y-159031009D02*
X108748786Y-159126247D01*
X93977833Y-162225819D02*
X93644500Y-161749628D01*
X93406405Y-162225819D02*
X93406405Y-161225819D01*
X93406405Y-161225819D02*
X93787357Y-161225819D01*
X93787357Y-161225819D02*
X93882595Y-161273438D01*
X93882595Y-161273438D02*
X93930214Y-161321057D01*
X93930214Y-161321057D02*
X93977833Y-161416295D01*
X93977833Y-161416295D02*
X93977833Y-161559152D01*
X93977833Y-161559152D02*
X93930214Y-161654390D01*
X93930214Y-161654390D02*
X93882595Y-161702009D01*
X93882595Y-161702009D02*
X93787357Y-161749628D01*
X93787357Y-161749628D02*
X93406405Y-161749628D01*
X94454024Y-162225819D02*
X94644500Y-162225819D01*
X94644500Y-162225819D02*
X94739738Y-162178200D01*
X94739738Y-162178200D02*
X94787357Y-162130580D01*
X94787357Y-162130580D02*
X94882595Y-161987723D01*
X94882595Y-161987723D02*
X94930214Y-161797247D01*
X94930214Y-161797247D02*
X94930214Y-161416295D01*
X94930214Y-161416295D02*
X94882595Y-161321057D01*
X94882595Y-161321057D02*
X94834976Y-161273438D01*
X94834976Y-161273438D02*
X94739738Y-161225819D01*
X94739738Y-161225819D02*
X94549262Y-161225819D01*
X94549262Y-161225819D02*
X94454024Y-161273438D01*
X94454024Y-161273438D02*
X94406405Y-161321057D01*
X94406405Y-161321057D02*
X94358786Y-161416295D01*
X94358786Y-161416295D02*
X94358786Y-161654390D01*
X94358786Y-161654390D02*
X94406405Y-161749628D01*
X94406405Y-161749628D02*
X94454024Y-161797247D01*
X94454024Y-161797247D02*
X94549262Y-161844866D01*
X94549262Y-161844866D02*
X94739738Y-161844866D01*
X94739738Y-161844866D02*
X94834976Y-161797247D01*
X94834976Y-161797247D02*
X94882595Y-161749628D01*
X94882595Y-161749628D02*
X94930214Y-161654390D01*
X106641580Y-174692357D02*
X106689200Y-174739976D01*
X106689200Y-174739976D02*
X106736819Y-174882833D01*
X106736819Y-174882833D02*
X106736819Y-174978071D01*
X106736819Y-174978071D02*
X106689200Y-175120928D01*
X106689200Y-175120928D02*
X106593961Y-175216166D01*
X106593961Y-175216166D02*
X106498723Y-175263785D01*
X106498723Y-175263785D02*
X106308247Y-175311404D01*
X106308247Y-175311404D02*
X106165390Y-175311404D01*
X106165390Y-175311404D02*
X105974914Y-175263785D01*
X105974914Y-175263785D02*
X105879676Y-175216166D01*
X105879676Y-175216166D02*
X105784438Y-175120928D01*
X105784438Y-175120928D02*
X105736819Y-174978071D01*
X105736819Y-174978071D02*
X105736819Y-174882833D01*
X105736819Y-174882833D02*
X105784438Y-174739976D01*
X105784438Y-174739976D02*
X105832057Y-174692357D01*
X106736819Y-173739976D02*
X106736819Y-174311404D01*
X106736819Y-174025690D02*
X105736819Y-174025690D01*
X105736819Y-174025690D02*
X105879676Y-174120928D01*
X105879676Y-174120928D02*
X105974914Y-174216166D01*
X105974914Y-174216166D02*
X106022533Y-174311404D01*
X105832057Y-173359023D02*
X105784438Y-173311404D01*
X105784438Y-173311404D02*
X105736819Y-173216166D01*
X105736819Y-173216166D02*
X105736819Y-172978071D01*
X105736819Y-172978071D02*
X105784438Y-172882833D01*
X105784438Y-172882833D02*
X105832057Y-172835214D01*
X105832057Y-172835214D02*
X105927295Y-172787595D01*
X105927295Y-172787595D02*
X106022533Y-172787595D01*
X106022533Y-172787595D02*
X106165390Y-172835214D01*
X106165390Y-172835214D02*
X106736819Y-173406642D01*
X106736819Y-173406642D02*
X106736819Y-172787595D01*
X103351819Y-177469166D02*
X102875628Y-177802499D01*
X103351819Y-178040594D02*
X102351819Y-178040594D01*
X102351819Y-178040594D02*
X102351819Y-177659642D01*
X102351819Y-177659642D02*
X102399438Y-177564404D01*
X102399438Y-177564404D02*
X102447057Y-177516785D01*
X102447057Y-177516785D02*
X102542295Y-177469166D01*
X102542295Y-177469166D02*
X102685152Y-177469166D01*
X102685152Y-177469166D02*
X102780390Y-177516785D01*
X102780390Y-177516785D02*
X102828009Y-177564404D01*
X102828009Y-177564404D02*
X102875628Y-177659642D01*
X102875628Y-177659642D02*
X102875628Y-178040594D01*
X103351819Y-176516785D02*
X103351819Y-177088213D01*
X103351819Y-176802499D02*
X102351819Y-176802499D01*
X102351819Y-176802499D02*
X102494676Y-176897737D01*
X102494676Y-176897737D02*
X102589914Y-176992975D01*
X102589914Y-176992975D02*
X102637533Y-177088213D01*
X86325642Y-165044580D02*
X86278023Y-165092200D01*
X86278023Y-165092200D02*
X86135166Y-165139819D01*
X86135166Y-165139819D02*
X86039928Y-165139819D01*
X86039928Y-165139819D02*
X85897071Y-165092200D01*
X85897071Y-165092200D02*
X85801833Y-164996961D01*
X85801833Y-164996961D02*
X85754214Y-164901723D01*
X85754214Y-164901723D02*
X85706595Y-164711247D01*
X85706595Y-164711247D02*
X85706595Y-164568390D01*
X85706595Y-164568390D02*
X85754214Y-164377914D01*
X85754214Y-164377914D02*
X85801833Y-164282676D01*
X85801833Y-164282676D02*
X85897071Y-164187438D01*
X85897071Y-164187438D02*
X86039928Y-164139819D01*
X86039928Y-164139819D02*
X86135166Y-164139819D01*
X86135166Y-164139819D02*
X86278023Y-164187438D01*
X86278023Y-164187438D02*
X86325642Y-164235057D01*
X86658976Y-164139819D02*
X87278023Y-164139819D01*
X87278023Y-164139819D02*
X86944690Y-164520771D01*
X86944690Y-164520771D02*
X87087547Y-164520771D01*
X87087547Y-164520771D02*
X87182785Y-164568390D01*
X87182785Y-164568390D02*
X87230404Y-164616009D01*
X87230404Y-164616009D02*
X87278023Y-164711247D01*
X87278023Y-164711247D02*
X87278023Y-164949342D01*
X87278023Y-164949342D02*
X87230404Y-165044580D01*
X87230404Y-165044580D02*
X87182785Y-165092200D01*
X87182785Y-165092200D02*
X87087547Y-165139819D01*
X87087547Y-165139819D02*
X86801833Y-165139819D01*
X86801833Y-165139819D02*
X86706595Y-165092200D01*
X86706595Y-165092200D02*
X86658976Y-165044580D01*
X88230404Y-165139819D02*
X87658976Y-165139819D01*
X87944690Y-165139819D02*
X87944690Y-164139819D01*
X87944690Y-164139819D02*
X87849452Y-164282676D01*
X87849452Y-164282676D02*
X87754214Y-164377914D01*
X87754214Y-164377914D02*
X87658976Y-164425533D01*
X107866666Y-143074819D02*
X107866666Y-143789104D01*
X107866666Y-143789104D02*
X107819047Y-143931961D01*
X107819047Y-143931961D02*
X107723809Y-144027200D01*
X107723809Y-144027200D02*
X107580952Y-144074819D01*
X107580952Y-144074819D02*
X107485714Y-144074819D01*
X108771428Y-143074819D02*
X108580952Y-143074819D01*
X108580952Y-143074819D02*
X108485714Y-143122438D01*
X108485714Y-143122438D02*
X108438095Y-143170057D01*
X108438095Y-143170057D02*
X108342857Y-143312914D01*
X108342857Y-143312914D02*
X108295238Y-143503390D01*
X108295238Y-143503390D02*
X108295238Y-143884342D01*
X108295238Y-143884342D02*
X108342857Y-143979580D01*
X108342857Y-143979580D02*
X108390476Y-144027200D01*
X108390476Y-144027200D02*
X108485714Y-144074819D01*
X108485714Y-144074819D02*
X108676190Y-144074819D01*
X108676190Y-144074819D02*
X108771428Y-144027200D01*
X108771428Y-144027200D02*
X108819047Y-143979580D01*
X108819047Y-143979580D02*
X108866666Y-143884342D01*
X108866666Y-143884342D02*
X108866666Y-143646247D01*
X108866666Y-143646247D02*
X108819047Y-143551009D01*
X108819047Y-143551009D02*
X108771428Y-143503390D01*
X108771428Y-143503390D02*
X108676190Y-143455771D01*
X108676190Y-143455771D02*
X108485714Y-143455771D01*
X108485714Y-143455771D02*
X108390476Y-143503390D01*
X108390476Y-143503390D02*
X108342857Y-143551009D01*
X108342857Y-143551009D02*
X108295238Y-143646247D01*
X95928642Y-164350580D02*
X95881023Y-164398200D01*
X95881023Y-164398200D02*
X95738166Y-164445819D01*
X95738166Y-164445819D02*
X95642928Y-164445819D01*
X95642928Y-164445819D02*
X95500071Y-164398200D01*
X95500071Y-164398200D02*
X95404833Y-164302961D01*
X95404833Y-164302961D02*
X95357214Y-164207723D01*
X95357214Y-164207723D02*
X95309595Y-164017247D01*
X95309595Y-164017247D02*
X95309595Y-163874390D01*
X95309595Y-163874390D02*
X95357214Y-163683914D01*
X95357214Y-163683914D02*
X95404833Y-163588676D01*
X95404833Y-163588676D02*
X95500071Y-163493438D01*
X95500071Y-163493438D02*
X95642928Y-163445819D01*
X95642928Y-163445819D02*
X95738166Y-163445819D01*
X95738166Y-163445819D02*
X95881023Y-163493438D01*
X95881023Y-163493438D02*
X95928642Y-163541057D01*
X96261976Y-163445819D02*
X96881023Y-163445819D01*
X96881023Y-163445819D02*
X96547690Y-163826771D01*
X96547690Y-163826771D02*
X96690547Y-163826771D01*
X96690547Y-163826771D02*
X96785785Y-163874390D01*
X96785785Y-163874390D02*
X96833404Y-163922009D01*
X96833404Y-163922009D02*
X96881023Y-164017247D01*
X96881023Y-164017247D02*
X96881023Y-164255342D01*
X96881023Y-164255342D02*
X96833404Y-164350580D01*
X96833404Y-164350580D02*
X96785785Y-164398200D01*
X96785785Y-164398200D02*
X96690547Y-164445819D01*
X96690547Y-164445819D02*
X96404833Y-164445819D01*
X96404833Y-164445819D02*
X96309595Y-164398200D01*
X96309595Y-164398200D02*
X96261976Y-164350580D01*
X97357214Y-164445819D02*
X97547690Y-164445819D01*
X97547690Y-164445819D02*
X97642928Y-164398200D01*
X97642928Y-164398200D02*
X97690547Y-164350580D01*
X97690547Y-164350580D02*
X97785785Y-164207723D01*
X97785785Y-164207723D02*
X97833404Y-164017247D01*
X97833404Y-164017247D02*
X97833404Y-163636295D01*
X97833404Y-163636295D02*
X97785785Y-163541057D01*
X97785785Y-163541057D02*
X97738166Y-163493438D01*
X97738166Y-163493438D02*
X97642928Y-163445819D01*
X97642928Y-163445819D02*
X97452452Y-163445819D01*
X97452452Y-163445819D02*
X97357214Y-163493438D01*
X97357214Y-163493438D02*
X97309595Y-163541057D01*
X97309595Y-163541057D02*
X97261976Y-163636295D01*
X97261976Y-163636295D02*
X97261976Y-163874390D01*
X97261976Y-163874390D02*
X97309595Y-163969628D01*
X97309595Y-163969628D02*
X97357214Y-164017247D01*
X97357214Y-164017247D02*
X97452452Y-164064866D01*
X97452452Y-164064866D02*
X97642928Y-164064866D01*
X97642928Y-164064866D02*
X97738166Y-164017247D01*
X97738166Y-164017247D02*
X97785785Y-163969628D01*
X97785785Y-163969628D02*
X97833404Y-163874390D01*
X102196580Y-177975357D02*
X102244200Y-178022976D01*
X102244200Y-178022976D02*
X102291819Y-178165833D01*
X102291819Y-178165833D02*
X102291819Y-178261071D01*
X102291819Y-178261071D02*
X102244200Y-178403928D01*
X102244200Y-178403928D02*
X102148961Y-178499166D01*
X102148961Y-178499166D02*
X102053723Y-178546785D01*
X102053723Y-178546785D02*
X101863247Y-178594404D01*
X101863247Y-178594404D02*
X101720390Y-178594404D01*
X101720390Y-178594404D02*
X101529914Y-178546785D01*
X101529914Y-178546785D02*
X101434676Y-178499166D01*
X101434676Y-178499166D02*
X101339438Y-178403928D01*
X101339438Y-178403928D02*
X101291819Y-178261071D01*
X101291819Y-178261071D02*
X101291819Y-178165833D01*
X101291819Y-178165833D02*
X101339438Y-178022976D01*
X101339438Y-178022976D02*
X101387057Y-177975357D01*
X102291819Y-177022976D02*
X102291819Y-177594404D01*
X102291819Y-177308690D02*
X101291819Y-177308690D01*
X101291819Y-177308690D02*
X101434676Y-177403928D01*
X101434676Y-177403928D02*
X101529914Y-177499166D01*
X101529914Y-177499166D02*
X101577533Y-177594404D01*
X101291819Y-176118214D02*
X101291819Y-176594404D01*
X101291819Y-176594404D02*
X101768009Y-176642023D01*
X101768009Y-176642023D02*
X101720390Y-176594404D01*
X101720390Y-176594404D02*
X101672771Y-176499166D01*
X101672771Y-176499166D02*
X101672771Y-176261071D01*
X101672771Y-176261071D02*
X101720390Y-176165833D01*
X101720390Y-176165833D02*
X101768009Y-176118214D01*
X101768009Y-176118214D02*
X101863247Y-176070595D01*
X101863247Y-176070595D02*
X102101342Y-176070595D01*
X102101342Y-176070595D02*
X102196580Y-176118214D01*
X102196580Y-176118214D02*
X102244200Y-176165833D01*
X102244200Y-176165833D02*
X102291819Y-176261071D01*
X102291819Y-176261071D02*
X102291819Y-176499166D01*
X102291819Y-176499166D02*
X102244200Y-176594404D01*
X102244200Y-176594404D02*
X102196580Y-176642023D01*
X96960642Y-172080580D02*
X96913023Y-172128200D01*
X96913023Y-172128200D02*
X96770166Y-172175819D01*
X96770166Y-172175819D02*
X96674928Y-172175819D01*
X96674928Y-172175819D02*
X96532071Y-172128200D01*
X96532071Y-172128200D02*
X96436833Y-172032961D01*
X96436833Y-172032961D02*
X96389214Y-171937723D01*
X96389214Y-171937723D02*
X96341595Y-171747247D01*
X96341595Y-171747247D02*
X96341595Y-171604390D01*
X96341595Y-171604390D02*
X96389214Y-171413914D01*
X96389214Y-171413914D02*
X96436833Y-171318676D01*
X96436833Y-171318676D02*
X96532071Y-171223438D01*
X96532071Y-171223438D02*
X96674928Y-171175819D01*
X96674928Y-171175819D02*
X96770166Y-171175819D01*
X96770166Y-171175819D02*
X96913023Y-171223438D01*
X96913023Y-171223438D02*
X96960642Y-171271057D01*
X97341595Y-171271057D02*
X97389214Y-171223438D01*
X97389214Y-171223438D02*
X97484452Y-171175819D01*
X97484452Y-171175819D02*
X97722547Y-171175819D01*
X97722547Y-171175819D02*
X97817785Y-171223438D01*
X97817785Y-171223438D02*
X97865404Y-171271057D01*
X97865404Y-171271057D02*
X97913023Y-171366295D01*
X97913023Y-171366295D02*
X97913023Y-171461533D01*
X97913023Y-171461533D02*
X97865404Y-171604390D01*
X97865404Y-171604390D02*
X97293976Y-172175819D01*
X97293976Y-172175819D02*
X97913023Y-172175819D01*
X98246357Y-171175819D02*
X98865404Y-171175819D01*
X98865404Y-171175819D02*
X98532071Y-171556771D01*
X98532071Y-171556771D02*
X98674928Y-171556771D01*
X98674928Y-171556771D02*
X98770166Y-171604390D01*
X98770166Y-171604390D02*
X98817785Y-171652009D01*
X98817785Y-171652009D02*
X98865404Y-171747247D01*
X98865404Y-171747247D02*
X98865404Y-171985342D01*
X98865404Y-171985342D02*
X98817785Y-172080580D01*
X98817785Y-172080580D02*
X98770166Y-172128200D01*
X98770166Y-172128200D02*
X98674928Y-172175819D01*
X98674928Y-172175819D02*
X98389214Y-172175819D01*
X98389214Y-172175819D02*
X98293976Y-172128200D01*
X98293976Y-172128200D02*
X98246357Y-172080580D01*
X96960642Y-174332580D02*
X96913023Y-174380200D01*
X96913023Y-174380200D02*
X96770166Y-174427819D01*
X96770166Y-174427819D02*
X96674928Y-174427819D01*
X96674928Y-174427819D02*
X96532071Y-174380200D01*
X96532071Y-174380200D02*
X96436833Y-174284961D01*
X96436833Y-174284961D02*
X96389214Y-174189723D01*
X96389214Y-174189723D02*
X96341595Y-173999247D01*
X96341595Y-173999247D02*
X96341595Y-173856390D01*
X96341595Y-173856390D02*
X96389214Y-173665914D01*
X96389214Y-173665914D02*
X96436833Y-173570676D01*
X96436833Y-173570676D02*
X96532071Y-173475438D01*
X96532071Y-173475438D02*
X96674928Y-173427819D01*
X96674928Y-173427819D02*
X96770166Y-173427819D01*
X96770166Y-173427819D02*
X96913023Y-173475438D01*
X96913023Y-173475438D02*
X96960642Y-173523057D01*
X97913023Y-174427819D02*
X97341595Y-174427819D01*
X97627309Y-174427819D02*
X97627309Y-173427819D01*
X97627309Y-173427819D02*
X97532071Y-173570676D01*
X97532071Y-173570676D02*
X97436833Y-173665914D01*
X97436833Y-173665914D02*
X97341595Y-173713533D01*
X98770166Y-173427819D02*
X98579690Y-173427819D01*
X98579690Y-173427819D02*
X98484452Y-173475438D01*
X98484452Y-173475438D02*
X98436833Y-173523057D01*
X98436833Y-173523057D02*
X98341595Y-173665914D01*
X98341595Y-173665914D02*
X98293976Y-173856390D01*
X98293976Y-173856390D02*
X98293976Y-174237342D01*
X98293976Y-174237342D02*
X98341595Y-174332580D01*
X98341595Y-174332580D02*
X98389214Y-174380200D01*
X98389214Y-174380200D02*
X98484452Y-174427819D01*
X98484452Y-174427819D02*
X98674928Y-174427819D01*
X98674928Y-174427819D02*
X98770166Y-174380200D01*
X98770166Y-174380200D02*
X98817785Y-174332580D01*
X98817785Y-174332580D02*
X98865404Y-174237342D01*
X98865404Y-174237342D02*
X98865404Y-173999247D01*
X98865404Y-173999247D02*
X98817785Y-173904009D01*
X98817785Y-173904009D02*
X98770166Y-173856390D01*
X98770166Y-173856390D02*
X98674928Y-173808771D01*
X98674928Y-173808771D02*
X98484452Y-173808771D01*
X98484452Y-173808771D02*
X98389214Y-173856390D01*
X98389214Y-173856390D02*
X98341595Y-173904009D01*
X98341595Y-173904009D02*
X98293976Y-173999247D01*
X105891819Y-177469166D02*
X105415628Y-177802499D01*
X105891819Y-178040594D02*
X104891819Y-178040594D01*
X104891819Y-178040594D02*
X104891819Y-177659642D01*
X104891819Y-177659642D02*
X104939438Y-177564404D01*
X104939438Y-177564404D02*
X104987057Y-177516785D01*
X104987057Y-177516785D02*
X105082295Y-177469166D01*
X105082295Y-177469166D02*
X105225152Y-177469166D01*
X105225152Y-177469166D02*
X105320390Y-177516785D01*
X105320390Y-177516785D02*
X105368009Y-177564404D01*
X105368009Y-177564404D02*
X105415628Y-177659642D01*
X105415628Y-177659642D02*
X105415628Y-178040594D01*
X104987057Y-177088213D02*
X104939438Y-177040594D01*
X104939438Y-177040594D02*
X104891819Y-176945356D01*
X104891819Y-176945356D02*
X104891819Y-176707261D01*
X104891819Y-176707261D02*
X104939438Y-176612023D01*
X104939438Y-176612023D02*
X104987057Y-176564404D01*
X104987057Y-176564404D02*
X105082295Y-176516785D01*
X105082295Y-176516785D02*
X105177533Y-176516785D01*
X105177533Y-176516785D02*
X105320390Y-176564404D01*
X105320390Y-176564404D02*
X105891819Y-177135832D01*
X105891819Y-177135832D02*
X105891819Y-176516785D01*
X97614819Y-173566904D02*
X98424342Y-173566904D01*
X98424342Y-173566904D02*
X98519580Y-173519285D01*
X98519580Y-173519285D02*
X98567200Y-173471666D01*
X98567200Y-173471666D02*
X98614819Y-173376428D01*
X98614819Y-173376428D02*
X98614819Y-173185952D01*
X98614819Y-173185952D02*
X98567200Y-173090714D01*
X98567200Y-173090714D02*
X98519580Y-173043095D01*
X98519580Y-173043095D02*
X98424342Y-172995476D01*
X98424342Y-172995476D02*
X97614819Y-172995476D01*
X98614819Y-171995476D02*
X98614819Y-172566904D01*
X98614819Y-172281190D02*
X97614819Y-172281190D01*
X97614819Y-172281190D02*
X97757676Y-172376428D01*
X97757676Y-172376428D02*
X97852914Y-172471666D01*
X97852914Y-172471666D02*
X97900533Y-172566904D01*
X107161819Y-153747166D02*
X106685628Y-154080499D01*
X107161819Y-154318594D02*
X106161819Y-154318594D01*
X106161819Y-154318594D02*
X106161819Y-153937642D01*
X106161819Y-153937642D02*
X106209438Y-153842404D01*
X106209438Y-153842404D02*
X106257057Y-153794785D01*
X106257057Y-153794785D02*
X106352295Y-153747166D01*
X106352295Y-153747166D02*
X106495152Y-153747166D01*
X106495152Y-153747166D02*
X106590390Y-153794785D01*
X106590390Y-153794785D02*
X106638009Y-153842404D01*
X106638009Y-153842404D02*
X106685628Y-153937642D01*
X106685628Y-153937642D02*
X106685628Y-154318594D01*
X106161819Y-152890023D02*
X106161819Y-153080499D01*
X106161819Y-153080499D02*
X106209438Y-153175737D01*
X106209438Y-153175737D02*
X106257057Y-153223356D01*
X106257057Y-153223356D02*
X106399914Y-153318594D01*
X106399914Y-153318594D02*
X106590390Y-153366213D01*
X106590390Y-153366213D02*
X106971342Y-153366213D01*
X106971342Y-153366213D02*
X107066580Y-153318594D01*
X107066580Y-153318594D02*
X107114200Y-153270975D01*
X107114200Y-153270975D02*
X107161819Y-153175737D01*
X107161819Y-153175737D02*
X107161819Y-152985261D01*
X107161819Y-152985261D02*
X107114200Y-152890023D01*
X107114200Y-152890023D02*
X107066580Y-152842404D01*
X107066580Y-152842404D02*
X106971342Y-152794785D01*
X106971342Y-152794785D02*
X106733247Y-152794785D01*
X106733247Y-152794785D02*
X106638009Y-152842404D01*
X106638009Y-152842404D02*
X106590390Y-152890023D01*
X106590390Y-152890023D02*
X106542771Y-152985261D01*
X106542771Y-152985261D02*
X106542771Y-153175737D01*
X106542771Y-153175737D02*
X106590390Y-153270975D01*
X106590390Y-153270975D02*
X106638009Y-153318594D01*
X106638009Y-153318594D02*
X106733247Y-153366213D01*
X91313333Y-153545180D02*
X91313333Y-152830895D01*
X91313333Y-152830895D02*
X91360952Y-152688038D01*
X91360952Y-152688038D02*
X91456190Y-152592800D01*
X91456190Y-152592800D02*
X91599047Y-152545180D01*
X91599047Y-152545180D02*
X91694285Y-152545180D01*
X90408571Y-153211847D02*
X90408571Y-152545180D01*
X90646666Y-153592800D02*
X90884761Y-152878514D01*
X90884761Y-152878514D02*
X90265714Y-152878514D01*
X105984819Y-177945357D02*
X105508628Y-178278690D01*
X105984819Y-178516785D02*
X104984819Y-178516785D01*
X104984819Y-178516785D02*
X104984819Y-178135833D01*
X104984819Y-178135833D02*
X105032438Y-178040595D01*
X105032438Y-178040595D02*
X105080057Y-177992976D01*
X105080057Y-177992976D02*
X105175295Y-177945357D01*
X105175295Y-177945357D02*
X105318152Y-177945357D01*
X105318152Y-177945357D02*
X105413390Y-177992976D01*
X105413390Y-177992976D02*
X105461009Y-178040595D01*
X105461009Y-178040595D02*
X105508628Y-178135833D01*
X105508628Y-178135833D02*
X105508628Y-178516785D01*
X105984819Y-176992976D02*
X105984819Y-177564404D01*
X105984819Y-177278690D02*
X104984819Y-177278690D01*
X104984819Y-177278690D02*
X105127676Y-177373928D01*
X105127676Y-177373928D02*
X105222914Y-177469166D01*
X105222914Y-177469166D02*
X105270533Y-177564404D01*
X105080057Y-176612023D02*
X105032438Y-176564404D01*
X105032438Y-176564404D02*
X104984819Y-176469166D01*
X104984819Y-176469166D02*
X104984819Y-176231071D01*
X104984819Y-176231071D02*
X105032438Y-176135833D01*
X105032438Y-176135833D02*
X105080057Y-176088214D01*
X105080057Y-176088214D02*
X105175295Y-176040595D01*
X105175295Y-176040595D02*
X105270533Y-176040595D01*
X105270533Y-176040595D02*
X105413390Y-176088214D01*
X105413390Y-176088214D02*
X105984819Y-176659642D01*
X105984819Y-176659642D02*
X105984819Y-176040595D01*
X108367833Y-163809580D02*
X108320214Y-163857200D01*
X108320214Y-163857200D02*
X108177357Y-163904819D01*
X108177357Y-163904819D02*
X108082119Y-163904819D01*
X108082119Y-163904819D02*
X107939262Y-163857200D01*
X107939262Y-163857200D02*
X107844024Y-163761961D01*
X107844024Y-163761961D02*
X107796405Y-163666723D01*
X107796405Y-163666723D02*
X107748786Y-163476247D01*
X107748786Y-163476247D02*
X107748786Y-163333390D01*
X107748786Y-163333390D02*
X107796405Y-163142914D01*
X107796405Y-163142914D02*
X107844024Y-163047676D01*
X107844024Y-163047676D02*
X107939262Y-162952438D01*
X107939262Y-162952438D02*
X108082119Y-162904819D01*
X108082119Y-162904819D02*
X108177357Y-162904819D01*
X108177357Y-162904819D02*
X108320214Y-162952438D01*
X108320214Y-162952438D02*
X108367833Y-163000057D01*
X108844024Y-163904819D02*
X109034500Y-163904819D01*
X109034500Y-163904819D02*
X109129738Y-163857200D01*
X109129738Y-163857200D02*
X109177357Y-163809580D01*
X109177357Y-163809580D02*
X109272595Y-163666723D01*
X109272595Y-163666723D02*
X109320214Y-163476247D01*
X109320214Y-163476247D02*
X109320214Y-163095295D01*
X109320214Y-163095295D02*
X109272595Y-163000057D01*
X109272595Y-163000057D02*
X109224976Y-162952438D01*
X109224976Y-162952438D02*
X109129738Y-162904819D01*
X109129738Y-162904819D02*
X108939262Y-162904819D01*
X108939262Y-162904819D02*
X108844024Y-162952438D01*
X108844024Y-162952438D02*
X108796405Y-163000057D01*
X108796405Y-163000057D02*
X108748786Y-163095295D01*
X108748786Y-163095295D02*
X108748786Y-163333390D01*
X108748786Y-163333390D02*
X108796405Y-163428628D01*
X108796405Y-163428628D02*
X108844024Y-163476247D01*
X108844024Y-163476247D02*
X108939262Y-163523866D01*
X108939262Y-163523866D02*
X109129738Y-163523866D01*
X109129738Y-163523866D02*
X109224976Y-163476247D01*
X109224976Y-163476247D02*
X109272595Y-163428628D01*
X109272595Y-163428628D02*
X109320214Y-163333390D01*
D11*
%TO.C,C22*%
X97487665Y-171344000D02*
X97719335Y-171344000D01*
X97487665Y-172064000D02*
X97719335Y-172064000D01*
%TO.C,C14*%
X105177000Y-177448335D02*
X105177000Y-177216665D01*
X105897000Y-177448335D02*
X105897000Y-177216665D01*
%TO.C,R8*%
X93346000Y-170990879D02*
X93346000Y-171326121D01*
X94106000Y-170990879D02*
X94106000Y-171326121D01*
D12*
%TO.C,U6*%
X95442999Y-165290500D02*
X95442999Y-166941500D01*
X96477259Y-165290500D02*
X95442999Y-165290500D01*
X96760738Y-166941500D02*
X97427260Y-166941500D01*
X98744999Y-165290500D02*
X97710739Y-165290500D01*
X98744999Y-166941500D02*
X98744999Y-165290500D01*
X94426999Y-167436800D02*
G75*
G02*
X94172999Y-167436800I-127000J0D01*
G01*
X94172999Y-167436800D02*
G75*
G02*
X94426999Y-167436800I127000J0D01*
G01*
%TO.C,Y2*%
X109528599Y-169501999D02*
G75*
G02*
X109274599Y-169501999I-127000J0D01*
G01*
X109274599Y-169501999D02*
G75*
G02*
X109528599Y-169501999I127000J0D01*
G01*
D11*
%TO.C,R11*%
X90734879Y-152920000D02*
X91070121Y-152920000D01*
X90734879Y-153680000D02*
X91070121Y-153680000D01*
D13*
%TO.C,U5*%
X90983000Y-163959000D02*
X90983000Y-168359000D01*
X90983000Y-168359000D02*
X94183000Y-168359000D01*
X94183000Y-163959000D02*
X90983000Y-163959000D01*
X94183000Y-168359000D02*
X94183000Y-163959000D01*
D14*
X94233000Y-163159000D02*
G75*
G02*
X93933000Y-163159000I-150000J0D01*
G01*
X93933000Y-163159000D02*
G75*
G02*
X94233000Y-163159000I150000J0D01*
G01*
D11*
%TO.C,D1*%
X85515500Y-173284000D02*
X85515500Y-175204000D01*
X85515500Y-175204000D02*
X88200500Y-175204000D01*
X88200500Y-173284000D02*
X85515500Y-173284000D01*
%TO.C,R10*%
X93465121Y-152920000D02*
X93129879Y-152920000D01*
X93465121Y-153680000D02*
X93129879Y-153680000D01*
%TO.C,Y1*%
X95790000Y-160990000D02*
X95790000Y-160910000D01*
X95950000Y-162110000D02*
X97150000Y-162110000D01*
X97310000Y-160990000D02*
X97310000Y-160910000D01*
%TO.C,C13*%
X100097000Y-177448335D02*
X100097000Y-177216665D01*
X100817000Y-177448335D02*
X100817000Y-177216665D01*
%TO.C,C20*%
X107082000Y-171528665D02*
X107082000Y-171760335D01*
X107802000Y-171528665D02*
X107802000Y-171760335D01*
%TO.C,R7*%
X93346000Y-173784879D02*
X93346000Y-174120121D01*
X94106000Y-173784879D02*
X94106000Y-174120121D01*
%TO.C,C8*%
X99462000Y-155876665D02*
X99462000Y-156108335D01*
X100182000Y-155876665D02*
X100182000Y-156108335D01*
D14*
%TO.C,Y3*%
X108650000Y-151407500D02*
G75*
G02*
X108450000Y-151407500I-100000J0D01*
G01*
X108450000Y-151407500D02*
G75*
G02*
X108650000Y-151407500I100000J0D01*
G01*
D11*
%TO.C,C18*%
X97487665Y-173630000D02*
X97719335Y-173630000D01*
X97487665Y-174350000D02*
X97719335Y-174350000D01*
%TO.C,C24*%
X97719335Y-169058000D02*
X97487665Y-169058000D01*
X97719335Y-169778000D02*
X97487665Y-169778000D01*
%TO.C,C17*%
X97719335Y-175916000D02*
X97487665Y-175916000D01*
X97719335Y-176636000D02*
X97487665Y-176636000D01*
%TO.C,C10*%
X105190000Y-156108335D02*
X105190000Y-155876665D01*
X105910000Y-156108335D02*
X105910000Y-155876665D01*
D12*
%TO.C,U4*%
X86144100Y-168059100D02*
X86144100Y-168469545D01*
X86144100Y-171890455D02*
X86144100Y-172300900D01*
X86144100Y-172300900D02*
X86554545Y-172300900D01*
X86554545Y-168059100D02*
X86144100Y-168059100D01*
X89975455Y-172300900D02*
X90385900Y-172300900D01*
X90385900Y-168059100D02*
X89975455Y-168059100D01*
X90385900Y-168469545D02*
X90385900Y-168059100D01*
X90385900Y-172300900D02*
X90385900Y-171890455D01*
D15*
G36*
X88705563Y-172981899D02*
G01*
X88324563Y-172981899D01*
X88324563Y-172727899D01*
X88705563Y-172727899D01*
X88705563Y-172981899D01*
G37*
G36*
X89205689Y-167632101D02*
G01*
X88824689Y-167632101D01*
X88824689Y-167378101D01*
X89205689Y-167378101D01*
X89205689Y-167632101D01*
G37*
D11*
%TO.C,R5*%
X102993879Y-152528000D02*
X103329121Y-152528000D01*
X102993879Y-153288000D02*
X103329121Y-153288000D01*
%TO.C,C21*%
X97487665Y-172487000D02*
X97719335Y-172487000D01*
X97487665Y-173207000D02*
X97719335Y-173207000D01*
%TO.C,R3*%
X102993879Y-151385000D02*
X103329121Y-151385000D01*
X102993879Y-152145000D02*
X103329121Y-152145000D01*
D12*
%TO.C,Q1*%
X101686500Y-157419401D02*
X103642300Y-157419401D01*
X103642300Y-154066601D02*
X101686500Y-154066601D01*
X104770099Y-156718001D02*
G75*
G02*
X104566899Y-156718001I-101600J0D01*
G01*
X104566899Y-156718001D02*
G75*
G02*
X104770099Y-156718001I101600J0D01*
G01*
D11*
%TO.C,D2*%
X89853500Y-175204000D02*
X92538500Y-175204000D01*
X92538500Y-173284000D02*
X89853500Y-173284000D01*
X92538500Y-175204000D02*
X92538500Y-173284000D01*
%TO.C,R4*%
X103329121Y-150242000D02*
X102993879Y-150242000D01*
X103329121Y-151002000D02*
X102993879Y-151002000D01*
D12*
%TO.C,U2*%
X99583999Y-159079001D02*
X99583999Y-159619260D01*
X99583999Y-164888742D02*
X99583999Y-165429001D01*
X99583999Y-165429001D02*
X100124258Y-165429001D01*
X100124258Y-159079001D02*
X99583999Y-159079001D01*
X105393740Y-165429001D02*
X105933999Y-165429001D01*
X105933999Y-159079001D02*
X105393740Y-159079001D01*
X105933999Y-159619260D02*
X105933999Y-159079001D01*
X105933999Y-165429001D02*
X105933999Y-164888742D01*
D15*
G36*
X99157000Y-163844501D02*
G01*
X98903000Y-163844501D01*
X98903000Y-163463501D01*
X99157000Y-163463501D01*
X99157000Y-163844501D01*
G37*
G36*
X103549498Y-166110000D02*
G01*
X103168498Y-166110000D01*
X103168498Y-165856000D01*
X103549498Y-165856000D01*
X103549498Y-166110000D01*
G37*
G36*
X103949500Y-158652002D02*
G01*
X103568500Y-158652002D01*
X103568500Y-158398002D01*
X103949500Y-158398002D01*
X103949500Y-158652002D01*
G37*
G36*
X106614998Y-162644501D02*
G01*
X106360998Y-162644501D01*
X106360998Y-162263501D01*
X106614998Y-162263501D01*
X106614998Y-162644501D01*
G37*
D11*
%TO.C,R9*%
X93976879Y-162561000D02*
X94312121Y-162561000D01*
X93976879Y-163321000D02*
X94312121Y-163321000D01*
%TO.C,C12*%
X107082000Y-174165335D02*
X107082000Y-173933665D01*
X107802000Y-174165335D02*
X107802000Y-173933665D01*
%TO.C,R1*%
X101347000Y-177134879D02*
X101347000Y-177470121D01*
X102107000Y-177134879D02*
X102107000Y-177470121D01*
%TO.C,C15*%
X102637000Y-177448335D02*
X102637000Y-177216665D01*
X103357000Y-177448335D02*
X103357000Y-177216665D01*
%TO.C,C23*%
X97719335Y-170201000D02*
X97487665Y-170201000D01*
X97719335Y-170921000D02*
X97487665Y-170921000D01*
%TO.C,C16*%
X97487665Y-174773000D02*
X97719335Y-174773000D01*
X97487665Y-175493000D02*
X97719335Y-175493000D01*
%TO.C,R2*%
X103887000Y-177134879D02*
X103887000Y-177470121D01*
X104647000Y-177134879D02*
X104647000Y-177470121D01*
D16*
%TO.C,U1*%
X100400000Y-169990000D02*
X100400000Y-170535000D01*
X100400000Y-169990000D02*
X100945000Y-169990000D01*
X100400000Y-174990000D02*
X100400000Y-174445000D01*
X100400000Y-174990000D02*
X100945000Y-174990000D01*
X105400000Y-169990000D02*
X104855000Y-169990000D01*
X105400000Y-169990000D02*
X105400000Y-170535000D01*
X105400000Y-174990000D02*
X104855000Y-174990000D01*
X105400000Y-174990000D02*
X105400000Y-174445000D01*
D14*
X101500000Y-176040000D02*
G75*
G02*
X101300000Y-176040000I-100000J0D01*
G01*
X101300000Y-176040000D02*
G75*
G02*
X101500000Y-176040000I100000J0D01*
G01*
D11*
%TO.C,R6*%
X105157000Y-153412879D02*
X105157000Y-153748121D01*
X105917000Y-153412879D02*
X105917000Y-153748121D01*
%TO.C,J4*%
X86310000Y-148150000D02*
X86310000Y-149850000D01*
X95650000Y-148150000D02*
X95650000Y-149850000D01*
%TO.C,R12*%
X106320000Y-177470121D02*
X106320000Y-177134879D01*
X107080000Y-177470121D02*
X107080000Y-177134879D01*
%TD*%
M02*
