%TF.GenerationSoftware,KiCad,Pcbnew,9.0.7*%
%TF.CreationDate,2026-03-16T19:36:42-05:00*%
%TF.ProjectId,ECG,4543472e-6b69-4636-9164-5f7063625858,rev?*%
%TF.SameCoordinates,Original*%
%TF.FileFunction,Copper,L2,Bot*%
%TF.FilePolarity,Positive*%
%FSLAX46Y46*%
G04 Gerber Fmt 4.6, Leading zero omitted, Abs format (unit mm)*
G04 Created by KiCad (PCBNEW 9.0.7) date 2026-03-16 19:36:42*
%MOMM*%
%LPD*%
G01*
G04 APERTURE LIST*
G04 Aperture macros list*
%AMRoundRect*
0 Rectangle with rounded corners*
0 $1 Rounding radius*
0 $2 $3 $4 $5 $6 $7 $8 $9 X,Y pos of 4 corners*
0 Add a 4 corners polygon primitive as box body*
4,1,4,$2,$3,$4,$5,$6,$7,$8,$9,$2,$3,0*
0 Add four circle primitives for the rounded corners*
1,1,$1+$1,$2,$3*
1,1,$1+$1,$4,$5*
1,1,$1+$1,$6,$7*
1,1,$1+$1,$8,$9*
0 Add four rect primitives between the rounded corners*
20,1,$1+$1,$2,$3,$4,$5,0*
20,1,$1+$1,$4,$5,$6,$7,0*
20,1,$1+$1,$6,$7,$8,$9,0*
20,1,$1+$1,$8,$9,$2,$3,0*%
G04 Aperture macros list end*
%TA.AperFunction,ComponentPad*%
%ADD10RoundRect,0.250000X-0.825000X-0.825000X0.825000X-0.825000X0.825000X0.825000X-0.825000X0.825000X0*%
%TD*%
%TA.AperFunction,ComponentPad*%
%ADD11RoundRect,0.250000X0.825000X-0.825000X0.825000X0.825000X-0.825000X0.825000X-0.825000X-0.825000X0*%
%TD*%
%TA.AperFunction,ComponentPad*%
%ADD12RoundRect,0.250000X0.825000X0.825000X-0.825000X0.825000X-0.825000X-0.825000X0.825000X-0.825000X0*%
%TD*%
%TA.AperFunction,ComponentPad*%
%ADD13C,2.150000*%
%TD*%
%TA.AperFunction,HeatsinkPad*%
%ADD14O,1.100000X1.700000*%
%TD*%
%TA.AperFunction,ViaPad*%
%ADD15C,0.450000*%
%TD*%
%TA.AperFunction,ViaPad*%
%ADD16C,0.300000*%
%TD*%
%TA.AperFunction,Conductor*%
%ADD17C,0.152400*%
%TD*%
%TA.AperFunction,Conductor*%
%ADD18C,0.200000*%
%TD*%
G04 APERTURE END LIST*
D10*
%TO.P,J7,1,Pin_1*%
%TO.N,Negative Electrode*%
X108000000Y-183200000D03*
%TD*%
D11*
%TO.P,J3,1,Pin_1*%
%TO.N,GND*%
X91500000Y-177800000D03*
%TD*%
%TO.P,J1,1,Pin_1*%
%TO.N,VBATT*%
X87290000Y-177800000D03*
%TD*%
D12*
%TO.P,J5,1,Pin_1*%
%TO.N,VCM*%
X112200000Y-163800000D03*
%TD*%
%TO.P,J2,1,Pin_1*%
%TO.N,SWDCLK*%
X126100000Y-178600000D03*
D13*
%TO.P,J2,2,Pin_2*%
%TO.N,SWDIO*%
X121500000Y-178600000D03*
%TO.P,J2,3,Pin_3*%
%TO.N,1.8V*%
X116900000Y-178600000D03*
%TO.P,J2,4,Pin_4*%
%TO.N,GND*%
X112300000Y-178600000D03*
%TD*%
D10*
%TO.P,J6,1,Pin_1*%
%TO.N,Positive Electrode*%
X108200000Y-145900000D03*
%TD*%
D14*
%TO.P,J4,S1,SHIELD*%
%TO.N,GND*%
X95300000Y-150900000D03*
X95300000Y-147100000D03*
X86660000Y-150900000D03*
X86660000Y-147100000D03*
%TD*%
D15*
%TO.N,GND*%
X107100000Y-154400000D03*
D16*
X109700000Y-177800000D03*
D15*
%TO.N,XC1*%
X107550000Y-151407500D03*
X107218740Y-160794710D03*
%TO.N,VCM*%
X106700000Y-177900000D03*
X109800000Y-166200000D03*
%TO.N,Positive Electrode*%
X105537000Y-176765000D03*
X109100000Y-149300000D03*
%TO.N,GND*%
X102400000Y-174850000D03*
X108241998Y-168402000D03*
X105260000Y-173990000D03*
X103601800Y-156718000D03*
X94742000Y-162941000D03*
X107442000Y-171077000D03*
X99568000Y-166624000D03*
X97036000Y-169418000D03*
X108854500Y-160150000D03*
X100540000Y-173990000D03*
X102564000Y-152908000D03*
X102758999Y-162254001D03*
X108942000Y-162400000D03*
X105537000Y-177919000D03*
X106500000Y-151407500D03*
X88392000Y-165100000D03*
X108127000Y-164950000D03*
X105260000Y-171990000D03*
X105550000Y-155425000D03*
X89515315Y-168264700D03*
X93726000Y-171756000D03*
X107569000Y-155585000D03*
X96979000Y-162941000D03*
%TO.N,Net-(U2-DEC4)*%
X101800000Y-158369000D03*
X106724500Y-159175500D03*
X106904500Y-161954500D03*
%TO.N,Net-(U1-ECGP)*%
X103245576Y-175922670D03*
X104267000Y-179070000D03*
%TO.N,Net-(AE1-A)*%
X109728000Y-165481000D03*
%TO.N,1.8V*%
X102400000Y-168783000D03*
X98171000Y-169418000D03*
X102108000Y-166243000D03*
X98806000Y-159281002D03*
X87200000Y-164600000D03*
X106251500Y-171148500D03*
X106299000Y-166116000D03*
X94107000Y-168656000D03*
X98298000Y-164465000D03*
X105791000Y-159385000D03*
X99314000Y-170053000D03*
%TO.N,SDI*%
X102900582Y-166985928D03*
X102976800Y-168101200D03*
%TO.N,SCLK*%
X101346000Y-167640000D03*
X104500000Y-168100000D03*
%TO.N,CSB*%
X105019128Y-166760871D03*
X101346000Y-166243000D03*
%TO.N,SDO*%
X103378000Y-166600000D03*
X103159411Y-168620002D03*
%TO.N,Net-(U2-DCC)*%
X100700000Y-158300000D03*
X107315000Y-157988000D03*
%TO.N,VBATT*%
X93218000Y-169852500D03*
X103601800Y-155418000D03*
X104648000Y-154559000D03*
X90600000Y-161800000D03*
X90678000Y-167132000D03*
%TO.N,VSYS*%
X91186000Y-169926000D03*
X88014937Y-173101000D03*
%TO.N,Net-(Q1-Pad4)*%
X101727000Y-156337000D03*
X104648000Y-153797000D03*
%TO.N,Net-(U4-ISET)*%
X85725000Y-172720000D03*
X92050600Y-172874600D03*
%TO.N,Net-(AE1-A)*%
X100700000Y-156500000D03*
X91800000Y-155800000D03*
X104100000Y-157500000D03*
X109728000Y-158496000D03*
X107500000Y-157200000D03*
%TO.N,Net-(U1-VCM)*%
X107500000Y-178900000D03*
X98171000Y-175133000D03*
%TD*%
D17*
%TO.N,GND*%
X105910200Y-178292200D02*
X105537000Y-177919000D01*
X108900000Y-178300000D02*
X108200000Y-178300000D01*
X108192200Y-178292200D02*
X105910200Y-178292200D01*
X109400000Y-177800000D02*
X108900000Y-178300000D01*
X108200000Y-178300000D02*
X108192200Y-178292200D01*
X109700000Y-177800000D02*
X109400000Y-177800000D01*
%TO.N,1.8V*%
X105156000Y-170053000D02*
X99314000Y-170053000D01*
X106251500Y-171148500D02*
X105156000Y-170053000D01*
%TO.N,Net-(AE1-A)*%
X107200000Y-157500000D02*
X107500000Y-157200000D01*
X104100000Y-157500000D02*
X107200000Y-157500000D01*
%TO.N,Positive Electrode*%
X107844200Y-174457800D02*
X105537000Y-176765000D01*
X107844200Y-170910403D02*
X107844200Y-174457800D01*
X107700000Y-160735703D02*
X107700000Y-170766203D01*
X107700000Y-170766203D02*
X107844200Y-170910403D01*
X109100000Y-159335703D02*
X107700000Y-160735703D01*
X109100000Y-149300000D02*
X109100000Y-159335703D01*
%TO.N,XC1*%
X107971200Y-151828700D02*
X107550000Y-151407500D01*
X107971200Y-158928800D02*
X107971200Y-151828700D01*
X107282397Y-159617603D02*
X107971200Y-158928800D01*
X107282397Y-160731053D02*
X107282397Y-159617603D01*
X107218740Y-160794710D02*
X107282397Y-160731053D01*
%TO.N,Net-(U2-DEC4)*%
X106934000Y-161925000D02*
X106904500Y-161954500D01*
X106934000Y-161434000D02*
X106934000Y-161925000D01*
X106700000Y-159200000D02*
X106700000Y-161200000D01*
X106724500Y-159175500D02*
X106700000Y-159200000D01*
X106700000Y-161200000D02*
X106934000Y-161434000D01*
X105918000Y-158369000D02*
X101800000Y-158369000D01*
X106724500Y-159175500D02*
X105918000Y-158369000D01*
%TO.N,VCM*%
X109800000Y-174800000D02*
X106700000Y-177900000D01*
X109800000Y-166200000D02*
X109800000Y-174800000D01*
D18*
%TO.N,Net-(U1-ECGP)*%
X103245576Y-175922670D02*
X103245576Y-178048576D01*
X103245576Y-178048576D02*
X104267000Y-179070000D01*
D17*
%TO.N,Net-(AE1-A)*%
X109728000Y-165481000D02*
X109728000Y-158496000D01*
%TO.N,1.8V*%
X101854000Y-166497000D02*
X102108000Y-166243000D01*
X102400000Y-168783000D02*
X101854000Y-168237000D01*
X105791000Y-159385000D02*
X105791000Y-165608000D01*
X98806000Y-159281002D02*
X98782998Y-159281002D01*
X101854000Y-168237000D02*
X101854000Y-166497000D01*
X98298000Y-169291000D02*
X98171000Y-169418000D01*
D18*
X87200000Y-164600000D02*
X87400000Y-164400000D01*
X87400000Y-164400000D02*
X89851000Y-164400000D01*
X89851000Y-164400000D02*
X94107000Y-168656000D01*
D17*
X98298000Y-164465000D02*
X98298000Y-169291000D01*
X98782998Y-159281002D02*
X98298000Y-159766000D01*
X105791000Y-165608000D02*
X106299000Y-166116000D01*
X98298000Y-159766000D02*
X98298000Y-164465000D01*
%TO.N,SDI*%
X102616000Y-167740400D02*
X102616000Y-167270510D01*
X102976800Y-168101200D02*
X102616000Y-167740400D01*
X102616000Y-167270510D02*
X102900582Y-166985928D01*
%TO.N,SCLK*%
X102682203Y-169164000D02*
X102587797Y-169164000D01*
X101997800Y-168949597D02*
X101997800Y-168914242D01*
X102566597Y-169185200D02*
X102233403Y-169185200D01*
X102703403Y-169185200D02*
X102682203Y-169164000D01*
X103436000Y-169164000D02*
X103057797Y-169164000D01*
X102233403Y-169185200D02*
X101997800Y-168949597D01*
X102587797Y-169164000D02*
X102566597Y-169185200D01*
X103057797Y-169164000D02*
X103036597Y-169185200D01*
X103036597Y-169185200D02*
X102703403Y-169185200D01*
X101997800Y-168914242D02*
X101346000Y-168262442D01*
X101346000Y-168262442D02*
X101346000Y-167640000D01*
X104500000Y-168100000D02*
X103436000Y-169164000D01*
%TO.N,CSB*%
X105019128Y-166726929D02*
X104027199Y-165735000D01*
X101854000Y-165735000D02*
X101346000Y-166243000D01*
X104027199Y-165735000D02*
X101854000Y-165735000D01*
X105019128Y-166760871D02*
X105019128Y-166726929D01*
%TO.N,SDO*%
X103159411Y-168620002D02*
X103159411Y-168493589D01*
X103378000Y-168275000D02*
X103378000Y-166600000D01*
X103159411Y-168493589D02*
X103378000Y-168275000D01*
%TO.N,Net-(U2-DCC)*%
X102362000Y-157988000D02*
X107315000Y-157988000D01*
X100700000Y-158300000D02*
X101100000Y-157900000D01*
X101100000Y-157900000D02*
X102274000Y-157900000D01*
X102274000Y-157900000D02*
X102362000Y-157988000D01*
%TO.N,VBATT*%
X90700000Y-160114000D02*
X93314000Y-157500000D01*
X90600000Y-161800000D02*
X90700000Y-161700000D01*
X90700000Y-161700000D02*
X90700000Y-160114000D01*
X93314000Y-157500000D02*
X101519800Y-157500000D01*
X90678000Y-167312500D02*
X93218000Y-169852500D01*
X90678000Y-167132000D02*
X90678000Y-167312500D01*
X101519800Y-157500000D02*
X103601800Y-155418000D01*
X104648000Y-154559000D02*
X104460800Y-154559000D01*
X104460800Y-154559000D02*
X103601800Y-155418000D01*
%TO.N,VSYS*%
X89916000Y-173101000D02*
X88014937Y-173101000D01*
X91440000Y-171577000D02*
X89916000Y-173101000D01*
X91186000Y-169926000D02*
X91440000Y-170180000D01*
X91440000Y-170180000D02*
X91440000Y-171577000D01*
%TO.N,Net-(Q1-Pad4)*%
X104648000Y-153797000D02*
X104267000Y-153797000D01*
X104267000Y-153797000D02*
X101727000Y-156337000D01*
%TO.N,Net-(U4-ISET)*%
X86741000Y-173736000D02*
X91189200Y-173736000D01*
X91189200Y-173736000D02*
X92050600Y-172874600D01*
X85725000Y-172720000D02*
X86741000Y-173736000D01*
%TO.N,Net-(AE1-A)*%
X91800000Y-155800000D02*
X100000000Y-155800000D01*
X100000000Y-155800000D02*
X100700000Y-156500000D01*
%TO.N,Net-(U1-VCM)*%
X102500000Y-179500000D02*
X102500000Y-179462000D01*
X107500000Y-178900000D02*
X106900000Y-179500000D01*
X106900000Y-179500000D02*
X102500000Y-179500000D01*
X102500000Y-179462000D02*
X98171000Y-175133000D01*
%TD*%
%TA.AperFunction,Conductor*%
%TO.N,GND*%
G36*
X109070634Y-160283160D02*
G01*
X109126567Y-160325032D01*
X109150984Y-160390496D01*
X109151300Y-160399342D01*
X109151300Y-165000612D01*
X109131615Y-165067651D01*
X109130402Y-165069502D01*
X109085077Y-165137335D01*
X109085069Y-165137349D01*
X109030381Y-165269379D01*
X109030379Y-165269385D01*
X109002500Y-165409542D01*
X109002500Y-165409545D01*
X109002500Y-165552455D01*
X109002500Y-165552457D01*
X109002499Y-165552457D01*
X109030379Y-165692614D01*
X109030381Y-165692620D01*
X109085071Y-165824654D01*
X109100799Y-165848193D01*
X109121676Y-165914870D01*
X109112259Y-165964530D01*
X109102381Y-165988379D01*
X109102379Y-165988386D01*
X109074500Y-166128542D01*
X109074500Y-166128545D01*
X109074500Y-166271455D01*
X109074500Y-166271457D01*
X109074499Y-166271457D01*
X109102379Y-166411614D01*
X109102381Y-166411620D01*
X109157069Y-166543650D01*
X109157070Y-166543652D01*
X109157071Y-166543653D01*
X109202402Y-166611496D01*
X109223280Y-166678171D01*
X109223300Y-166680385D01*
X109223300Y-174509760D01*
X109203615Y-174576799D01*
X109186981Y-174597441D01*
X106631896Y-177152525D01*
X106628832Y-177154197D01*
X106626994Y-177157168D01*
X106584288Y-177178520D01*
X106570573Y-177186010D01*
X106569468Y-177185930D01*
X106568408Y-177186461D01*
X106488383Y-177202379D01*
X106488381Y-177202380D01*
X106350719Y-177259402D01*
X106350266Y-177258308D01*
X106288025Y-177271261D01*
X106222784Y-177246254D01*
X106181419Y-177189945D01*
X106177064Y-177120211D01*
X106183423Y-177100215D01*
X106234619Y-176976620D01*
X106250538Y-176896588D01*
X106252680Y-176892493D01*
X106252602Y-176887869D01*
X106268724Y-176861821D01*
X106282921Y-176834682D01*
X106284416Y-176833159D01*
X108305675Y-174811902D01*
X108381599Y-174680398D01*
X108420900Y-174533724D01*
X108420900Y-174381875D01*
X108420900Y-170834479D01*
X108381599Y-170687805D01*
X108360117Y-170650598D01*
X108305674Y-170556299D01*
X108302325Y-170551935D01*
X108277130Y-170486766D01*
X108276700Y-170476448D01*
X108276700Y-161025942D01*
X108296385Y-160958903D01*
X108313019Y-160938261D01*
X108939619Y-160311661D01*
X109000942Y-160278176D01*
X109070634Y-160283160D01*
G37*
%TD.AperFunction*%
%TA.AperFunction,Conductor*%
G36*
X109504418Y-143500816D02*
G01*
X109688771Y-143514001D01*
X109699293Y-143515208D01*
X109738342Y-143521392D01*
X109745235Y-143522688D01*
X109904658Y-143557368D01*
X109916578Y-143560592D01*
X109946235Y-143570228D01*
X109951162Y-143571946D01*
X110112703Y-143632198D01*
X110125644Y-143637887D01*
X110133722Y-143642002D01*
X110134751Y-143642527D01*
X110137863Y-143644169D01*
X110302914Y-143734293D01*
X110317784Y-143743849D01*
X110387073Y-143795719D01*
X110474867Y-143861441D01*
X110488237Y-143873027D01*
X110626972Y-144011762D01*
X110638558Y-144025132D01*
X110756148Y-144182213D01*
X110765710Y-144197093D01*
X110810462Y-144279050D01*
X110855815Y-144362109D01*
X110857461Y-144365228D01*
X110862104Y-144374338D01*
X110867807Y-144387311D01*
X110928039Y-144548799D01*
X110929788Y-144553815D01*
X110939400Y-144583398D01*
X110942635Y-144595358D01*
X110977304Y-144754731D01*
X110978612Y-144761692D01*
X110984788Y-144800688D01*
X110985998Y-144811238D01*
X110999184Y-144995582D01*
X110999500Y-145004429D01*
X110999500Y-159607317D01*
X111030044Y-159819764D01*
X111030047Y-159819774D01*
X111090514Y-160025703D01*
X111090518Y-160025715D01*
X111106755Y-160061270D01*
X111109701Y-160067721D01*
X111112038Y-160074913D01*
X111121179Y-160092854D01*
X111122286Y-160095277D01*
X111122286Y-160095279D01*
X111179672Y-160220938D01*
X111179681Y-160220954D01*
X111208997Y-160266570D01*
X111208998Y-160266572D01*
X111212352Y-160271792D01*
X111219062Y-160284960D01*
X111234239Y-160305850D01*
X111236156Y-160308832D01*
X111236161Y-160308839D01*
X111295718Y-160401512D01*
X111295719Y-160401513D01*
X111345397Y-160458845D01*
X111357628Y-160475678D01*
X111375264Y-160493314D01*
X111378171Y-160496669D01*
X111378171Y-160496670D01*
X111436271Y-160563720D01*
X111503333Y-160621830D01*
X111503332Y-160621830D01*
X111506686Y-160624736D01*
X111524322Y-160642372D01*
X111541145Y-160654594D01*
X111598487Y-160704281D01*
X111694139Y-160765752D01*
X111715040Y-160780938D01*
X111728210Y-160787648D01*
X111779050Y-160820321D01*
X111907147Y-160878821D01*
X111925087Y-160887962D01*
X111932285Y-160890301D01*
X111974290Y-160909484D01*
X112180231Y-160969954D01*
X112180232Y-160969954D01*
X112180235Y-160969955D01*
X112243584Y-160979062D01*
X112392682Y-161000500D01*
X112499793Y-161000500D01*
X112999793Y-161000500D01*
X113495572Y-161000500D01*
X113504418Y-161000816D01*
X113688771Y-161014001D01*
X113699293Y-161015208D01*
X113738342Y-161021392D01*
X113745235Y-161022688D01*
X113904658Y-161057368D01*
X113916578Y-161060592D01*
X113946235Y-161070228D01*
X113951162Y-161071946D01*
X114112703Y-161132198D01*
X114125644Y-161137887D01*
X114133722Y-161142002D01*
X114134751Y-161142527D01*
X114137863Y-161144169D01*
X114302914Y-161234293D01*
X114317784Y-161243849D01*
X114474867Y-161361441D01*
X114488237Y-161373027D01*
X114626972Y-161511762D01*
X114638558Y-161525132D01*
X114756148Y-161682213D01*
X114765707Y-161697088D01*
X114810462Y-161779050D01*
X114855815Y-161862109D01*
X114857461Y-161865228D01*
X114862104Y-161874338D01*
X114867807Y-161887311D01*
X114928039Y-162048799D01*
X114929788Y-162053815D01*
X114939400Y-162083398D01*
X114942635Y-162095358D01*
X114977304Y-162254731D01*
X114978612Y-162261692D01*
X114984788Y-162300688D01*
X114985998Y-162311238D01*
X114999184Y-162495582D01*
X114999500Y-162504429D01*
X114999500Y-164995570D01*
X114999184Y-165004417D01*
X114985998Y-165188760D01*
X114984788Y-165199310D01*
X114978612Y-165238306D01*
X114977304Y-165245267D01*
X114942635Y-165404640D01*
X114939400Y-165416600D01*
X114929788Y-165446183D01*
X114928039Y-165451199D01*
X114867807Y-165612687D01*
X114862105Y-165625657D01*
X114857476Y-165634740D01*
X114855829Y-165637862D01*
X114765710Y-165802906D01*
X114756144Y-165817791D01*
X114638558Y-165974867D01*
X114626972Y-165988237D01*
X114488237Y-166126972D01*
X114474867Y-166138558D01*
X114317791Y-166256144D01*
X114302906Y-166265710D01*
X114137862Y-166355829D01*
X114134740Y-166357476D01*
X114125657Y-166362105D01*
X114112687Y-166367807D01*
X113951199Y-166428039D01*
X113946183Y-166429788D01*
X113916600Y-166439400D01*
X113904640Y-166442635D01*
X113745267Y-166477304D01*
X113738306Y-166478612D01*
X113699310Y-166484788D01*
X113688760Y-166485998D01*
X113504418Y-166499184D01*
X113495571Y-166499500D01*
X111912465Y-166499500D01*
X111740060Y-166529899D01*
X111719702Y-166537308D01*
X111711766Y-166540196D01*
X111709013Y-166540744D01*
X111699964Y-166544491D01*
X111697404Y-166545424D01*
X111575563Y-166589771D01*
X111575547Y-166589778D01*
X111544285Y-166607827D01*
X111544286Y-166607828D01*
X111537245Y-166611893D01*
X111527463Y-166615945D01*
X111509890Y-166627686D01*
X111506365Y-166629722D01*
X111423942Y-166677309D01*
X111383457Y-166711280D01*
X111378270Y-166715632D01*
X111364072Y-166725119D01*
X111348995Y-166740195D01*
X111344838Y-166743684D01*
X111289837Y-166789836D01*
X111289836Y-166789837D01*
X111243685Y-166844835D01*
X111243686Y-166844836D01*
X111240197Y-166848993D01*
X111225119Y-166864072D01*
X111215634Y-166878266D01*
X111211281Y-166883455D01*
X111211280Y-166883457D01*
X111177309Y-166923942D01*
X111129722Y-167006365D01*
X111127686Y-167009890D01*
X111115945Y-167027463D01*
X111111893Y-167037245D01*
X111107828Y-167044286D01*
X111107826Y-167044287D01*
X111089778Y-167075547D01*
X111089771Y-167075563D01*
X111045424Y-167197404D01*
X111044490Y-167199967D01*
X111040744Y-167209013D01*
X111040197Y-167211762D01*
X111037308Y-167219699D01*
X111037308Y-167219702D01*
X111029899Y-167240060D01*
X110999500Y-167412465D01*
X110999500Y-174107317D01*
X111030044Y-174319764D01*
X111030047Y-174319774D01*
X111090514Y-174525703D01*
X111090518Y-174525715D01*
X111106755Y-174561270D01*
X111109701Y-174567721D01*
X111112038Y-174574913D01*
X111121179Y-174592854D01*
X111122286Y-174595277D01*
X111122286Y-174595279D01*
X111179672Y-174720938D01*
X111179681Y-174720954D01*
X111208997Y-174766570D01*
X111208998Y-174766572D01*
X111212352Y-174771792D01*
X111219062Y-174784960D01*
X111234239Y-174805850D01*
X111236156Y-174808832D01*
X111236161Y-174808839D01*
X111279273Y-174875923D01*
X111295719Y-174901513D01*
X111345397Y-174958845D01*
X111357628Y-174975678D01*
X111375264Y-174993314D01*
X111378171Y-174996669D01*
X111378171Y-174996670D01*
X111436271Y-175063720D01*
X111503333Y-175121830D01*
X111503332Y-175121830D01*
X111506686Y-175124736D01*
X111524322Y-175142372D01*
X111541145Y-175154594D01*
X111598487Y-175204281D01*
X111694139Y-175265752D01*
X111715040Y-175280938D01*
X111728210Y-175287648D01*
X111779050Y-175320321D01*
X111907147Y-175378821D01*
X111925087Y-175387962D01*
X111932285Y-175390301D01*
X111974290Y-175409484D01*
X112180231Y-175469954D01*
X112180232Y-175469954D01*
X112180235Y-175469955D01*
X112243584Y-175479062D01*
X112392682Y-175500500D01*
X112499793Y-175500500D01*
X127495572Y-175500500D01*
X127504418Y-175500816D01*
X127688771Y-175514001D01*
X127699293Y-175515208D01*
X127738342Y-175521392D01*
X127745235Y-175522688D01*
X127904658Y-175557368D01*
X127916578Y-175560592D01*
X127946235Y-175570228D01*
X127951162Y-175571946D01*
X128112703Y-175632198D01*
X128125644Y-175637887D01*
X128133722Y-175642002D01*
X128134751Y-175642527D01*
X128137863Y-175644169D01*
X128302914Y-175734293D01*
X128317784Y-175743849D01*
X128464761Y-175853876D01*
X128474867Y-175861441D01*
X128488237Y-175873027D01*
X128626972Y-176011762D01*
X128638558Y-176025132D01*
X128756148Y-176182213D01*
X128765707Y-176197088D01*
X128786679Y-176235494D01*
X128855815Y-176362109D01*
X128857461Y-176365228D01*
X128862104Y-176374338D01*
X128867807Y-176387311D01*
X128928039Y-176548799D01*
X128929788Y-176553815D01*
X128939400Y-176583398D01*
X128942635Y-176595358D01*
X128977304Y-176754731D01*
X128978612Y-176761692D01*
X128984788Y-176800688D01*
X128985998Y-176811238D01*
X128999184Y-176995582D01*
X128999500Y-177004429D01*
X128999500Y-179495570D01*
X128999184Y-179504417D01*
X128985998Y-179688760D01*
X128984788Y-179699310D01*
X128978612Y-179738306D01*
X128977304Y-179745267D01*
X128942635Y-179904640D01*
X128939400Y-179916600D01*
X128929788Y-179946183D01*
X128928039Y-179951199D01*
X128867807Y-180112687D01*
X128862105Y-180125657D01*
X128857476Y-180134740D01*
X128855829Y-180137862D01*
X128765710Y-180302906D01*
X128756144Y-180317791D01*
X128638558Y-180474867D01*
X128626972Y-180488237D01*
X128488237Y-180626972D01*
X128474867Y-180638558D01*
X128317791Y-180756144D01*
X128302906Y-180765710D01*
X128137862Y-180855829D01*
X128134740Y-180857476D01*
X128125657Y-180862105D01*
X128112687Y-180867807D01*
X127951199Y-180928039D01*
X127946183Y-180929788D01*
X127916600Y-180939400D01*
X127904640Y-180942635D01*
X127745267Y-180977304D01*
X127738306Y-180978612D01*
X127699310Y-180984788D01*
X127688760Y-180985998D01*
X127504418Y-180999184D01*
X127495571Y-180999500D01*
X111912465Y-180999500D01*
X111740060Y-181029899D01*
X111719702Y-181037308D01*
X111711766Y-181040196D01*
X111709013Y-181040744D01*
X111699964Y-181044491D01*
X111697404Y-181045424D01*
X111575563Y-181089771D01*
X111575547Y-181089778D01*
X111544285Y-181107827D01*
X111544286Y-181107828D01*
X111537245Y-181111893D01*
X111527463Y-181115945D01*
X111509890Y-181127686D01*
X111506365Y-181129722D01*
X111423942Y-181177309D01*
X111383457Y-181211280D01*
X111378270Y-181215632D01*
X111364072Y-181225119D01*
X111348995Y-181240195D01*
X111344838Y-181243684D01*
X111289837Y-181289836D01*
X111289836Y-181289837D01*
X111243685Y-181344835D01*
X111243686Y-181344836D01*
X111240197Y-181348993D01*
X111225119Y-181364072D01*
X111215634Y-181378266D01*
X111211281Y-181383455D01*
X111211280Y-181383457D01*
X111177309Y-181423942D01*
X111129722Y-181506365D01*
X111127686Y-181509890D01*
X111115945Y-181527463D01*
X111111893Y-181537245D01*
X111107828Y-181544286D01*
X111107826Y-181544287D01*
X111089778Y-181575547D01*
X111089771Y-181575563D01*
X111045424Y-181697404D01*
X111044490Y-181699967D01*
X111040744Y-181709013D01*
X111040197Y-181711762D01*
X111037308Y-181719699D01*
X111037308Y-181719702D01*
X111029899Y-181740060D01*
X110999500Y-181912465D01*
X110999500Y-184495570D01*
X110999184Y-184504417D01*
X110985998Y-184688760D01*
X110984788Y-184699310D01*
X110978612Y-184738306D01*
X110977304Y-184745267D01*
X110942635Y-184904640D01*
X110939400Y-184916600D01*
X110929788Y-184946183D01*
X110928039Y-184951199D01*
X110867807Y-185112687D01*
X110862105Y-185125656D01*
X110862105Y-185125657D01*
X110857476Y-185134740D01*
X110855829Y-185137862D01*
X110765710Y-185302906D01*
X110756144Y-185317791D01*
X110638558Y-185474867D01*
X110626972Y-185488237D01*
X110488237Y-185626972D01*
X110474867Y-185638558D01*
X110317791Y-185756144D01*
X110302906Y-185765710D01*
X110137862Y-185855829D01*
X110134740Y-185857476D01*
X110125657Y-185862105D01*
X110112687Y-185867807D01*
X109951199Y-185928039D01*
X109946183Y-185929788D01*
X109916600Y-185939400D01*
X109904640Y-185942635D01*
X109745267Y-185977304D01*
X109738306Y-185978612D01*
X109699310Y-185984788D01*
X109688760Y-185985998D01*
X109504418Y-185999184D01*
X109495571Y-185999500D01*
X106504429Y-185999500D01*
X106495582Y-185999184D01*
X106311238Y-185985998D01*
X106300688Y-185984788D01*
X106261692Y-185978612D01*
X106254731Y-185977304D01*
X106095358Y-185942635D01*
X106083398Y-185939400D01*
X106053815Y-185929788D01*
X106048799Y-185928039D01*
X105887311Y-185867807D01*
X105874338Y-185862104D01*
X105865228Y-185857461D01*
X105862109Y-185855815D01*
X105797105Y-185820321D01*
X105697088Y-185765707D01*
X105682213Y-185756148D01*
X105525132Y-185638558D01*
X105511762Y-185626972D01*
X105373027Y-185488237D01*
X105361441Y-185474867D01*
X105243849Y-185317784D01*
X105234293Y-185302914D01*
X105144169Y-185137862D01*
X105142527Y-185134751D01*
X105137893Y-185125657D01*
X105137887Y-185125644D01*
X105132198Y-185112703D01*
X105071946Y-184951162D01*
X105070228Y-184946235D01*
X105060592Y-184916578D01*
X105057368Y-184904658D01*
X105022688Y-184745235D01*
X105021392Y-184738342D01*
X105015208Y-184699293D01*
X105014001Y-184688771D01*
X105000816Y-184504417D01*
X105000500Y-184495572D01*
X105000500Y-182324983D01*
X106424500Y-182324983D01*
X106424500Y-184075001D01*
X106424501Y-184075018D01*
X106435000Y-184177796D01*
X106435001Y-184177799D01*
X106490185Y-184344331D01*
X106490186Y-184344334D01*
X106582288Y-184493656D01*
X106706344Y-184617712D01*
X106855666Y-184709814D01*
X107022203Y-184764999D01*
X107124991Y-184775500D01*
X108875008Y-184775499D01*
X108977797Y-184764999D01*
X109144334Y-184709814D01*
X109293656Y-184617712D01*
X109417712Y-184493656D01*
X109509814Y-184344334D01*
X109564999Y-184177797D01*
X109575500Y-184075009D01*
X109575499Y-182324992D01*
X109564999Y-182222203D01*
X109509814Y-182055666D01*
X109417712Y-181906344D01*
X109293656Y-181782288D01*
X109192187Y-181719702D01*
X109144336Y-181690187D01*
X109144331Y-181690185D01*
X109142862Y-181689698D01*
X108977797Y-181635001D01*
X108977795Y-181635000D01*
X108875010Y-181624500D01*
X107124998Y-181624500D01*
X107124981Y-181624501D01*
X107022203Y-181635000D01*
X107022200Y-181635001D01*
X106855668Y-181690185D01*
X106855663Y-181690187D01*
X106706342Y-181782289D01*
X106582289Y-181906342D01*
X106490187Y-182055663D01*
X106490186Y-182055666D01*
X106435001Y-182222203D01*
X106435001Y-182222204D01*
X106435000Y-182222204D01*
X106424500Y-182324983D01*
X105000500Y-182324983D01*
X105000500Y-181412472D01*
X105000500Y-181412468D01*
X104981800Y-181306417D01*
X104970102Y-181240066D01*
X104970101Y-181240062D01*
X104959805Y-181211775D01*
X104959256Y-181209013D01*
X104955500Y-181199948D01*
X104910225Y-181075555D01*
X104888107Y-181037246D01*
X104884055Y-181027463D01*
X104872310Y-181009885D01*
X104870281Y-181006371D01*
X104866891Y-181000500D01*
X104831246Y-180938760D01*
X104822694Y-180923948D01*
X104822693Y-180923946D01*
X104822692Y-180923945D01*
X104788720Y-180883458D01*
X104788720Y-180883457D01*
X104784368Y-180878271D01*
X104774881Y-180864072D01*
X104759792Y-180848983D01*
X104756314Y-180844838D01*
X104756313Y-180844837D01*
X104710163Y-180789836D01*
X104655163Y-180743687D01*
X104655162Y-180743686D01*
X104651016Y-180740207D01*
X104635928Y-180725119D01*
X104621725Y-180715629D01*
X104616534Y-180711273D01*
X104576057Y-180677309D01*
X104493624Y-180629716D01*
X104493624Y-180629715D01*
X104490103Y-180627682D01*
X104472537Y-180615945D01*
X104462753Y-180611892D01*
X104455722Y-180607833D01*
X104424445Y-180589775D01*
X104302599Y-180545426D01*
X104300053Y-180544499D01*
X104290987Y-180540744D01*
X104288228Y-180540195D01*
X104280274Y-180537300D01*
X104280273Y-180537299D01*
X104259941Y-180529899D01*
X104087534Y-180499500D01*
X104087532Y-180499500D01*
X104000207Y-180499500D01*
X103500207Y-180499500D01*
X87000207Y-180499500D01*
X86504429Y-180499500D01*
X86495582Y-180499184D01*
X86311238Y-180485998D01*
X86300688Y-180484788D01*
X86261692Y-180478612D01*
X86254731Y-180477304D01*
X86095358Y-180442635D01*
X86083398Y-180439400D01*
X86053815Y-180429788D01*
X86048799Y-180428039D01*
X85887311Y-180367807D01*
X85874338Y-180362104D01*
X85865228Y-180357461D01*
X85862109Y-180355815D01*
X85779469Y-180310691D01*
X85697088Y-180265707D01*
X85682213Y-180256148D01*
X85525132Y-180138558D01*
X85511762Y-180126972D01*
X85373027Y-179988237D01*
X85361441Y-179974867D01*
X85243849Y-179817784D01*
X85234293Y-179802914D01*
X85144169Y-179637863D01*
X85142527Y-179634751D01*
X85142002Y-179633722D01*
X85137887Y-179625644D01*
X85132198Y-179612703D01*
X85071946Y-179451162D01*
X85070228Y-179446235D01*
X85060592Y-179416578D01*
X85057368Y-179404658D01*
X85022688Y-179245235D01*
X85021392Y-179238342D01*
X85015208Y-179199293D01*
X85014001Y-179188771D01*
X85000816Y-179004418D01*
X85000500Y-178995572D01*
X85000500Y-176924983D01*
X85714500Y-176924983D01*
X85714500Y-178675001D01*
X85714501Y-178675018D01*
X85725000Y-178777796D01*
X85725001Y-178777799D01*
X85780185Y-178944331D01*
X85780187Y-178944336D01*
X85811790Y-178995572D01*
X85872288Y-179093656D01*
X85996344Y-179217712D01*
X86145666Y-179309814D01*
X86312203Y-179364999D01*
X86414991Y-179375500D01*
X88165008Y-179375499D01*
X88267797Y-179364999D01*
X88434334Y-179309814D01*
X88583656Y-179217712D01*
X88707712Y-179093656D01*
X88799814Y-178944334D01*
X88854999Y-178777797D01*
X88865500Y-178675009D01*
X88865499Y-177799840D01*
X88865499Y-176925013D01*
X89925000Y-176925013D01*
X89925000Y-177550000D01*
X90980384Y-177550000D01*
X90964185Y-177578058D01*
X90925000Y-177724300D01*
X90925000Y-177875700D01*
X90964185Y-178021942D01*
X90980384Y-178050000D01*
X89925001Y-178050000D01*
X89925001Y-178674986D01*
X89935494Y-178777697D01*
X89990641Y-178944119D01*
X89990643Y-178944124D01*
X90082684Y-179093345D01*
X90206654Y-179217315D01*
X90355875Y-179309356D01*
X90355880Y-179309358D01*
X90522302Y-179364505D01*
X90522309Y-179364506D01*
X90625019Y-179374999D01*
X91249999Y-179374999D01*
X91250000Y-179374998D01*
X91250000Y-178319615D01*
X91278058Y-178335815D01*
X91424300Y-178375000D01*
X91575700Y-178375000D01*
X91721942Y-178335815D01*
X91750000Y-178319615D01*
X91750000Y-179374999D01*
X92374972Y-179374999D01*
X92374986Y-179374998D01*
X92477697Y-179364505D01*
X92644119Y-179309358D01*
X92644124Y-179309356D01*
X92793345Y-179217315D01*
X92917315Y-179093345D01*
X93009356Y-178944124D01*
X93009358Y-178944119D01*
X93064505Y-178777697D01*
X93064506Y-178777690D01*
X93074999Y-178674986D01*
X93075000Y-178674973D01*
X93075000Y-178050000D01*
X92019616Y-178050000D01*
X92035815Y-178021942D01*
X92075000Y-177875700D01*
X92075000Y-177724300D01*
X92035815Y-177578058D01*
X92019616Y-177550000D01*
X93074999Y-177550000D01*
X93074999Y-176925028D01*
X93074998Y-176925013D01*
X93064505Y-176822302D01*
X93009358Y-176655880D01*
X93009356Y-176655875D01*
X92917315Y-176506654D01*
X92793345Y-176382684D01*
X92644124Y-176290643D01*
X92644119Y-176290641D01*
X92477697Y-176235494D01*
X92477690Y-176235493D01*
X92374986Y-176225000D01*
X91750000Y-176225000D01*
X91750000Y-177280384D01*
X91721942Y-177264185D01*
X91575700Y-177225000D01*
X91424300Y-177225000D01*
X91278058Y-177264185D01*
X91250000Y-177280384D01*
X91250000Y-176225000D01*
X90625028Y-176225000D01*
X90625012Y-176225001D01*
X90522302Y-176235494D01*
X90355880Y-176290641D01*
X90355875Y-176290643D01*
X90206654Y-176382684D01*
X90082684Y-176506654D01*
X89990643Y-176655875D01*
X89990641Y-176655880D01*
X89935494Y-176822302D01*
X89935493Y-176822309D01*
X89925000Y-176925013D01*
X88865499Y-176925013D01*
X88865499Y-176924998D01*
X88865498Y-176924981D01*
X88854999Y-176822203D01*
X88854998Y-176822200D01*
X88843201Y-176786599D01*
X88799814Y-176655666D01*
X88707712Y-176506344D01*
X88583656Y-176382288D01*
X88490888Y-176325069D01*
X88434336Y-176290187D01*
X88434331Y-176290185D01*
X88432862Y-176289698D01*
X88267797Y-176235001D01*
X88267795Y-176235000D01*
X88165010Y-176224500D01*
X86414998Y-176224500D01*
X86414981Y-176224501D01*
X86312203Y-176235000D01*
X86312200Y-176235001D01*
X86145668Y-176290185D01*
X86145663Y-176290187D01*
X85996342Y-176382289D01*
X85872289Y-176506342D01*
X85780187Y-176655663D01*
X85780185Y-176655668D01*
X85780115Y-176655880D01*
X85725001Y-176822203D01*
X85725001Y-176822204D01*
X85725000Y-176822204D01*
X85714500Y-176924983D01*
X85000500Y-176924983D01*
X85000500Y-173320874D01*
X85020185Y-173253835D01*
X85072989Y-173208080D01*
X85142147Y-173198136D01*
X85205703Y-173227161D01*
X85212181Y-173233193D01*
X85262517Y-173283529D01*
X85262521Y-173283532D01*
X85381340Y-173362925D01*
X85381346Y-173362928D01*
X85381347Y-173362929D01*
X85513380Y-173417619D01*
X85593408Y-173433537D01*
X85655317Y-173465921D01*
X85656896Y-173467473D01*
X86386898Y-174197475D01*
X86386899Y-174197476D01*
X86386901Y-174197477D01*
X86424047Y-174218923D01*
X86518402Y-174273399D01*
X86665076Y-174312700D01*
X86665078Y-174312700D01*
X91265122Y-174312700D01*
X91265124Y-174312700D01*
X91411798Y-174273399D01*
X91543302Y-174197475D01*
X92118704Y-173622071D01*
X92180025Y-173588588D01*
X92182039Y-173588168D01*
X92262220Y-173572219D01*
X92394253Y-173517529D01*
X92513079Y-173438132D01*
X92614132Y-173337079D01*
X92693529Y-173218253D01*
X92748219Y-173086220D01*
X92776100Y-172946055D01*
X92776100Y-172803145D01*
X92776100Y-172803142D01*
X92748220Y-172662985D01*
X92748219Y-172662984D01*
X92748219Y-172662980D01*
X92693529Y-172530947D01*
X92693528Y-172530946D01*
X92693525Y-172530940D01*
X92614132Y-172412121D01*
X92614129Y-172412117D01*
X92513082Y-172311070D01*
X92513078Y-172311067D01*
X92394259Y-172231674D01*
X92394250Y-172231669D01*
X92262220Y-172176981D01*
X92262214Y-172176979D01*
X92122057Y-172149100D01*
X92122055Y-172149100D01*
X91982839Y-172149100D01*
X91915800Y-172129415D01*
X91870045Y-172076611D01*
X91860101Y-172007453D01*
X91889126Y-171943897D01*
X91895158Y-171937419D01*
X91901475Y-171931102D01*
X91977399Y-171799598D01*
X92016700Y-171652925D01*
X92016700Y-171501076D01*
X92016700Y-170104076D01*
X91977399Y-169957402D01*
X91918308Y-169855056D01*
X91906623Y-169827662D01*
X91905129Y-169822523D01*
X91883619Y-169714380D01*
X91850384Y-169634143D01*
X91848482Y-169627599D01*
X91848560Y-169599205D01*
X91845526Y-169570979D01*
X91848656Y-169564724D01*
X91848676Y-169557730D01*
X91864092Y-169533887D01*
X91876801Y-169508499D01*
X91882816Y-169504929D01*
X91886614Y-169499057D01*
X91912470Y-169487335D01*
X91936890Y-169472847D01*
X91943880Y-169473096D01*
X91950250Y-169470209D01*
X91978342Y-169474327D01*
X92006715Y-169475341D01*
X92013393Y-169479466D01*
X92019380Y-169480344D01*
X92030499Y-169490033D01*
X92055237Y-169505314D01*
X92470525Y-169920602D01*
X92504010Y-169981925D01*
X92504461Y-169984091D01*
X92520379Y-170064114D01*
X92520380Y-170064118D01*
X92575069Y-170196150D01*
X92575074Y-170196159D01*
X92654467Y-170314978D01*
X92654470Y-170314982D01*
X92755517Y-170416029D01*
X92755521Y-170416032D01*
X92874340Y-170495425D01*
X92874346Y-170495428D01*
X92874347Y-170495429D01*
X93006380Y-170550119D01*
X93006384Y-170550119D01*
X93006385Y-170550120D01*
X93146542Y-170578000D01*
X93146545Y-170578000D01*
X93289457Y-170578000D01*
X93398541Y-170556301D01*
X93429620Y-170550119D01*
X93561653Y-170495429D01*
X93680479Y-170416032D01*
X93781532Y-170314979D01*
X93860929Y-170196153D01*
X93915619Y-170064120D01*
X93936847Y-169957401D01*
X93943500Y-169923957D01*
X93943500Y-169781042D01*
X93915620Y-169640885D01*
X93915619Y-169640884D01*
X93915619Y-169640880D01*
X93910955Y-169629620D01*
X93876543Y-169546541D01*
X93869074Y-169477072D01*
X93900349Y-169414593D01*
X93960438Y-169378941D01*
X94015295Y-169377472D01*
X94035545Y-169381500D01*
X94178457Y-169381500D01*
X94295595Y-169358199D01*
X94318620Y-169353619D01*
X94450653Y-169298929D01*
X94569479Y-169219532D01*
X94670532Y-169118479D01*
X94749929Y-168999653D01*
X94804619Y-168867620D01*
X94818543Y-168797619D01*
X94832500Y-168727457D01*
X94832500Y-168584542D01*
X94804620Y-168444385D01*
X94804619Y-168444384D01*
X94804619Y-168444380D01*
X94749929Y-168312347D01*
X94749928Y-168312346D01*
X94749925Y-168312340D01*
X94670532Y-168193521D01*
X94670529Y-168193517D01*
X94569482Y-168092470D01*
X94569478Y-168092467D01*
X94450659Y-168013074D01*
X94450650Y-168013069D01*
X94318618Y-167958380D01*
X94318614Y-167958379D01*
X94280607Y-167950819D01*
X94218696Y-167918434D01*
X94217118Y-167916883D01*
X90338590Y-164038355D01*
X90338588Y-164038352D01*
X90219717Y-163919481D01*
X90219716Y-163919480D01*
X90124487Y-163864500D01*
X90082785Y-163840423D01*
X89930057Y-163799499D01*
X89771943Y-163799499D01*
X89764347Y-163799499D01*
X89764331Y-163799500D01*
X87486670Y-163799500D01*
X87486654Y-163799499D01*
X87479058Y-163799499D01*
X87320943Y-163799499D01*
X87186261Y-163835587D01*
X87168212Y-163840424D01*
X87116746Y-163870137D01*
X87078942Y-163884365D01*
X86988384Y-163902379D01*
X86988381Y-163902380D01*
X86856349Y-163957069D01*
X86856340Y-163957074D01*
X86737521Y-164036467D01*
X86737517Y-164036470D01*
X86636470Y-164137517D01*
X86636467Y-164137521D01*
X86557074Y-164256340D01*
X86557069Y-164256349D01*
X86502381Y-164388379D01*
X86502379Y-164388385D01*
X86474500Y-164528542D01*
X86474500Y-164528545D01*
X86474500Y-164671455D01*
X86474500Y-164671457D01*
X86474499Y-164671457D01*
X86502379Y-164811614D01*
X86502381Y-164811620D01*
X86557069Y-164943650D01*
X86557074Y-164943659D01*
X86636467Y-165062478D01*
X86636470Y-165062482D01*
X86737517Y-165163529D01*
X86737521Y-165163532D01*
X86856340Y-165242925D01*
X86856346Y-165242928D01*
X86856347Y-165242929D01*
X86988380Y-165297619D01*
X86988384Y-165297619D01*
X86988385Y-165297620D01*
X87128542Y-165325500D01*
X87128545Y-165325500D01*
X87271457Y-165325500D01*
X87365751Y-165306742D01*
X87411620Y-165297619D01*
X87543653Y-165242929D01*
X87662479Y-165163532D01*
X87763532Y-165062479D01*
X87765437Y-165059627D01*
X87768124Y-165055608D01*
X87821737Y-165010803D01*
X87871225Y-165000500D01*
X89550903Y-165000500D01*
X89617942Y-165020185D01*
X89638584Y-165036819D01*
X90796584Y-166194819D01*
X90830069Y-166256142D01*
X90825085Y-166325834D01*
X90783213Y-166381767D01*
X90717749Y-166406184D01*
X90708903Y-166406500D01*
X90606543Y-166406500D01*
X90466385Y-166434379D01*
X90466379Y-166434381D01*
X90334349Y-166489069D01*
X90334340Y-166489074D01*
X90215521Y-166568467D01*
X90215517Y-166568470D01*
X90114470Y-166669517D01*
X90114467Y-166669521D01*
X90035074Y-166788340D01*
X90035069Y-166788349D01*
X89980381Y-166920379D01*
X89980379Y-166920385D01*
X89952500Y-167060542D01*
X89952500Y-167060545D01*
X89952500Y-167203455D01*
X89952500Y-167203457D01*
X89952499Y-167203457D01*
X89980379Y-167343614D01*
X89980381Y-167343620D01*
X90035069Y-167475650D01*
X90035074Y-167475659D01*
X90114467Y-167594478D01*
X90114470Y-167594482D01*
X90215517Y-167695529D01*
X90215525Y-167695535D01*
X90295578Y-167749025D01*
X90314369Y-167764446D01*
X91606685Y-169056762D01*
X91640170Y-169118085D01*
X91635186Y-169187777D01*
X91593314Y-169243710D01*
X91527850Y-169268127D01*
X91471552Y-169259004D01*
X91397624Y-169228382D01*
X91397614Y-169228379D01*
X91257457Y-169200500D01*
X91257455Y-169200500D01*
X91114545Y-169200500D01*
X91114543Y-169200500D01*
X90974385Y-169228379D01*
X90974379Y-169228381D01*
X90842349Y-169283069D01*
X90842340Y-169283074D01*
X90723521Y-169362467D01*
X90723517Y-169362470D01*
X90622470Y-169463517D01*
X90622467Y-169463521D01*
X90543074Y-169582340D01*
X90543069Y-169582349D01*
X90488381Y-169714379D01*
X90488379Y-169714385D01*
X90460500Y-169854542D01*
X90460500Y-169854545D01*
X90460500Y-169997455D01*
X90460500Y-169997457D01*
X90460499Y-169997457D01*
X90488379Y-170137614D01*
X90488381Y-170137620D01*
X90543069Y-170269650D01*
X90543074Y-170269659D01*
X90622467Y-170388478D01*
X90622470Y-170388482D01*
X90723517Y-170489529D01*
X90723521Y-170489532D01*
X90808191Y-170546107D01*
X90852996Y-170599719D01*
X90863300Y-170649209D01*
X90863300Y-171286761D01*
X90843615Y-171353800D01*
X90826981Y-171374442D01*
X89713442Y-172487981D01*
X89652119Y-172521466D01*
X89625761Y-172524300D01*
X88495324Y-172524300D01*
X88428285Y-172504615D01*
X88426433Y-172503402D01*
X88358596Y-172458074D01*
X88358587Y-172458069D01*
X88226557Y-172403381D01*
X88226551Y-172403379D01*
X88086394Y-172375500D01*
X88086392Y-172375500D01*
X87943482Y-172375500D01*
X87943480Y-172375500D01*
X87803322Y-172403379D01*
X87803316Y-172403381D01*
X87671286Y-172458069D01*
X87671277Y-172458074D01*
X87552458Y-172537467D01*
X87552454Y-172537470D01*
X87451407Y-172638517D01*
X87451404Y-172638521D01*
X87372011Y-172757340D01*
X87372006Y-172757349D01*
X87317318Y-172889379D01*
X87317316Y-172889385D01*
X87289437Y-173029542D01*
X87289437Y-173035300D01*
X87286886Y-173043985D01*
X87288175Y-173052947D01*
X87277196Y-173076987D01*
X87269752Y-173102339D01*
X87262911Y-173108266D01*
X87259150Y-173116503D01*
X87236915Y-173130792D01*
X87216948Y-173148094D01*
X87206433Y-173150381D01*
X87200372Y-173154277D01*
X87165437Y-173159300D01*
X87031239Y-173159300D01*
X86964200Y-173139615D01*
X86943558Y-173122981D01*
X86472473Y-172651896D01*
X86438988Y-172590573D01*
X86438562Y-172588531D01*
X86422619Y-172508380D01*
X86367929Y-172376347D01*
X86367928Y-172376346D01*
X86367925Y-172376340D01*
X86288532Y-172257521D01*
X86288529Y-172257517D01*
X86187482Y-172156470D01*
X86187478Y-172156467D01*
X86068659Y-172077074D01*
X86068650Y-172077069D01*
X85936620Y-172022381D01*
X85936614Y-172022379D01*
X85796457Y-171994500D01*
X85796455Y-171994500D01*
X85653545Y-171994500D01*
X85653543Y-171994500D01*
X85513385Y-172022379D01*
X85513379Y-172022381D01*
X85381349Y-172077069D01*
X85381340Y-172077074D01*
X85262521Y-172156467D01*
X85262517Y-172156470D01*
X85212181Y-172206807D01*
X85150858Y-172240292D01*
X85081166Y-172235308D01*
X85025233Y-172193436D01*
X85000816Y-172127972D01*
X85000500Y-172119126D01*
X85000500Y-163624000D01*
X85020185Y-163556961D01*
X85072989Y-163511206D01*
X85124500Y-163500000D01*
X89300000Y-163500000D01*
X89300000Y-161871457D01*
X89874499Y-161871457D01*
X89902379Y-162011614D01*
X89902381Y-162011620D01*
X89957069Y-162143650D01*
X89957074Y-162143659D01*
X90036467Y-162262478D01*
X90036470Y-162262482D01*
X90137517Y-162363529D01*
X90137521Y-162363532D01*
X90256340Y-162442925D01*
X90256346Y-162442928D01*
X90256347Y-162442929D01*
X90388380Y-162497619D01*
X90388384Y-162497619D01*
X90388385Y-162497620D01*
X90528542Y-162525500D01*
X90528545Y-162525500D01*
X90671457Y-162525500D01*
X90797136Y-162500500D01*
X90811620Y-162497619D01*
X90943653Y-162442929D01*
X91062479Y-162363532D01*
X91163532Y-162262479D01*
X91242929Y-162143653D01*
X91297619Y-162011620D01*
X91325500Y-161871455D01*
X91325500Y-161728545D01*
X91325500Y-161728542D01*
X91297620Y-161588385D01*
X91297619Y-161588384D01*
X91297619Y-161588380D01*
X91286138Y-161560662D01*
X91276700Y-161513211D01*
X91276700Y-160404239D01*
X91296385Y-160337200D01*
X91313019Y-160316558D01*
X93516558Y-158113019D01*
X93577881Y-158079534D01*
X93604239Y-158076700D01*
X99853609Y-158076700D01*
X99920648Y-158096385D01*
X99966403Y-158149189D01*
X99976347Y-158218347D01*
X99975227Y-158224890D01*
X99974500Y-158228545D01*
X99974500Y-158371455D01*
X99974500Y-158371457D01*
X99974499Y-158371457D01*
X100002379Y-158511614D01*
X100002381Y-158511620D01*
X100057069Y-158643650D01*
X100057074Y-158643659D01*
X100136467Y-158762478D01*
X100136470Y-158762482D01*
X100237517Y-158863529D01*
X100237521Y-158863532D01*
X100356340Y-158942925D01*
X100356349Y-158942930D01*
X100363085Y-158945720D01*
X100488380Y-158997619D01*
X100488384Y-158997619D01*
X100488385Y-158997620D01*
X100628542Y-159025500D01*
X100628545Y-159025500D01*
X100771457Y-159025500D01*
X100865751Y-159006742D01*
X100911620Y-158997619D01*
X101043653Y-158942929D01*
X101141432Y-158877594D01*
X101208109Y-158856717D01*
X101275489Y-158875201D01*
X101298004Y-158893016D01*
X101337517Y-158932529D01*
X101337521Y-158932532D01*
X101456340Y-159011925D01*
X101456346Y-159011928D01*
X101456347Y-159011929D01*
X101588380Y-159066619D01*
X101588384Y-159066619D01*
X101588385Y-159066620D01*
X101728542Y-159094500D01*
X101728545Y-159094500D01*
X101871457Y-159094500D01*
X101965751Y-159075742D01*
X102011620Y-159066619D01*
X102143653Y-159011929D01*
X102165068Y-158997620D01*
X102211496Y-158966598D01*
X102278173Y-158945720D01*
X102280387Y-158945700D01*
X105002110Y-158945700D01*
X105069149Y-158965385D01*
X105114904Y-159018189D01*
X105124848Y-159087347D01*
X105116671Y-159117152D01*
X105093382Y-159173375D01*
X105093379Y-159173385D01*
X105065500Y-159313542D01*
X105065500Y-159313545D01*
X105065500Y-159456455D01*
X105065500Y-159456457D01*
X105065499Y-159456457D01*
X105093379Y-159596614D01*
X105093381Y-159596620D01*
X105148069Y-159728650D01*
X105148070Y-159728652D01*
X105148071Y-159728653D01*
X105193402Y-159796496D01*
X105214280Y-159863171D01*
X105214300Y-159865385D01*
X105214300Y-165532076D01*
X105214300Y-165683924D01*
X105216628Y-165692614D01*
X105249208Y-165814202D01*
X105247545Y-165884052D01*
X105208382Y-165941914D01*
X105144154Y-165969418D01*
X105075252Y-165957831D01*
X105041752Y-165933976D01*
X104381303Y-165273527D01*
X104381297Y-165273522D01*
X104249799Y-165197602D01*
X104249798Y-165197601D01*
X104249797Y-165197601D01*
X104103123Y-165158300D01*
X101929924Y-165158300D01*
X101778075Y-165158300D01*
X101664397Y-165188760D01*
X101631398Y-165197602D01*
X101499901Y-165273522D01*
X101499899Y-165273524D01*
X101277896Y-165495526D01*
X101216573Y-165529010D01*
X101214408Y-165529461D01*
X101134383Y-165545379D01*
X101134381Y-165545380D01*
X101002349Y-165600069D01*
X101002340Y-165600074D01*
X100883521Y-165679467D01*
X100883517Y-165679470D01*
X100782470Y-165780517D01*
X100782467Y-165780521D01*
X100703074Y-165899340D01*
X100703069Y-165899349D01*
X100648381Y-166031379D01*
X100648379Y-166031385D01*
X100620500Y-166171542D01*
X100620500Y-166171545D01*
X100620500Y-166314455D01*
X100620500Y-166314457D01*
X100620499Y-166314457D01*
X100648379Y-166454614D01*
X100648381Y-166454620D01*
X100703069Y-166586650D01*
X100703074Y-166586659D01*
X100782467Y-166705478D01*
X100782470Y-166705482D01*
X100883517Y-166806529D01*
X100883521Y-166806532D01*
X100931211Y-166838398D01*
X100976016Y-166892010D01*
X100984723Y-166961335D01*
X100954568Y-167024363D01*
X100931211Y-167044602D01*
X100883521Y-167076467D01*
X100883517Y-167076470D01*
X100782470Y-167177517D01*
X100782467Y-167177521D01*
X100703074Y-167296340D01*
X100703069Y-167296349D01*
X100648381Y-167428379D01*
X100648379Y-167428385D01*
X100620500Y-167568542D01*
X100620500Y-167568545D01*
X100620500Y-167711455D01*
X100620500Y-167711457D01*
X100620499Y-167711457D01*
X100648379Y-167851614D01*
X100648381Y-167851620D01*
X100703069Y-167983650D01*
X100703070Y-167983652D01*
X100703071Y-167983653D01*
X100748402Y-168051496D01*
X100769280Y-168118171D01*
X100769300Y-168120385D01*
X100769300Y-168186518D01*
X100769300Y-168338366D01*
X100797706Y-168444380D01*
X100808602Y-168485042D01*
X100808602Y-168485043D01*
X100884522Y-168616540D01*
X100884527Y-168616546D01*
X101476484Y-169208503D01*
X101496188Y-169234180D01*
X101528589Y-169290300D01*
X101545062Y-169358199D01*
X101522210Y-169424227D01*
X101467289Y-169467417D01*
X101421202Y-169476300D01*
X99794387Y-169476300D01*
X99727348Y-169456615D01*
X99725496Y-169455402D01*
X99657659Y-169410074D01*
X99657650Y-169410069D01*
X99525620Y-169355381D01*
X99525614Y-169355379D01*
X99385457Y-169327500D01*
X99385455Y-169327500D01*
X99242545Y-169327500D01*
X99242543Y-169327500D01*
X99102385Y-169355379D01*
X99102375Y-169355382D01*
X99053387Y-169375674D01*
X99032439Y-169377926D01*
X99012571Y-169384935D01*
X98998399Y-169381586D01*
X98983918Y-169383143D01*
X98965076Y-169373711D01*
X98944574Y-169368866D01*
X98934461Y-169358385D01*
X98921439Y-169351867D01*
X98910689Y-169333749D01*
X98896059Y-169318587D01*
X98887795Y-169295163D01*
X98885787Y-169291778D01*
X98884325Y-169285342D01*
X98877081Y-169248922D01*
X98874700Y-169224738D01*
X98874700Y-164945385D01*
X98894385Y-164878346D01*
X98895559Y-164876552D01*
X98940929Y-164808653D01*
X98995619Y-164676620D01*
X99023500Y-164536455D01*
X99023500Y-164393545D01*
X99023500Y-164393542D01*
X98995620Y-164253385D01*
X98995619Y-164253384D01*
X98995619Y-164253380D01*
X98940929Y-164121347D01*
X98940928Y-164121345D01*
X98940922Y-164121335D01*
X98895598Y-164053502D01*
X98874720Y-163986825D01*
X98874700Y-163984612D01*
X98874700Y-160108814D01*
X98894385Y-160041775D01*
X98947189Y-159996020D01*
X98974508Y-159987197D01*
X99002329Y-159981662D01*
X99017620Y-159978621D01*
X99149653Y-159923931D01*
X99268479Y-159844534D01*
X99369532Y-159743481D01*
X99448929Y-159624655D01*
X99503619Y-159492622D01*
X99531500Y-159352457D01*
X99531500Y-159209547D01*
X99531500Y-159209544D01*
X99503620Y-159069387D01*
X99503619Y-159069386D01*
X99503619Y-159069382D01*
X99460542Y-158965385D01*
X99448930Y-158937351D01*
X99448925Y-158937342D01*
X99369532Y-158818523D01*
X99369529Y-158818519D01*
X99268482Y-158717472D01*
X99268478Y-158717469D01*
X99149659Y-158638076D01*
X99149650Y-158638071D01*
X99017620Y-158583383D01*
X99017614Y-158583381D01*
X98877457Y-158555502D01*
X98877455Y-158555502D01*
X98734545Y-158555502D01*
X98734543Y-158555502D01*
X98594385Y-158583381D01*
X98594379Y-158583383D01*
X98462349Y-158638071D01*
X98462340Y-158638076D01*
X98343521Y-158717469D01*
X98343517Y-158717472D01*
X98242470Y-158818519D01*
X98242467Y-158818523D01*
X98163074Y-158937342D01*
X98163069Y-158937351D01*
X98108380Y-159069383D01*
X98108379Y-159069385D01*
X98098173Y-159120695D01*
X98089408Y-159137449D01*
X98085389Y-159155928D01*
X98066641Y-159180971D01*
X98065787Y-159182606D01*
X98064238Y-159184183D01*
X97943898Y-159304525D01*
X97836522Y-159411901D01*
X97760602Y-159543398D01*
X97760602Y-159543399D01*
X97760601Y-159543401D01*
X97760601Y-159543402D01*
X97738828Y-159624661D01*
X97721300Y-159690076D01*
X97721300Y-163984612D01*
X97701615Y-164051651D01*
X97700402Y-164053502D01*
X97655077Y-164121335D01*
X97655069Y-164121349D01*
X97600381Y-164253379D01*
X97600379Y-164253385D01*
X97572500Y-164393542D01*
X97572500Y-164393545D01*
X97572500Y-164536455D01*
X97572500Y-164536457D01*
X97572499Y-164536457D01*
X97600379Y-164676614D01*
X97600381Y-164676620D01*
X97655069Y-164808650D01*
X97655070Y-164808652D01*
X97655071Y-164808653D01*
X97700402Y-164876496D01*
X97721280Y-164943171D01*
X97721300Y-164945385D01*
X97721300Y-168790326D01*
X97701615Y-168857365D01*
X97684981Y-168878007D01*
X97607470Y-168955517D01*
X97607467Y-168955521D01*
X97528074Y-169074340D01*
X97528069Y-169074349D01*
X97473381Y-169206379D01*
X97473379Y-169206385D01*
X97445500Y-169346542D01*
X97445500Y-169346545D01*
X97445500Y-169489455D01*
X97445500Y-169489457D01*
X97445499Y-169489457D01*
X97473379Y-169629614D01*
X97473381Y-169629620D01*
X97528069Y-169761650D01*
X97528074Y-169761659D01*
X97607467Y-169880478D01*
X97607470Y-169880482D01*
X97708517Y-169981529D01*
X97708521Y-169981532D01*
X97827340Y-170060925D01*
X97827349Y-170060930D01*
X97857258Y-170073318D01*
X97959380Y-170115619D01*
X97959384Y-170115619D01*
X97959385Y-170115620D01*
X98099542Y-170143500D01*
X98099545Y-170143500D01*
X98242457Y-170143500D01*
X98364959Y-170119132D01*
X98382620Y-170115619D01*
X98431611Y-170095325D01*
X98501080Y-170087857D01*
X98563560Y-170119132D01*
X98599212Y-170179221D01*
X98600681Y-170185695D01*
X98616379Y-170264614D01*
X98616381Y-170264620D01*
X98671069Y-170396650D01*
X98671074Y-170396659D01*
X98750467Y-170515478D01*
X98750470Y-170515482D01*
X98851517Y-170616529D01*
X98851521Y-170616532D01*
X98970340Y-170695925D01*
X98970346Y-170695928D01*
X98970347Y-170695929D01*
X99102380Y-170750619D01*
X99102384Y-170750619D01*
X99102385Y-170750620D01*
X99242542Y-170778500D01*
X99242545Y-170778500D01*
X99385457Y-170778500D01*
X99479751Y-170759742D01*
X99525620Y-170750619D01*
X99657653Y-170695929D01*
X99666109Y-170690279D01*
X99725496Y-170650598D01*
X99792173Y-170629720D01*
X99794387Y-170629700D01*
X104865761Y-170629700D01*
X104932800Y-170649385D01*
X104953442Y-170666019D01*
X105504025Y-171216602D01*
X105537510Y-171277925D01*
X105537961Y-171280091D01*
X105553879Y-171360114D01*
X105553880Y-171360118D01*
X105608569Y-171492150D01*
X105608574Y-171492159D01*
X105687967Y-171610978D01*
X105687970Y-171610982D01*
X105789017Y-171712029D01*
X105789021Y-171712032D01*
X105907840Y-171791425D01*
X105907846Y-171791428D01*
X105907847Y-171791429D01*
X106039880Y-171846119D01*
X106039884Y-171846119D01*
X106039885Y-171846120D01*
X106180042Y-171874000D01*
X106180045Y-171874000D01*
X106322957Y-171874000D01*
X106417251Y-171855242D01*
X106463120Y-171846119D01*
X106595153Y-171791429D01*
X106713979Y-171712032D01*
X106815032Y-171610979D01*
X106894429Y-171492153D01*
X106949119Y-171360120D01*
X106965469Y-171277925D01*
X106977000Y-171219957D01*
X106977000Y-171130104D01*
X106977469Y-171128504D01*
X106977042Y-171126895D01*
X106987278Y-171095101D01*
X106996685Y-171063065D01*
X106997943Y-171061974D01*
X106998454Y-171060388D01*
X107024267Y-171039164D01*
X107049489Y-171017310D01*
X107051136Y-171017073D01*
X107052425Y-171016014D01*
X107085603Y-171012117D01*
X107118647Y-171007366D01*
X107120162Y-171008058D01*
X107121817Y-171007864D01*
X107151808Y-171022510D01*
X107182203Y-171036391D01*
X107183585Y-171038028D01*
X107184600Y-171038524D01*
X107196613Y-171053463D01*
X107207015Y-171065786D01*
X107207705Y-171066924D01*
X107238525Y-171120305D01*
X107242505Y-171124285D01*
X107249515Y-171135839D01*
X107256814Y-171163309D01*
X107267070Y-171189833D01*
X107267500Y-171200157D01*
X107267500Y-174167560D01*
X107247815Y-174234599D01*
X107231181Y-174255241D01*
X105468896Y-176017525D01*
X105407573Y-176051010D01*
X105405408Y-176051461D01*
X105325383Y-176067379D01*
X105325381Y-176067380D01*
X105193349Y-176122069D01*
X105193340Y-176122074D01*
X105074521Y-176201467D01*
X105074517Y-176201470D01*
X104973470Y-176302517D01*
X104973467Y-176302521D01*
X104894074Y-176421340D01*
X104894069Y-176421349D01*
X104839381Y-176553379D01*
X104839379Y-176553385D01*
X104811500Y-176693542D01*
X104811500Y-176693545D01*
X104811500Y-176836455D01*
X104811500Y-176836457D01*
X104811499Y-176836457D01*
X104839379Y-176976614D01*
X104839381Y-176976620D01*
X104894069Y-177108650D01*
X104894074Y-177108659D01*
X104973467Y-177227478D01*
X104973470Y-177227482D01*
X105074517Y-177328529D01*
X105074521Y-177328532D01*
X105193340Y-177407925D01*
X105193346Y-177407928D01*
X105193347Y-177407929D01*
X105325380Y-177462619D01*
X105325384Y-177462619D01*
X105325385Y-177462620D01*
X105465542Y-177490500D01*
X105465545Y-177490500D01*
X105608457Y-177490500D01*
X105702751Y-177471742D01*
X105748620Y-177462619D01*
X105880653Y-177407929D01*
X105880652Y-177407929D01*
X105886281Y-177405598D01*
X105886735Y-177406696D01*
X105948946Y-177393736D01*
X106014193Y-177418728D01*
X106055571Y-177475027D01*
X106059942Y-177544760D01*
X106053573Y-177564789D01*
X106002382Y-177688375D01*
X106002379Y-177688385D01*
X105974500Y-177828542D01*
X105974500Y-177828545D01*
X105974500Y-177971455D01*
X105974500Y-177971457D01*
X105974499Y-177971457D01*
X106002379Y-178111614D01*
X106002381Y-178111620D01*
X106057069Y-178243650D01*
X106057074Y-178243659D01*
X106136467Y-178362478D01*
X106136470Y-178362482D01*
X106237517Y-178463529D01*
X106237521Y-178463532D01*
X106356340Y-178542925D01*
X106356346Y-178542928D01*
X106356347Y-178542929D01*
X106488380Y-178597619D01*
X106488384Y-178597619D01*
X106488385Y-178597620D01*
X106628542Y-178625500D01*
X106659559Y-178625500D01*
X106680804Y-178631738D01*
X106702891Y-178633318D01*
X106713674Y-178641390D01*
X106726598Y-178645185D01*
X106741098Y-178661919D01*
X106758825Y-178675189D01*
X106763532Y-178687809D01*
X106772353Y-178697989D01*
X106775504Y-178719905D01*
X106783243Y-178740653D01*
X106780380Y-178753814D01*
X106782297Y-178767147D01*
X106773098Y-178787288D01*
X106768392Y-178808926D01*
X106755121Y-178826652D01*
X106753272Y-178830703D01*
X106747241Y-178837180D01*
X106697442Y-178886980D01*
X106636119Y-178920466D01*
X106609760Y-178923300D01*
X105074364Y-178923300D01*
X105007325Y-178903615D01*
X104961570Y-178850811D01*
X104959803Y-178846753D01*
X104909930Y-178726349D01*
X104909925Y-178726340D01*
X104830532Y-178607521D01*
X104830529Y-178607517D01*
X104729482Y-178506470D01*
X104729478Y-178506467D01*
X104610659Y-178427074D01*
X104610650Y-178427069D01*
X104478618Y-178372380D01*
X104478614Y-178372379D01*
X104440608Y-178364819D01*
X104378697Y-178332433D01*
X104377119Y-178330883D01*
X103882395Y-177836159D01*
X103848910Y-177774836D01*
X103846076Y-177748478D01*
X103846076Y-176367436D01*
X103865761Y-176300397D01*
X103866975Y-176298544D01*
X103888505Y-176266323D01*
X103943195Y-176134290D01*
X103956504Y-176067381D01*
X103971076Y-175994127D01*
X103971076Y-175851212D01*
X103943196Y-175711055D01*
X103943195Y-175711054D01*
X103943195Y-175711050D01*
X103888505Y-175579017D01*
X103888504Y-175579016D01*
X103888501Y-175579010D01*
X103809108Y-175460191D01*
X103809105Y-175460187D01*
X103708058Y-175359140D01*
X103708054Y-175359137D01*
X103589235Y-175279744D01*
X103589226Y-175279739D01*
X103457196Y-175225051D01*
X103457190Y-175225049D01*
X103317033Y-175197170D01*
X103317031Y-175197170D01*
X103174121Y-175197170D01*
X103174119Y-175197170D01*
X103033961Y-175225049D01*
X103033955Y-175225051D01*
X102901925Y-175279739D01*
X102901916Y-175279744D01*
X102783097Y-175359137D01*
X102783093Y-175359140D01*
X102682046Y-175460187D01*
X102682043Y-175460191D01*
X102602650Y-175579010D01*
X102602645Y-175579019D01*
X102547957Y-175711049D01*
X102547955Y-175711055D01*
X102520076Y-175851212D01*
X102520076Y-175851215D01*
X102520076Y-175994125D01*
X102520076Y-175994127D01*
X102520075Y-175994127D01*
X102547955Y-176134284D01*
X102547957Y-176134290D01*
X102589672Y-176235000D01*
X102602647Y-176266323D01*
X102618897Y-176290643D01*
X102624177Y-176298544D01*
X102645056Y-176365221D01*
X102645076Y-176367436D01*
X102645076Y-177961906D01*
X102645075Y-177961924D01*
X102645075Y-178127630D01*
X102645074Y-178127630D01*
X102657232Y-178173003D01*
X102679759Y-178257074D01*
X102686000Y-178280363D01*
X102697048Y-178299498D01*
X102697049Y-178299500D01*
X102765053Y-178417288D01*
X102765057Y-178417293D01*
X102883926Y-178536162D01*
X102883931Y-178536166D01*
X103059384Y-178711619D01*
X103092869Y-178772942D01*
X103087885Y-178842634D01*
X103046013Y-178898567D01*
X102980549Y-178922984D01*
X102971703Y-178923300D01*
X102828239Y-178923300D01*
X102796872Y-178914089D01*
X102765162Y-178906058D01*
X102763513Y-178904294D01*
X102761200Y-178903615D01*
X102740558Y-178886981D01*
X98918473Y-175064896D01*
X98884988Y-175003573D01*
X98884562Y-175001531D01*
X98868619Y-174921380D01*
X98813929Y-174789347D01*
X98813928Y-174789346D01*
X98813925Y-174789340D01*
X98734532Y-174670521D01*
X98734529Y-174670517D01*
X98633482Y-174569470D01*
X98633478Y-174569467D01*
X98514659Y-174490074D01*
X98514650Y-174490069D01*
X98382620Y-174435381D01*
X98382614Y-174435379D01*
X98242457Y-174407500D01*
X98242455Y-174407500D01*
X98099545Y-174407500D01*
X98099543Y-174407500D01*
X97959385Y-174435379D01*
X97959379Y-174435381D01*
X97827349Y-174490069D01*
X97827340Y-174490074D01*
X97708521Y-174569467D01*
X97708517Y-174569470D01*
X97607470Y-174670517D01*
X97607467Y-174670521D01*
X97528074Y-174789340D01*
X97528069Y-174789349D01*
X97473381Y-174921379D01*
X97473379Y-174921385D01*
X97445500Y-175061542D01*
X97445500Y-175061545D01*
X97445500Y-175204455D01*
X97445500Y-175204457D01*
X97445499Y-175204457D01*
X97473379Y-175344614D01*
X97473381Y-175344620D01*
X97528069Y-175476650D01*
X97528074Y-175476659D01*
X97607467Y-175595478D01*
X97607470Y-175595482D01*
X97708517Y-175696529D01*
X97708521Y-175696532D01*
X97827340Y-175775925D01*
X97827346Y-175775928D01*
X97827347Y-175775929D01*
X97959380Y-175830619D01*
X98039408Y-175846537D01*
X98101317Y-175878921D01*
X98102896Y-175880473D01*
X101975071Y-179752648D01*
X101994777Y-179778329D01*
X102038522Y-179854098D01*
X102038524Y-179854100D01*
X102038525Y-179854102D01*
X102145898Y-179961475D01*
X102145899Y-179961476D01*
X102145901Y-179961477D01*
X102181386Y-179981964D01*
X102277402Y-180037399D01*
X102424076Y-180076700D01*
X102424078Y-180076700D01*
X106975922Y-180076700D01*
X106975924Y-180076700D01*
X107122598Y-180037399D01*
X107254102Y-179961475D01*
X107568105Y-179647470D01*
X107629424Y-179613988D01*
X107631437Y-179613568D01*
X107711620Y-179597619D01*
X107843653Y-179542929D01*
X107962479Y-179463532D01*
X108063532Y-179362479D01*
X108142929Y-179243653D01*
X108197619Y-179111620D01*
X108219822Y-179000000D01*
X108225500Y-178971457D01*
X108225500Y-178828542D01*
X108197620Y-178688385D01*
X108197619Y-178688384D01*
X108197619Y-178688380D01*
X108142929Y-178556347D01*
X108142926Y-178556342D01*
X108132049Y-178540063D01*
X108132048Y-178540062D01*
X108089273Y-178476045D01*
X110725000Y-178476045D01*
X110725000Y-178723954D01*
X110763782Y-178968814D01*
X110840388Y-179204587D01*
X110840389Y-179204590D01*
X110952939Y-179425480D01*
X111023646Y-179522798D01*
X111023647Y-179522799D01*
X111755799Y-178790646D01*
X111764185Y-178821942D01*
X111839885Y-178953058D01*
X111946942Y-179060115D01*
X112078058Y-179135815D01*
X112109353Y-179144200D01*
X111377199Y-179876352D01*
X111474521Y-179947060D01*
X111474527Y-179947064D01*
X111695409Y-180059610D01*
X111695412Y-180059611D01*
X111931185Y-180136217D01*
X112176046Y-180175000D01*
X112423954Y-180175000D01*
X112668814Y-180136217D01*
X112904587Y-180059611D01*
X112904590Y-180059610D01*
X113125480Y-179947060D01*
X113222798Y-179876352D01*
X112490646Y-179144200D01*
X112521942Y-179135815D01*
X112653058Y-179060115D01*
X112760115Y-178953058D01*
X112835815Y-178821942D01*
X112844200Y-178790646D01*
X113576352Y-179522798D01*
X113647060Y-179425480D01*
X113759610Y-179204590D01*
X113759611Y-179204587D01*
X113836217Y-178968814D01*
X113875000Y-178723954D01*
X113875000Y-178476045D01*
X113874993Y-178475999D01*
X115324500Y-178475999D01*
X115324500Y-178724000D01*
X115363275Y-178968814D01*
X115363294Y-178968931D01*
X115439927Y-179204782D01*
X115552511Y-179425742D01*
X115698276Y-179626370D01*
X115873630Y-179801724D01*
X116074258Y-179947489D01*
X116295218Y-180060073D01*
X116531069Y-180136706D01*
X116622920Y-180151253D01*
X116776000Y-180175500D01*
X116776005Y-180175500D01*
X117024000Y-180175500D01*
X117160070Y-180153947D01*
X117268931Y-180136706D01*
X117504782Y-180060073D01*
X117725742Y-179947489D01*
X117926370Y-179801724D01*
X118101724Y-179626370D01*
X118247489Y-179425742D01*
X118360073Y-179204782D01*
X118436706Y-178968931D01*
X118456057Y-178846753D01*
X118475500Y-178724000D01*
X118475500Y-178475999D01*
X119924500Y-178475999D01*
X119924500Y-178724000D01*
X119963275Y-178968814D01*
X119963294Y-178968931D01*
X120039927Y-179204782D01*
X120152511Y-179425742D01*
X120298276Y-179626370D01*
X120473630Y-179801724D01*
X120674258Y-179947489D01*
X120895218Y-180060073D01*
X121131069Y-180136706D01*
X121222920Y-180151253D01*
X121376000Y-180175500D01*
X121376005Y-180175500D01*
X121624000Y-180175500D01*
X121760070Y-180153947D01*
X121868931Y-180136706D01*
X122104782Y-180060073D01*
X122325742Y-179947489D01*
X122526370Y-179801724D01*
X122701724Y-179626370D01*
X122847489Y-179425742D01*
X122960073Y-179204782D01*
X123036706Y-178968931D01*
X123056057Y-178846753D01*
X123075500Y-178724000D01*
X123075500Y-178475999D01*
X123041306Y-178260115D01*
X123036706Y-178231069D01*
X122960073Y-177995218D01*
X122847489Y-177774258D01*
X122811689Y-177724983D01*
X124524500Y-177724983D01*
X124524500Y-179475001D01*
X124524501Y-179475018D01*
X124535000Y-179577796D01*
X124535001Y-179577799D01*
X124589218Y-179741412D01*
X124590186Y-179744334D01*
X124682288Y-179893656D01*
X124806344Y-180017712D01*
X124955666Y-180109814D01*
X125122203Y-180164999D01*
X125224991Y-180175500D01*
X126975008Y-180175499D01*
X127077797Y-180164999D01*
X127244334Y-180109814D01*
X127393656Y-180017712D01*
X127517712Y-179893656D01*
X127609814Y-179744334D01*
X127664999Y-179577797D01*
X127675500Y-179475009D01*
X127675499Y-177724992D01*
X127664999Y-177622203D01*
X127609814Y-177455666D01*
X127517712Y-177306344D01*
X127393656Y-177182288D01*
X127244334Y-177090186D01*
X127077797Y-177035001D01*
X127077795Y-177035000D01*
X126975010Y-177024500D01*
X125224998Y-177024500D01*
X125224981Y-177024501D01*
X125122203Y-177035000D01*
X125122200Y-177035001D01*
X124955668Y-177090185D01*
X124955663Y-177090187D01*
X124806342Y-177182289D01*
X124682289Y-177306342D01*
X124590187Y-177455663D01*
X124590185Y-177455668D01*
X124583770Y-177475027D01*
X124535001Y-177622203D01*
X124535001Y-177622204D01*
X124535000Y-177622204D01*
X124524500Y-177724983D01*
X122811689Y-177724983D01*
X122701724Y-177573630D01*
X122526370Y-177398276D01*
X122325742Y-177252511D01*
X122313462Y-177246254D01*
X122104784Y-177139928D01*
X122104783Y-177139927D01*
X122104782Y-177139927D01*
X121868931Y-177063294D01*
X121868929Y-177063293D01*
X121868927Y-177063293D01*
X121624000Y-177024500D01*
X121623995Y-177024500D01*
X121376005Y-177024500D01*
X121376000Y-177024500D01*
X121131072Y-177063293D01*
X120895215Y-177139928D01*
X120674257Y-177252511D01*
X120600166Y-177306342D01*
X120473630Y-177398276D01*
X120473628Y-177398278D01*
X120473627Y-177398278D01*
X120298278Y-177573627D01*
X120298278Y-177573628D01*
X120298276Y-177573630D01*
X120295059Y-177578058D01*
X120152511Y-177774257D01*
X120039928Y-177995215D01*
X119963293Y-178231072D01*
X119924500Y-178475999D01*
X118475500Y-178475999D01*
X118441306Y-178260115D01*
X118436706Y-178231069D01*
X118360073Y-177995218D01*
X118247489Y-177774258D01*
X118101724Y-177573630D01*
X117926370Y-177398276D01*
X117725742Y-177252511D01*
X117713462Y-177246254D01*
X117504784Y-177139928D01*
X117504783Y-177139927D01*
X117504782Y-177139927D01*
X117268931Y-177063294D01*
X117268929Y-177063293D01*
X117268927Y-177063293D01*
X117024000Y-177024500D01*
X117023995Y-177024500D01*
X116776005Y-177024500D01*
X116776000Y-177024500D01*
X116531072Y-177063293D01*
X116295215Y-177139928D01*
X116074257Y-177252511D01*
X116000166Y-177306342D01*
X115873630Y-177398276D01*
X115873628Y-177398278D01*
X115873627Y-177398278D01*
X115698278Y-177573627D01*
X115698278Y-177573628D01*
X115698276Y-177573630D01*
X115695059Y-177578058D01*
X115552511Y-177774257D01*
X115439928Y-177995215D01*
X115363293Y-178231072D01*
X115324500Y-178475999D01*
X113874993Y-178475999D01*
X113836217Y-178231185D01*
X113759611Y-177995412D01*
X113759610Y-177995409D01*
X113647064Y-177774527D01*
X113647060Y-177774521D01*
X113576352Y-177677200D01*
X113576352Y-177677199D01*
X112844200Y-178409352D01*
X112835815Y-178378058D01*
X112760115Y-178246942D01*
X112653058Y-178139885D01*
X112521942Y-178064185D01*
X112490647Y-178055799D01*
X113222799Y-177323647D01*
X113222798Y-177323646D01*
X113125480Y-177252939D01*
X112904590Y-177140389D01*
X112904587Y-177140388D01*
X112668814Y-177063782D01*
X112423954Y-177025000D01*
X112176046Y-177025000D01*
X111931185Y-177063782D01*
X111695412Y-177140388D01*
X111695409Y-177140389D01*
X111474516Y-177252941D01*
X111377200Y-177323644D01*
X111377199Y-177323646D01*
X112109353Y-178055799D01*
X112078058Y-178064185D01*
X111946942Y-178139885D01*
X111839885Y-178246942D01*
X111764185Y-178378058D01*
X111755799Y-178409352D01*
X111023646Y-177677199D01*
X111023644Y-177677200D01*
X110952941Y-177774516D01*
X110840389Y-177995409D01*
X110840388Y-177995412D01*
X110763782Y-178231185D01*
X110725000Y-178476045D01*
X108089273Y-178476045D01*
X108063532Y-178437521D01*
X108063529Y-178437517D01*
X107962482Y-178336470D01*
X107962478Y-178336467D01*
X107843659Y-178257074D01*
X107843650Y-178257069D01*
X107711620Y-178202381D01*
X107711614Y-178202379D01*
X107571457Y-178174500D01*
X107571455Y-178174500D01*
X107540438Y-178174500D01*
X107473399Y-178154815D01*
X107427644Y-178102011D01*
X107417700Y-178032853D01*
X107446725Y-177969297D01*
X107452757Y-177962819D01*
X108838034Y-176577542D01*
X110261475Y-175154102D01*
X110337399Y-175022598D01*
X110376700Y-174875924D01*
X110376700Y-174724076D01*
X110376700Y-166680385D01*
X110396385Y-166613346D01*
X110397559Y-166611552D01*
X110442929Y-166543653D01*
X110497619Y-166411620D01*
X110525500Y-166271455D01*
X110525500Y-166128545D01*
X110525500Y-166128542D01*
X110497620Y-165988385D01*
X110497619Y-165988384D01*
X110497619Y-165988380D01*
X110442929Y-165856347D01*
X110427199Y-165832806D01*
X110406323Y-165766130D01*
X110415741Y-165716466D01*
X110425619Y-165692620D01*
X110438939Y-165625657D01*
X110453500Y-165552457D01*
X110453500Y-165409542D01*
X110425620Y-165269385D01*
X110425619Y-165269384D01*
X110425619Y-165269380D01*
X110370929Y-165137347D01*
X110370928Y-165137345D01*
X110370922Y-165137335D01*
X110325598Y-165069502D01*
X110304720Y-165002825D01*
X110304700Y-165000612D01*
X110304700Y-162924983D01*
X110624500Y-162924983D01*
X110624500Y-164675001D01*
X110624501Y-164675018D01*
X110635000Y-164777796D01*
X110635001Y-164777799D01*
X110678070Y-164907771D01*
X110690186Y-164944334D01*
X110782288Y-165093656D01*
X110906344Y-165217712D01*
X111055666Y-165309814D01*
X111222203Y-165364999D01*
X111324991Y-165375500D01*
X113075008Y-165375499D01*
X113177797Y-165364999D01*
X113344334Y-165309814D01*
X113493656Y-165217712D01*
X113617712Y-165093656D01*
X113709814Y-164944334D01*
X113764999Y-164777797D01*
X113775500Y-164675009D01*
X113775499Y-162924992D01*
X113764999Y-162822203D01*
X113709814Y-162655666D01*
X113617712Y-162506344D01*
X113493656Y-162382288D01*
X113344334Y-162290186D01*
X113177797Y-162235001D01*
X113177795Y-162235000D01*
X113075010Y-162224500D01*
X111324998Y-162224500D01*
X111324981Y-162224501D01*
X111222203Y-162235000D01*
X111222200Y-162235001D01*
X111055668Y-162290185D01*
X111055663Y-162290187D01*
X110906342Y-162382289D01*
X110782289Y-162506342D01*
X110690187Y-162655663D01*
X110690186Y-162655666D01*
X110635001Y-162822203D01*
X110635001Y-162822204D01*
X110635000Y-162822204D01*
X110624500Y-162924983D01*
X110304700Y-162924983D01*
X110304700Y-158976385D01*
X110324385Y-158909346D01*
X110325559Y-158907552D01*
X110370929Y-158839653D01*
X110425619Y-158707620D01*
X110453500Y-158567455D01*
X110453500Y-158424545D01*
X110453500Y-158424542D01*
X110425620Y-158284385D01*
X110425619Y-158284384D01*
X110425619Y-158284380D01*
X110370929Y-158152347D01*
X110370928Y-158152346D01*
X110370925Y-158152340D01*
X110291532Y-158033521D01*
X110291529Y-158033517D01*
X110190482Y-157932470D01*
X110190478Y-157932467D01*
X110071659Y-157853074D01*
X110071650Y-157853069D01*
X109939620Y-157798381D01*
X109939614Y-157798379D01*
X109799457Y-157770499D01*
X109793395Y-157769903D01*
X109793543Y-157768398D01*
X109733661Y-157750815D01*
X109687906Y-157698011D01*
X109676700Y-157646500D01*
X109676700Y-149780385D01*
X109696385Y-149713346D01*
X109697559Y-149711552D01*
X109742929Y-149643653D01*
X109797619Y-149511620D01*
X109825500Y-149371455D01*
X109825500Y-149228545D01*
X109825500Y-149228542D01*
X109797620Y-149088385D01*
X109797619Y-149088384D01*
X109797619Y-149088380D01*
X109742929Y-148956347D01*
X109742928Y-148956346D01*
X109742925Y-148956340D01*
X109663532Y-148837521D01*
X109663529Y-148837517D01*
X109562482Y-148736470D01*
X109562478Y-148736467D01*
X109443659Y-148657074D01*
X109443650Y-148657069D01*
X109311620Y-148602381D01*
X109311614Y-148602379D01*
X109171457Y-148574500D01*
X109171455Y-148574500D01*
X109028545Y-148574500D01*
X109028543Y-148574500D01*
X108888385Y-148602379D01*
X108888379Y-148602381D01*
X108756349Y-148657069D01*
X108756340Y-148657074D01*
X108637521Y-148736467D01*
X108637517Y-148736470D01*
X108536470Y-148837517D01*
X108536467Y-148837521D01*
X108457074Y-148956340D01*
X108457069Y-148956349D01*
X108402381Y-149088379D01*
X108402379Y-149088385D01*
X108374500Y-149228542D01*
X108374500Y-149228545D01*
X108374500Y-149371455D01*
X108374500Y-149371457D01*
X108374499Y-149371457D01*
X108402379Y-149511614D01*
X108402381Y-149511620D01*
X108457069Y-149643650D01*
X108457070Y-149643652D01*
X108457071Y-149643653D01*
X108502402Y-149711496D01*
X108523280Y-149778171D01*
X108523300Y-149780385D01*
X108523300Y-151265861D01*
X108517061Y-151287106D01*
X108515482Y-151309195D01*
X108507409Y-151319978D01*
X108503615Y-151332900D01*
X108486881Y-151347399D01*
X108473610Y-151365128D01*
X108460989Y-151369835D01*
X108450811Y-151378655D01*
X108428893Y-151381806D01*
X108408146Y-151389545D01*
X108394985Y-151386682D01*
X108381653Y-151388599D01*
X108361509Y-151379399D01*
X108339873Y-151374693D01*
X108322147Y-151361424D01*
X108318097Y-151359574D01*
X108311619Y-151353542D01*
X108297473Y-151339396D01*
X108263988Y-151278073D01*
X108263562Y-151276031D01*
X108247619Y-151195880D01*
X108192929Y-151063847D01*
X108192928Y-151063846D01*
X108192925Y-151063840D01*
X108113532Y-150945021D01*
X108113529Y-150945017D01*
X108012482Y-150843970D01*
X108012478Y-150843967D01*
X107893659Y-150764574D01*
X107893650Y-150764569D01*
X107761620Y-150709881D01*
X107761614Y-150709879D01*
X107621457Y-150682000D01*
X107621455Y-150682000D01*
X107478545Y-150682000D01*
X107478543Y-150682000D01*
X107338385Y-150709879D01*
X107338379Y-150709881D01*
X107206349Y-150764569D01*
X107206340Y-150764574D01*
X107087521Y-150843967D01*
X107087517Y-150843970D01*
X106986470Y-150945017D01*
X106986467Y-150945021D01*
X106907074Y-151063840D01*
X106907069Y-151063849D01*
X106852381Y-151195879D01*
X106852379Y-151195885D01*
X106824500Y-151336042D01*
X106824500Y-151336045D01*
X106824500Y-151478955D01*
X106824500Y-151478957D01*
X106824499Y-151478957D01*
X106852379Y-151619114D01*
X106852381Y-151619120D01*
X106907069Y-151751150D01*
X106907074Y-151751159D01*
X106986467Y-151869978D01*
X106986470Y-151869982D01*
X107087517Y-151971029D01*
X107087521Y-151971032D01*
X107206340Y-152050425D01*
X107206353Y-152050432D01*
X107267572Y-152075789D01*
X107317953Y-152096657D01*
X107372356Y-152140497D01*
X107394421Y-152206791D01*
X107394500Y-152211218D01*
X107394500Y-156379508D01*
X107374815Y-156446547D01*
X107322011Y-156492302D01*
X107294693Y-156501125D01*
X107288384Y-156502379D01*
X107288379Y-156502381D01*
X107156349Y-156557069D01*
X107156340Y-156557074D01*
X107037521Y-156636467D01*
X107037517Y-156636470D01*
X106936470Y-156737517D01*
X106936467Y-156737521D01*
X106857072Y-156856343D01*
X106856322Y-156857748D01*
X106855734Y-156858345D01*
X106853686Y-156861412D01*
X106853104Y-156861023D01*
X106807362Y-156907594D01*
X106746961Y-156923300D01*
X104580387Y-156923300D01*
X104513348Y-156903615D01*
X104511496Y-156902402D01*
X104443659Y-156857074D01*
X104443650Y-156857069D01*
X104311620Y-156802381D01*
X104311614Y-156802379D01*
X104171457Y-156774500D01*
X104171455Y-156774500D01*
X104028545Y-156774500D01*
X104028543Y-156774500D01*
X103888385Y-156802379D01*
X103888379Y-156802381D01*
X103756349Y-156857069D01*
X103756340Y-156857074D01*
X103637521Y-156936467D01*
X103637517Y-156936470D01*
X103536470Y-157037517D01*
X103536467Y-157037521D01*
X103457074Y-157156340D01*
X103457069Y-157156349D01*
X103402381Y-157288379D01*
X103402379Y-157288384D01*
X103397783Y-157311493D01*
X103365397Y-157373404D01*
X103304681Y-157407977D01*
X103276166Y-157411300D01*
X102723438Y-157411300D01*
X102656399Y-157391615D01*
X102610644Y-157338811D01*
X102600700Y-157269653D01*
X102629725Y-157206097D01*
X102635757Y-157199619D01*
X103123762Y-156711614D01*
X103669904Y-156165471D01*
X103731225Y-156131988D01*
X103733239Y-156131568D01*
X103813420Y-156115619D01*
X103945453Y-156060929D01*
X104064279Y-155981532D01*
X104165332Y-155880479D01*
X104244729Y-155761653D01*
X104299419Y-155629620D01*
X104315338Y-155549588D01*
X104324102Y-155532834D01*
X104328122Y-155514356D01*
X104346866Y-155489316D01*
X104347721Y-155487682D01*
X104349165Y-155486210D01*
X104514559Y-155320816D01*
X104575880Y-155287334D01*
X104602238Y-155284500D01*
X104719457Y-155284500D01*
X104829547Y-155262601D01*
X104859620Y-155256619D01*
X104991653Y-155201929D01*
X105110479Y-155122532D01*
X105211532Y-155021479D01*
X105290929Y-154902653D01*
X105345619Y-154770620D01*
X105354742Y-154724751D01*
X105373500Y-154630457D01*
X105373500Y-154487542D01*
X105345620Y-154347385D01*
X105345619Y-154347384D01*
X105345619Y-154347380D01*
X105295114Y-154225452D01*
X105287646Y-154155983D01*
X105295115Y-154130547D01*
X105345619Y-154008620D01*
X105373500Y-153868455D01*
X105373500Y-153725545D01*
X105373500Y-153725542D01*
X105345620Y-153585385D01*
X105345619Y-153585384D01*
X105345619Y-153585380D01*
X105290929Y-153453347D01*
X105290928Y-153453346D01*
X105290925Y-153453340D01*
X105211532Y-153334521D01*
X105211529Y-153334517D01*
X105110482Y-153233470D01*
X105110478Y-153233467D01*
X104991659Y-153154074D01*
X104991650Y-153154069D01*
X104859620Y-153099381D01*
X104859614Y-153099379D01*
X104719457Y-153071500D01*
X104719455Y-153071500D01*
X104576545Y-153071500D01*
X104576543Y-153071500D01*
X104436385Y-153099379D01*
X104436379Y-153099381D01*
X104304349Y-153154069D01*
X104304342Y-153154073D01*
X104231723Y-153202596D01*
X104194927Y-153219268D01*
X104044398Y-153259602D01*
X103912901Y-153335522D01*
X103912895Y-153335527D01*
X101658896Y-155589525D01*
X101597573Y-155623010D01*
X101595408Y-155623461D01*
X101515383Y-155639379D01*
X101515381Y-155639380D01*
X101383349Y-155694069D01*
X101383340Y-155694074D01*
X101264521Y-155773467D01*
X101197895Y-155840093D01*
X101136571Y-155873577D01*
X101066880Y-155868592D01*
X101049232Y-155859561D01*
X101049028Y-155859944D01*
X101043650Y-155857069D01*
X100911618Y-155802380D01*
X100911614Y-155802379D01*
X100831591Y-155786461D01*
X100769680Y-155754076D01*
X100768102Y-155752525D01*
X100354104Y-155338527D01*
X100354098Y-155338522D01*
X100222600Y-155262602D01*
X100222599Y-155262601D01*
X100222598Y-155262601D01*
X100075924Y-155223300D01*
X100075923Y-155223300D01*
X92280387Y-155223300D01*
X92213348Y-155203615D01*
X92211496Y-155202402D01*
X92143659Y-155157074D01*
X92143650Y-155157069D01*
X92011620Y-155102381D01*
X92011614Y-155102379D01*
X91871457Y-155074500D01*
X91871455Y-155074500D01*
X91728545Y-155074500D01*
X91728543Y-155074500D01*
X91588385Y-155102379D01*
X91588379Y-155102381D01*
X91456349Y-155157069D01*
X91456340Y-155157074D01*
X91337521Y-155236467D01*
X91337517Y-155236470D01*
X91236470Y-155337517D01*
X91236467Y-155337521D01*
X91157074Y-155456340D01*
X91157069Y-155456349D01*
X91102381Y-155588379D01*
X91102379Y-155588385D01*
X91074500Y-155728542D01*
X91074500Y-155728545D01*
X91074500Y-155871455D01*
X91074500Y-155871457D01*
X91074499Y-155871457D01*
X91102379Y-156011614D01*
X91102381Y-156011620D01*
X91157069Y-156143650D01*
X91157074Y-156143659D01*
X91236467Y-156262478D01*
X91236470Y-156262482D01*
X91337517Y-156363529D01*
X91337521Y-156363532D01*
X91456340Y-156442925D01*
X91456349Y-156442930D01*
X91486258Y-156455318D01*
X91588380Y-156497619D01*
X91588384Y-156497619D01*
X91588385Y-156497620D01*
X91728542Y-156525500D01*
X91728545Y-156525500D01*
X91871457Y-156525500D01*
X91993994Y-156501125D01*
X92011620Y-156497619D01*
X92143653Y-156442929D01*
X92211496Y-156397598D01*
X92278173Y-156376720D01*
X92280387Y-156376700D01*
X99709761Y-156376700D01*
X99739201Y-156385344D01*
X99769188Y-156391868D01*
X99774203Y-156395622D01*
X99776800Y-156396385D01*
X99797442Y-156413019D01*
X99952525Y-156568102D01*
X99986010Y-156629425D01*
X99986461Y-156631591D01*
X100002379Y-156711614D01*
X100002380Y-156711618D01*
X100019044Y-156751847D01*
X100026513Y-156821316D01*
X99995238Y-156883795D01*
X99935150Y-156919448D01*
X99904483Y-156923300D01*
X93389924Y-156923300D01*
X93238076Y-156923300D01*
X93091402Y-156962601D01*
X93091401Y-156962601D01*
X93091399Y-156962602D01*
X93091398Y-156962602D01*
X92959901Y-157038522D01*
X92959895Y-157038527D01*
X90238527Y-159759895D01*
X90238522Y-159759901D01*
X90162602Y-159891398D01*
X90162602Y-159891399D01*
X90123300Y-160038076D01*
X90123300Y-161199326D01*
X90103615Y-161266365D01*
X90086981Y-161287007D01*
X90036470Y-161337517D01*
X90036467Y-161337521D01*
X89957074Y-161456340D01*
X89957069Y-161456349D01*
X89902381Y-161588379D01*
X89902379Y-161588385D01*
X89874500Y-161728542D01*
X89874500Y-161728545D01*
X89874500Y-161871455D01*
X89874500Y-161871457D01*
X89874499Y-161871457D01*
X89300000Y-161871457D01*
X89300000Y-154700000D01*
X85124500Y-154700000D01*
X85057461Y-154680315D01*
X85011706Y-154627511D01*
X85000500Y-154576000D01*
X85000500Y-150496579D01*
X85610000Y-150496579D01*
X85610000Y-150650000D01*
X86360000Y-150650000D01*
X86360000Y-151150000D01*
X85610000Y-151150000D01*
X85610000Y-151303420D01*
X85650348Y-151506266D01*
X85650350Y-151506274D01*
X85729500Y-151697358D01*
X85729505Y-151697368D01*
X85844410Y-151869335D01*
X85844413Y-151869339D01*
X85990660Y-152015586D01*
X85990664Y-152015589D01*
X86162631Y-152130494D01*
X86162641Y-152130499D01*
X86353723Y-152209648D01*
X86353725Y-152209649D01*
X86410000Y-152220842D01*
X86410000Y-151366988D01*
X86419940Y-151384205D01*
X86475795Y-151440060D01*
X86544204Y-151479556D01*
X86620504Y-151500000D01*
X86699496Y-151500000D01*
X86775796Y-151479556D01*
X86844205Y-151440060D01*
X86900060Y-151384205D01*
X86910000Y-151366988D01*
X86910000Y-152220842D01*
X86966274Y-152209649D01*
X86966276Y-152209648D01*
X87157358Y-152130499D01*
X87157368Y-152130494D01*
X87329335Y-152015589D01*
X87329339Y-152015586D01*
X87475586Y-151869339D01*
X87475589Y-151869335D01*
X87590494Y-151697368D01*
X87590499Y-151697358D01*
X87669649Y-151506274D01*
X87669651Y-151506266D01*
X87709999Y-151303420D01*
X87710000Y-151303417D01*
X87710000Y-151150000D01*
X86960000Y-151150000D01*
X86960000Y-150650000D01*
X87710000Y-150650000D01*
X87710000Y-150496583D01*
X87709999Y-150496579D01*
X94250000Y-150496579D01*
X94250000Y-150650000D01*
X95000000Y-150650000D01*
X95000000Y-151150000D01*
X94250000Y-151150000D01*
X94250000Y-151303420D01*
X94290348Y-151506266D01*
X94290350Y-151506274D01*
X94369500Y-151697358D01*
X94369505Y-151697368D01*
X94484410Y-151869335D01*
X94484413Y-151869339D01*
X94630660Y-152015586D01*
X94630664Y-152015589D01*
X94802631Y-152130494D01*
X94802641Y-152130499D01*
X94993723Y-152209648D01*
X94993725Y-152209649D01*
X95050000Y-152220842D01*
X95050000Y-151366988D01*
X95059940Y-151384205D01*
X95115795Y-151440060D01*
X95184204Y-151479556D01*
X95260504Y-151500000D01*
X95339496Y-151500000D01*
X95415796Y-151479556D01*
X95484205Y-151440060D01*
X95540060Y-151384205D01*
X95550000Y-151366988D01*
X95550000Y-152220842D01*
X95606274Y-152209649D01*
X95606276Y-152209648D01*
X95797358Y-152130499D01*
X95797368Y-152130494D01*
X95969335Y-152015589D01*
X95969339Y-152015586D01*
X96115586Y-151869339D01*
X96115589Y-151869335D01*
X96230494Y-151697368D01*
X96230499Y-151697358D01*
X96309649Y-151506274D01*
X96309651Y-151506266D01*
X96349999Y-151303420D01*
X96350000Y-151303417D01*
X96350000Y-151150000D01*
X95600000Y-151150000D01*
X95600000Y-150650000D01*
X96350000Y-150650000D01*
X96350000Y-150496583D01*
X96349999Y-150496579D01*
X96309651Y-150293733D01*
X96309649Y-150293725D01*
X96230499Y-150102641D01*
X96230494Y-150102631D01*
X96115589Y-149930664D01*
X96115586Y-149930660D01*
X95969339Y-149784413D01*
X95969335Y-149784410D01*
X95797368Y-149669505D01*
X95797358Y-149669500D01*
X95606272Y-149590349D01*
X95606267Y-149590347D01*
X95550000Y-149579155D01*
X95550000Y-150433011D01*
X95540060Y-150415795D01*
X95484205Y-150359940D01*
X95415796Y-150320444D01*
X95339496Y-150300000D01*
X95260504Y-150300000D01*
X95184204Y-150320444D01*
X95115795Y-150359940D01*
X95059940Y-150415795D01*
X95050000Y-150433011D01*
X95050000Y-149579156D01*
X95049999Y-149579155D01*
X94993732Y-149590347D01*
X94993727Y-149590349D01*
X94802641Y-149669500D01*
X94802631Y-149669505D01*
X94630664Y-149784410D01*
X94630660Y-149784413D01*
X94484413Y-149930660D01*
X94484410Y-149930664D01*
X94369505Y-150102631D01*
X94369500Y-150102641D01*
X94290350Y-150293725D01*
X94290348Y-150293733D01*
X94250000Y-150496579D01*
X87709999Y-150496579D01*
X87669651Y-150293733D01*
X87669649Y-150293725D01*
X87590499Y-150102641D01*
X87590494Y-150102631D01*
X87475589Y-149930664D01*
X87475586Y-149930660D01*
X87329339Y-149784413D01*
X87329335Y-149784410D01*
X87157368Y-149669505D01*
X87157358Y-149669500D01*
X86966272Y-149590349D01*
X86966267Y-149590347D01*
X86910000Y-149579155D01*
X86910000Y-150433011D01*
X86900060Y-150415795D01*
X86844205Y-150359940D01*
X86775796Y-150320444D01*
X86699496Y-150300000D01*
X86620504Y-150300000D01*
X86544204Y-150320444D01*
X86475795Y-150359940D01*
X86419940Y-150415795D01*
X86410000Y-150433011D01*
X86410000Y-149579156D01*
X86409999Y-149579155D01*
X86353732Y-149590347D01*
X86353727Y-149590349D01*
X86162641Y-149669500D01*
X86162631Y-149669505D01*
X85990664Y-149784410D01*
X85990660Y-149784413D01*
X85844413Y-149930660D01*
X85844410Y-149930664D01*
X85729505Y-150102631D01*
X85729500Y-150102641D01*
X85650350Y-150293725D01*
X85650348Y-150293733D01*
X85610000Y-150496579D01*
X85000500Y-150496579D01*
X85000500Y-147004066D01*
X85000765Y-146995957D01*
X85008509Y-146877799D01*
X85015681Y-146768378D01*
X85016670Y-146758911D01*
X85024090Y-146707307D01*
X85025192Y-146700874D01*
X85026046Y-146696579D01*
X85610000Y-146696579D01*
X85610000Y-146850000D01*
X86360000Y-146850000D01*
X86360000Y-147350000D01*
X85610000Y-147350000D01*
X85610000Y-147503420D01*
X85650348Y-147706266D01*
X85650350Y-147706274D01*
X85729500Y-147897358D01*
X85729505Y-147897368D01*
X85844410Y-148069335D01*
X85844413Y-148069339D01*
X85990660Y-148215586D01*
X85990664Y-148215589D01*
X86162631Y-148330494D01*
X86162641Y-148330499D01*
X86353723Y-148409648D01*
X86353725Y-148409649D01*
X86410000Y-148420842D01*
X86410000Y-147566988D01*
X86419940Y-147584205D01*
X86475795Y-147640060D01*
X86544204Y-147679556D01*
X86620504Y-147700000D01*
X86699496Y-147700000D01*
X86775796Y-147679556D01*
X86844205Y-147640060D01*
X86900060Y-147584205D01*
X86910000Y-147566988D01*
X86910000Y-148420842D01*
X86966274Y-148409649D01*
X86966276Y-148409648D01*
X87157358Y-148330499D01*
X87157368Y-148330494D01*
X87329335Y-148215589D01*
X87329339Y-148215586D01*
X87475586Y-148069339D01*
X87475589Y-148069335D01*
X87590494Y-147897368D01*
X87590499Y-147897358D01*
X87669649Y-147706274D01*
X87669651Y-147706266D01*
X87709999Y-147503420D01*
X87710000Y-147503417D01*
X87710000Y-147350000D01*
X86960000Y-147350000D01*
X86960000Y-146850000D01*
X87710000Y-146850000D01*
X87710000Y-146696583D01*
X87709999Y-146696579D01*
X94250000Y-146696579D01*
X94250000Y-146850000D01*
X95000000Y-146850000D01*
X95000000Y-147350000D01*
X94250000Y-147350000D01*
X94250000Y-147503420D01*
X94290348Y-147706266D01*
X94290350Y-147706274D01*
X94369500Y-147897358D01*
X94369505Y-147897368D01*
X94484410Y-148069335D01*
X94484413Y-148069339D01*
X94630660Y-148215586D01*
X94630664Y-148215589D01*
X94802631Y-148330494D01*
X94802641Y-148330499D01*
X94993723Y-148409648D01*
X94993725Y-148409649D01*
X95050000Y-148420842D01*
X95050000Y-147566988D01*
X95059940Y-147584205D01*
X95115795Y-147640060D01*
X95184204Y-147679556D01*
X95260504Y-147700000D01*
X95339496Y-147700000D01*
X95415796Y-147679556D01*
X95484205Y-147640060D01*
X95540060Y-147584205D01*
X95550000Y-147566988D01*
X95550000Y-148420842D01*
X95606274Y-148409649D01*
X95606276Y-148409648D01*
X95797358Y-148330499D01*
X95797368Y-148330494D01*
X95969335Y-148215589D01*
X95969339Y-148215586D01*
X96115586Y-148069339D01*
X96115589Y-148069335D01*
X96230494Y-147897368D01*
X96230499Y-147897358D01*
X96309649Y-147706274D01*
X96309651Y-147706266D01*
X96349999Y-147503420D01*
X96350000Y-147503417D01*
X96350000Y-147350000D01*
X95600000Y-147350000D01*
X95600000Y-146850000D01*
X96350000Y-146850000D01*
X96350000Y-146696583D01*
X96349999Y-146696579D01*
X96309651Y-146493733D01*
X96309649Y-146493725D01*
X96230499Y-146302641D01*
X96230494Y-146302631D01*
X96115589Y-146130664D01*
X96115586Y-146130660D01*
X95969339Y-145984413D01*
X95969335Y-145984410D01*
X95797368Y-145869505D01*
X95797358Y-145869500D01*
X95606272Y-145790349D01*
X95606267Y-145790347D01*
X95550000Y-145779155D01*
X95550000Y-146633011D01*
X95540060Y-146615795D01*
X95484205Y-146559940D01*
X95415796Y-146520444D01*
X95339496Y-146500000D01*
X95260504Y-146500000D01*
X95184204Y-146520444D01*
X95115795Y-146559940D01*
X95059940Y-146615795D01*
X95050000Y-146633011D01*
X95050000Y-145779156D01*
X95049999Y-145779155D01*
X94993732Y-145790347D01*
X94993727Y-145790349D01*
X94802641Y-145869500D01*
X94802631Y-145869505D01*
X94630664Y-145984410D01*
X94630660Y-145984413D01*
X94484413Y-146130660D01*
X94484410Y-146130664D01*
X94369505Y-146302631D01*
X94369500Y-146302641D01*
X94290350Y-146493725D01*
X94290348Y-146493733D01*
X94250000Y-146696579D01*
X87709999Y-146696579D01*
X87669651Y-146493733D01*
X87669649Y-146493725D01*
X87590499Y-146302641D01*
X87590494Y-146302631D01*
X87475589Y-146130664D01*
X87475586Y-146130660D01*
X87329339Y-145984413D01*
X87329335Y-145984410D01*
X87157368Y-145869505D01*
X87157358Y-145869500D01*
X86966272Y-145790349D01*
X86966267Y-145790347D01*
X86910000Y-145779155D01*
X86910000Y-146633011D01*
X86900060Y-146615795D01*
X86844205Y-146559940D01*
X86775796Y-146520444D01*
X86699496Y-146500000D01*
X86620504Y-146500000D01*
X86544204Y-146520444D01*
X86475795Y-146559940D01*
X86419940Y-146615795D01*
X86410000Y-146633011D01*
X86410000Y-145779156D01*
X86409999Y-145779155D01*
X86353732Y-145790347D01*
X86353727Y-145790349D01*
X86162641Y-145869500D01*
X86162631Y-145869505D01*
X85990664Y-145984410D01*
X85990660Y-145984413D01*
X85844413Y-146130660D01*
X85844410Y-146130664D01*
X85729505Y-146302631D01*
X85729500Y-146302641D01*
X85650350Y-146493725D01*
X85650348Y-146493733D01*
X85610000Y-146696579D01*
X85026046Y-146696579D01*
X85064312Y-146504200D01*
X85066938Y-146493513D01*
X85079361Y-146451205D01*
X85080877Y-146446412D01*
X85148231Y-146247996D01*
X85152834Y-146236397D01*
X85163477Y-146213093D01*
X85164987Y-146209913D01*
X85264790Y-146007533D01*
X85272893Y-145993498D01*
X85409182Y-145789527D01*
X85419039Y-145776681D01*
X85580786Y-145592244D01*
X85592244Y-145580786D01*
X85776681Y-145419039D01*
X85789527Y-145409182D01*
X85993498Y-145272893D01*
X86007533Y-145264790D01*
X86209913Y-145164987D01*
X86213093Y-145163477D01*
X86236397Y-145152834D01*
X86247996Y-145148231D01*
X86446412Y-145080877D01*
X86451205Y-145079361D01*
X86493513Y-145066938D01*
X86504200Y-145064312D01*
X86700868Y-145025193D01*
X86707308Y-145024090D01*
X86758911Y-145016670D01*
X86768378Y-145015681D01*
X86983057Y-145001610D01*
X86995958Y-145000765D01*
X87004067Y-145000500D01*
X95495572Y-145000500D01*
X95504418Y-145000816D01*
X95688771Y-145014001D01*
X95699293Y-145015208D01*
X95738342Y-145021392D01*
X95745235Y-145022688D01*
X95904658Y-145057368D01*
X95916578Y-145060592D01*
X95946235Y-145070228D01*
X95951162Y-145071946D01*
X96112703Y-145132198D01*
X96125644Y-145137887D01*
X96133722Y-145142002D01*
X96134751Y-145142527D01*
X96137863Y-145144169D01*
X96302914Y-145234293D01*
X96317784Y-145243849D01*
X96387073Y-145295719D01*
X96474867Y-145361441D01*
X96488237Y-145373027D01*
X96626972Y-145511762D01*
X96638558Y-145525132D01*
X96756148Y-145682213D01*
X96765707Y-145697088D01*
X96816631Y-145790347D01*
X96855815Y-145862109D01*
X96857461Y-145865228D01*
X96862104Y-145874338D01*
X96867807Y-145887311D01*
X96928039Y-146048799D01*
X96929788Y-146053815D01*
X96939400Y-146083398D01*
X96942635Y-146095358D01*
X96977304Y-146254731D01*
X96978612Y-146261692D01*
X96984788Y-146300688D01*
X96985998Y-146311238D01*
X96999184Y-146495582D01*
X96999500Y-146504429D01*
X96999500Y-147587534D01*
X97029899Y-147759940D01*
X97029899Y-147759941D01*
X97037300Y-147780274D01*
X97040195Y-147788228D01*
X97040744Y-147790987D01*
X97044500Y-147800054D01*
X97089775Y-147924445D01*
X97107824Y-147955707D01*
X97107830Y-147955716D01*
X97107830Y-147955717D01*
X97111893Y-147962754D01*
X97115945Y-147972537D01*
X97127679Y-147990098D01*
X97129707Y-147993611D01*
X97129716Y-147993624D01*
X97177309Y-148076057D01*
X97211273Y-148116534D01*
X97215628Y-148121724D01*
X97225119Y-148135928D01*
X97240208Y-148151017D01*
X97243687Y-148155163D01*
X97289836Y-148210163D01*
X97344837Y-148256313D01*
X97344838Y-148256314D01*
X97348983Y-148259792D01*
X97364072Y-148274881D01*
X97378274Y-148284370D01*
X97383454Y-148288717D01*
X97383458Y-148288720D01*
X97423945Y-148322692D01*
X97509888Y-148372312D01*
X97527463Y-148384055D01*
X97537245Y-148388106D01*
X97575555Y-148410225D01*
X97699948Y-148455500D01*
X97709013Y-148459256D01*
X97711775Y-148459805D01*
X97740062Y-148470101D01*
X97740064Y-148470101D01*
X97740066Y-148470102D01*
X97806417Y-148481800D01*
X97912468Y-148500500D01*
X97912472Y-148500500D01*
X104587528Y-148500500D01*
X104587532Y-148500500D01*
X104759938Y-148470101D01*
X104788229Y-148459803D01*
X104790987Y-148459256D01*
X104800057Y-148455498D01*
X104924445Y-148410225D01*
X104962756Y-148388105D01*
X104972537Y-148384055D01*
X104990104Y-148372316D01*
X105076055Y-148322692D01*
X105121725Y-148284370D01*
X105135928Y-148274881D01*
X105151011Y-148259796D01*
X105210163Y-148210163D01*
X105259796Y-148151011D01*
X105274881Y-148135928D01*
X105284371Y-148121724D01*
X105322692Y-148076055D01*
X105372320Y-147990098D01*
X105384055Y-147972537D01*
X105388106Y-147962754D01*
X105410225Y-147924445D01*
X105455500Y-147800054D01*
X105459256Y-147790987D01*
X105459804Y-147788228D01*
X105470101Y-147759938D01*
X105500500Y-147587532D01*
X105500500Y-147500000D01*
X105500500Y-147499500D01*
X105500500Y-145024983D01*
X106624500Y-145024983D01*
X106624500Y-146775001D01*
X106624501Y-146775018D01*
X106635000Y-146877796D01*
X106635001Y-146877799D01*
X106675495Y-147000000D01*
X106690186Y-147044334D01*
X106782288Y-147193656D01*
X106906344Y-147317712D01*
X107055666Y-147409814D01*
X107222203Y-147464999D01*
X107324991Y-147475500D01*
X109075008Y-147475499D01*
X109177797Y-147464999D01*
X109344334Y-147409814D01*
X109493656Y-147317712D01*
X109617712Y-147193656D01*
X109709814Y-147044334D01*
X109764999Y-146877797D01*
X109775500Y-146775009D01*
X109775499Y-145024992D01*
X109773398Y-145004429D01*
X109764999Y-144922203D01*
X109764998Y-144922200D01*
X109728229Y-144811239D01*
X109709814Y-144755666D01*
X109617712Y-144606344D01*
X109493656Y-144482288D01*
X109344334Y-144390186D01*
X109177797Y-144335001D01*
X109177795Y-144335000D01*
X109075010Y-144324500D01*
X107324998Y-144324500D01*
X107324981Y-144324501D01*
X107222203Y-144335000D01*
X107222200Y-144335001D01*
X107055668Y-144390185D01*
X107055663Y-144390187D01*
X106906342Y-144482289D01*
X106782289Y-144606342D01*
X106690187Y-144755663D01*
X106690185Y-144755668D01*
X106671771Y-144811238D01*
X106635001Y-144922203D01*
X106635001Y-144922204D01*
X106635000Y-144922204D01*
X106624500Y-145024983D01*
X105500500Y-145024983D01*
X105500500Y-145004427D01*
X105500816Y-144995581D01*
X105506064Y-144922200D01*
X105514001Y-144811223D01*
X105515207Y-144800711D01*
X105521394Y-144761644D01*
X105522685Y-144754777D01*
X105557370Y-144595331D01*
X105560588Y-144583431D01*
X105570237Y-144553734D01*
X105571935Y-144548867D01*
X105632203Y-144387282D01*
X105637880Y-144374367D01*
X105642553Y-144365196D01*
X105644151Y-144362169D01*
X105734295Y-144197082D01*
X105743845Y-144182221D01*
X105861448Y-144025123D01*
X105873020Y-144011769D01*
X106011769Y-143873020D01*
X106025123Y-143861448D01*
X106182221Y-143743845D01*
X106197082Y-143734295D01*
X106362169Y-143644151D01*
X106365196Y-143642553D01*
X106374367Y-143637880D01*
X106387282Y-143632203D01*
X106548867Y-143571935D01*
X106553734Y-143570237D01*
X106583431Y-143560588D01*
X106595331Y-143557370D01*
X106754777Y-143522685D01*
X106761644Y-143521394D01*
X106800711Y-143515207D01*
X106811223Y-143514001D01*
X106995582Y-143500816D01*
X107004428Y-143500500D01*
X109495572Y-143500500D01*
X109504418Y-143500816D01*
G37*
%TD.AperFunction*%
%TD*%
M02*
